<svg width="40" height="40" viewBox="0 0 40 40" fill="none" xmlns="http://www.w3.org/2000/svg">
<path d="M37.939 0.375774C36.5214 0.131592 35.0859 0.00590287 33.6474 8.60353e-06C28.7394 -0.00401502 23.9338 1.40334 19.8034 4.05432C15.6623 1.43815 10.8575 0.0653341 5.95938 0.0988941C4.52088 0.104788 3.08538 0.230478 1.66774 0.474659C1.20339 0.554714 0.782876 0.797933 0.481932 1.16052C0.180988 1.5231 0.0193905 1.98122 0.0262408 2.45237V26.1849C0.0220051 26.4755 0.0818663 26.7635 0.201565 27.0283C0.321264 27.2931 0.497858 27.5283 0.718783 27.7171C0.939708 27.906 1.19953 28.0438 1.47977 28.1208C1.76001 28.1978 2.05378 28.2121 2.34016 28.1626C5.17427 27.6719 8.07791 27.7533 10.8801 28.4021C13.6822 29.0508 16.3262 30.2538 18.6563 31.9401L18.8936 32.0785H19.1112C19.3305 32.1699 19.5658 32.2169 19.8034 32.2169C20.041 32.2169 20.2762 32.1699 20.4956 32.0785H20.7131L20.9504 31.9401C23.2643 30.2161 25.9007 28.9742 28.7034 28.2879C31.5061 27.6017 34.418 27.4851 37.2666 27.9451C37.553 27.9945 37.8467 27.9802 38.127 27.9032C38.4072 27.8262 38.667 27.6884 38.888 27.4996C39.1089 27.3108 39.2855 27.0756 39.4052 26.8107C39.5249 26.5459 39.5847 26.258 39.5805 25.9674V2.23482C39.5599 1.78421 39.3859 1.35417 39.0873 1.01603C38.7888 0.677899 38.3836 0.451988 37.939 0.375774ZM17.8257 26.6596C14.1667 24.7346 10.0938 23.73 5.95938 23.7326C5.30673 23.7326 4.65409 23.7326 3.98167 23.7326V3.95543C4.64036 3.91747 5.30069 3.91747 5.95938 3.95543C10.1786 3.95077 14.3058 5.18891 17.8257 7.51532V26.6596ZM35.6251 23.8117C34.9526 23.8117 34.3 23.8117 33.6474 23.8117C29.5129 23.8091 25.4401 24.8137 21.7811 26.7387V7.51532C25.301 5.18891 29.4281 3.95077 33.6474 3.95543C34.306 3.91747 34.9664 3.91747 35.6251 3.95543V23.8117ZM37.939 32.0192C36.5214 31.775 35.0859 31.6493 33.6474 31.6434C28.7394 31.6394 23.9338 33.0467 19.8034 35.6977C15.6729 33.0467 10.8673 31.6394 5.95938 31.6434C4.52088 31.6493 3.08538 31.775 1.66774 32.0192C1.4103 32.06 1.16347 32.1514 0.941452 32.288C0.719433 32.4245 0.526604 32.6037 0.374054 32.815C0.221504 33.0264 0.112242 33.2658 0.0525518 33.5196C-0.00713888 33.7733 -0.0160806 34.0363 0.0262408 34.2935C0.126745 34.8071 0.426709 35.2599 0.860421 35.5528C1.29413 35.8456 1.82624 35.9546 2.34016 35.8559C5.17427 35.3652 8.07791 35.4467 10.8801 36.0954C13.6822 36.7441 16.3262 37.9471 18.6563 39.6334C18.9912 39.8718 19.3922 40 19.8034 40C20.2145 40 20.6155 39.8718 20.9504 39.6334C23.2805 37.9471 25.9245 36.7441 28.7267 36.0954C31.5288 35.4467 34.4325 35.3652 37.2666 35.8559C37.7805 35.9546 38.3126 35.8456 38.7463 35.5528C39.18 35.2599 39.48 34.8071 39.5805 34.2935C39.6228 34.0363 39.6139 33.7733 39.5542 33.5196C39.4945 33.2658 39.3852 33.0264 39.2327 32.815C39.0801 32.6037 38.8873 32.4245 38.6653 32.288C38.4433 32.1514 38.1964 32.06 37.939 32.0192Z" fill="#333333"/>
</svg>
