<svg width="40" height="41" viewBox="0 0 40 41" fill="none" xmlns="http://www.w3.org/2000/svg">
<path d="M39.4384 37.6073L32.0228 30.2461C34.9013 26.6544 36.2952 22.0954 35.9181 17.5066C35.5409 12.9179 33.4213 8.64812 29.995 5.57534C26.5687 2.50256 22.0963 0.860294 17.4972 0.986235C12.8982 1.11218 8.52218 2.99675 5.26895 6.25245C2.01573 9.50814 0.132584 13.8875 0.00673792 18.49C-0.119108 23.0926 1.52191 27.5684 4.59236 30.9973C7.66281 34.4262 11.9293 36.5474 16.5146 36.9249C21.0999 37.3023 25.6554 35.9073 29.2444 33.0266L36.6 40.3878C36.7859 40.5753 37.0069 40.7241 37.2505 40.8257C37.4941 40.9272 37.7553 40.9795 38.0192 40.9795C38.2831 40.9795 38.5443 40.9272 38.7879 40.8257C39.0315 40.7241 39.2525 40.5753 39.4384 40.3878C39.7986 40.0148 40 39.5163 40 38.9976C40 38.4788 39.7986 37.9803 39.4384 37.6073ZM18.0311 33.0266C15.2638 33.0266 12.5586 32.2054 10.2577 30.6668C7.9568 29.1282 6.16345 26.9413 5.10445 24.3827C4.04546 21.8241 3.76837 19.0087 4.30825 16.2926C4.84812 13.5764 6.1807 11.0814 8.13747 9.12314C10.0942 7.16488 12.5873 5.83129 15.3014 5.29101C18.0156 4.75073 20.8288 5.02802 23.3855 6.08782C25.9421 7.14762 28.1273 8.94234 29.6647 11.245C31.2022 13.5477 32.0228 16.2549 32.0228 19.0243C32.0228 22.7379 30.5486 26.2995 27.9247 28.9254C25.3007 31.5513 21.7419 33.0266 18.0311 33.0266Z" fill="#333333"/>
</svg>

