<svg width="40" height="40" viewBox="0 0 40 40" fill="none" xmlns="http://www.w3.org/2000/svg">
<path d="M27.2763 21.4186C29.236 19.8769 30.6664 17.7626 31.3685 15.37C32.0705 12.9774 32.0094 10.4255 31.1937 8.06927C30.3779 5.71304 28.8479 3.66966 26.8167 2.22342C24.7855 0.777182 22.3541 0 19.8606 0C17.3671 0 14.9357 0.777182 12.9045 2.22342C10.8733 3.66966 9.34337 5.71304 8.52757 8.06927C7.71178 10.4255 7.65068 12.9774 8.35277 15.37C9.05486 17.7626 10.4852 19.8769 12.4449 21.4186C9.08698 22.7639 6.15709 24.9953 3.96756 27.8748C1.77803 30.7542 0.410953 34.1739 0.0120567 37.7692C-0.0168174 38.0317 0.00629313 38.2973 0.0800684 38.5509C0.153844 38.8044 0.276839 39.041 0.442032 39.247C0.775654 39.6631 1.2609 39.9296 1.79103 39.9879C2.32116 40.0462 2.85274 39.8916 3.26883 39.558C3.68492 39.2243 3.95144 38.7391 4.00975 38.209C4.44867 34.3016 6.3118 30.6929 9.24317 28.0724C12.1745 25.4519 15.9687 24.0032 19.9006 24.0032C23.8325 24.0032 27.6266 25.4519 30.558 28.0724C33.4894 30.6929 35.3525 34.3016 35.7914 38.209C35.8458 38.7001 36.0801 39.1537 36.4493 39.4823C36.8184 39.8108 37.2961 39.9909 37.7903 39.9879H38.0101C38.5341 39.9276 39.013 39.6627 39.3425 39.2509C39.672 38.839 39.8253 38.3136 39.7691 37.7892C39.3684 34.1837 37.9939 30.7552 35.7931 27.8713C33.5923 24.9874 30.6482 22.7568 27.2763 21.4186ZM19.8606 19.9995C18.2793 19.9995 16.7334 19.5305 15.4186 18.652C14.1038 17.7734 13.079 16.5247 12.4738 15.0638C11.8687 13.6028 11.7103 11.9952 12.0189 10.4442C12.3274 8.89329 13.0888 7.46865 14.207 6.35048C15.3252 5.2323 16.7498 4.47081 18.3008 4.16231C19.8517 3.85381 21.4594 4.01214 22.9203 4.61729C24.3813 5.22245 25.63 6.24723 26.5085 7.56207C27.3871 8.8769 27.856 10.4227 27.856 12.0041C27.856 14.1246 27.0136 16.1582 25.5142 17.6577C24.0148 19.1571 21.9811 19.9995 19.8606 19.9995Z" fill="#333333"/>
</svg>
