<svg width="300" height="41" viewBox="0 0 300 41" fill="none" xmlns="http://www.w3.org/2000/svg">
<path d="M0 6.66493V13.3301H0.990827H1.98165V7.65576V1.98144H7.65597H13.3303V0.990618V-0.000208855H6.66514H0V6.66493Z" fill="#657788"/>
<path d="M40.0356 33.3707V26.7056H39.0448H38.0539V32.3799V38.0542H32.3796H26.7053V39.045V40.0358H33.3704H40.0356V33.3707Z" fill="#657788"/>
<path d="M33.4619 20.0905C33.4619 27.5046 27.4408 33.5149 20.0134 33.5149C12.586 33.5149 6.56494 27.5046 6.56494 20.0905C6.56494 12.6763 12.586 6.66602 20.0134 6.66602C27.4408 6.66602 33.4619 12.6763 33.4619 20.0905Z" fill="#80D2C8"/>
<path fill-rule="evenodd" clip-rule="evenodd" d="M18.8601 6.71484C12.0835 7.28937 6.7395 12.88 6.56914 19.7521C6.56875 19.833 6.56854 19.9238 6.56854 20.0243C6.56892 20.2185 6.56942 20.3648 6.57032 20.4738C6.57304 20.5707 6.57679 20.6673 6.58155 20.7636C6.58289 20.7661 6.58438 20.7658 6.58603 20.7636C6.59477 20.7524 6.60725 20.7424 6.6135 20.7424C6.61974 20.7424 6.6622 20.7673 6.7084 20.7973C6.75461 20.8273 6.81455 20.856 6.83953 20.861C6.90696 20.8722 7.20417 20.9597 7.33654 21.0046C7.88225 21.1944 8.1832 21.3742 8.27936 21.5703C8.33555 21.6864 8.35428 21.7751 8.36677 21.9961C8.388 22.3508 8.39674 22.407 8.44919 22.4919C8.50539 22.5818 8.56408 22.6055 8.78511 22.628C8.98367 22.648 9.09605 22.6867 9.43197 22.854C9.82409 23.0488 9.92399 23.0801 10.1962 23.095C10.6183 23.1188 10.8593 23.1562 11.1877 23.2474C11.6735 23.3835 12.0019 23.5696 12.1256 23.7769C12.1393 23.7994 12.1431 23.8443 12.1431 23.9392C12.1418 24.0516 12.1356 24.0866 12.1018 24.1865C12.0244 24.4138 11.9108 24.6235 11.6136 25.0893C11.3501 25.5002 11.3126 25.6088 11.2077 26.237C11.1378 26.659 11.0779 26.8851 10.9667 27.1486C10.8144 27.5082 10.5933 27.7854 10.4585 27.7854C10.2599 27.7854 9.86779 28.0589 9.69422 28.3187C9.60805 28.4473 9.58682 28.4972 9.6043 28.5309C9.61305 28.5472 9.62428 28.5597 9.63053 28.5597C9.63552 28.5597 9.64052 28.5659 9.64052 28.5722C9.64052 28.5797 9.65301 28.5996 9.66924 28.6159C9.68423 28.6321 9.7117 28.6633 9.73043 28.687C9.74916 28.7095 9.77663 28.742 9.79037 28.7582C9.80411 28.7757 9.81285 28.7969 9.8091 28.8057C9.8066 28.8157 9.8091 28.8194 9.81535 28.8157C9.83158 28.8057 9.95396 28.9356 9.94647 28.9555C9.94397 28.9655 9.94896 28.968 9.96145 28.963C9.97769 28.9568 9.98018 28.9605 9.97394 28.9768C9.96895 28.9892 9.97019 28.9955 9.97769 28.9905C9.98518 28.9855 9.99892 28.9917 10.0102 29.0017C10.0201 29.013 10.0264 29.0217 10.0226 29.0217C10.0189 29.0217 10.0514 29.0592 10.0963 29.1054C10.1413 29.1528 10.175 29.1978 10.1712 29.2065C10.1675 29.2165 10.1712 29.219 10.1787 29.214C10.1862 29.209 10.2462 29.2627 10.3161 29.3352C10.3848 29.4063 10.446 29.47 10.4522 29.4775C10.4697 29.4938 10.5509 29.5749 10.5621 29.5862C10.5647 29.5888 10.5831 29.6064 10.6101 29.6325C10.6348 29.6563 10.6668 29.687 10.7007 29.7198C10.7732 29.7897 10.8269 29.8497 10.8219 29.8571C10.8169 29.8646 10.8194 29.8684 10.8293 29.8646C10.8381 29.8609 10.883 29.8946 10.9305 29.9396C10.9767 29.9845 11.0142 30.017 11.0142 30.0132C11.0142 30.0095 11.0229 30.0157 11.0341 30.0257C11.0441 30.037 11.0504 30.0507 11.0454 30.0582C11.0404 30.0657 11.0466 30.0669 11.0591 30.0619C11.0754 30.0557 11.0791 30.0582 11.0729 30.0744C11.0679 30.0869 11.0704 30.0919 11.0804 30.0894C11.1003 30.0819 11.2302 30.2043 11.2202 30.2205C11.2165 30.2268 11.2202 30.2293 11.2302 30.2268C11.2389 30.223 11.2602 30.2318 11.2777 30.2455L11.278 30.2458C11.2943 30.2596 11.3265 30.2868 11.3488 30.3055C11.3726 30.3242 11.4038 30.3517 11.42 30.3666C11.4363 30.3829 11.4537 30.3954 11.4575 30.3954C11.4612 30.3954 11.4775 30.4066 11.4924 30.4216C11.5074 30.4366 11.5399 30.4628 11.5636 30.4803C11.5874 30.499 11.6273 30.5327 11.651 30.554C11.6748 30.5764 11.6985 30.5952 11.7047 30.5952C11.7097 30.5952 11.731 30.6126 11.7534 30.6326C11.7747 30.6539 11.7971 30.6701 11.8021 30.6701C11.8071 30.6701 11.8259 30.6838 11.8433 30.7013C11.8608 30.7188 11.8808 30.7325 11.8883 30.7325C11.8945 30.7325 11.9008 30.7363 11.9008 30.7413C11.9008 30.7475 11.922 30.765 11.947 30.7825C11.972 30.8 12.0057 30.8262 12.0207 30.8412C12.0369 30.8574 12.0556 30.8699 12.0631 30.8699C12.0694 30.8699 12.0756 30.8761 12.0756 30.8836C12.0756 30.8899 12.0806 30.8936 12.0869 30.8899C12.0919 30.8861 12.1068 30.8936 12.1193 30.9074C12.1318 30.9211 12.1493 30.9323 12.1593 30.9323C12.1693 30.9323 12.173 30.9373 12.1693 30.9448C12.1655 30.9523 12.1705 30.9573 12.1805 30.9573C12.1918 30.9573 12.2005 30.9623 12.2005 30.9698C12.2005 30.976 12.2092 30.9823 12.2192 30.9823C12.2292 30.9823 12.2504 30.996 12.2679 31.0135C12.2854 31.031 12.3054 31.0447 12.3129 31.0447C12.3191 31.0447 12.3254 31.0497 12.3254 31.0572C12.3254 31.0635 12.3341 31.0697 12.3441 31.0697C12.3541 31.0697 12.3628 31.0734 12.3628 31.0784C12.3628 31.0847 12.3916 31.1047 12.4253 31.1259C12.4602 31.1459 12.4877 31.1671 12.4877 31.1721C12.4877 31.1771 12.4965 31.1821 12.5064 31.1821C12.5164 31.1821 12.5252 31.1871 12.5252 31.1921C12.5252 31.1983 12.5477 31.2133 12.5751 31.227C12.6026 31.2395 12.6251 31.2545 12.6251 31.2595C12.6251 31.2658 12.6313 31.2695 12.6376 31.2695C12.6451 31.2695 12.6613 31.2795 12.675 31.2907C12.6875 31.3032 12.72 31.3244 12.7462 31.3382C12.7724 31.3519 12.8024 31.3719 12.8124 31.3819C12.8224 31.3919 12.8549 31.4119 12.8836 31.4256C12.9135 31.4393 12.9373 31.4543 12.9373 31.4593C12.9373 31.4656 12.946 31.4693 12.956 31.4693C12.966 31.4693 12.9747 31.4743 12.9747 31.4818C12.9747 31.488 12.9835 31.4943 12.9947 31.4943C13.0047 31.4943 13.0097 31.4993 13.006 31.5068C13.0022 31.513 13.0072 31.5193 13.0184 31.5193C13.0284 31.5193 13.0597 31.533 13.0871 31.5505C13.1146 31.568 13.1421 31.5817 13.1496 31.5817C13.1558 31.5817 13.1621 31.5867 13.1621 31.5942C13.1621 31.6004 13.1708 31.6067 13.1808 31.6067C13.1908 31.6067 13.1995 31.6104 13.1995 31.6154C13.1995 31.6217 13.2245 31.6366 13.2557 31.6504C13.2869 31.6641 13.3119 31.6791 13.3119 31.6841C13.3119 31.6903 13.3206 31.6941 13.3306 31.6941C13.3406 31.6941 13.3494 31.6991 13.3494 31.7066C13.3494 31.7128 13.3581 31.7191 13.3681 31.7191C13.3781 31.7191 13.3868 31.7241 13.3868 31.7315C13.3868 31.7378 13.3956 31.744 13.4068 31.744C13.4293 31.744 13.503 31.7827 13.5092 31.7965C13.5117 31.8027 13.5217 31.8065 13.5317 31.8065C13.5417 31.8065 13.5492 31.8102 13.5492 31.8165C13.5492 31.8265 13.6403 31.8689 13.6616 31.8689C13.6691 31.8689 13.674 31.8739 13.674 31.8814C13.674 31.8876 13.6828 31.8939 13.6928 31.8939C13.7028 31.8939 13.7115 31.8989 13.7115 31.9064C13.7115 31.9126 13.7228 31.9189 13.7365 31.9189C13.7502 31.9189 13.7615 31.9239 13.7615 31.9314C13.7615 31.9376 13.7702 31.9438 13.7802 31.9438C13.7902 31.9438 13.7989 31.9488 13.7989 31.9563C13.7989 31.9626 13.8077 31.9688 13.8177 31.9688C13.8389 31.9688 13.965 32.0325 13.9713 32.0462C13.9738 32.0525 13.9862 32.0562 14 32.0562C14.0125 32.0562 14.0237 32.0625 14.0237 32.07C14.0237 32.0762 14.0287 32.08 14.0337 32.0762C14.0399 32.0725 14.0624 32.0812 14.0836 32.0949C14.1061 32.1074 14.1323 32.1187 14.1423 32.1187C14.1523 32.1187 14.1611 32.1237 14.1611 32.1312C14.1611 32.1374 14.1736 32.1436 14.1885 32.1436C14.2035 32.1436 14.211 32.1474 14.2073 32.1524C14.1985 32.1599 14.2622 32.1886 14.3209 32.2023C14.3359 32.2061 14.3484 32.2136 14.3484 32.2198C14.3484 32.2261 14.3596 32.2311 14.3734 32.2311C14.3871 32.2311 14.3983 32.2361 14.3983 32.2435C14.3983 32.2498 14.4096 32.256 14.4233 32.256C14.437 32.256 14.4483 32.261 14.4483 32.2685C14.4483 32.2748 14.457 32.281 14.467 32.281C14.477 32.281 14.5145 32.2947 14.5507 32.3122C14.5857 32.3297 14.6231 32.3434 14.6319 32.3434C14.6418 32.3434 14.6456 32.3484 14.6418 32.3559C14.6369 32.3634 14.6481 32.3684 14.6656 32.3684C14.6831 32.3684 14.698 32.3734 14.698 32.3809C14.698 32.3872 14.7068 32.3934 14.718 32.3934C14.7368 32.3934 14.8004 32.4184 14.8504 32.4446C14.8629 32.4508 14.8816 32.4558 14.8916 32.4558C14.9016 32.4558 14.9103 32.4608 14.9103 32.4683C14.9103 32.4746 14.9253 32.4808 14.9428 32.4808C14.9603 32.4808 14.9715 32.4858 14.9665 32.4933C14.9628 32.5008 14.9715 32.5058 14.9878 32.5058C15.004 32.5058 15.0327 32.5145 15.0527 32.5245C15.0714 32.5345 15.0989 32.5433 15.1114 32.5433C15.1251 32.5433 15.1351 32.5482 15.1351 32.5557C15.1351 32.562 15.1501 32.5682 15.1676 32.5682C15.1851 32.5682 15.1963 32.5732 15.1913 32.5807C15.1863 32.5882 15.1975 32.5932 15.215 32.5932C15.2325 32.5932 15.2475 32.5982 15.2475 32.6044C15.2475 32.6107 15.27 32.6182 15.2975 32.6232C15.3262 32.6269 15.3599 32.6369 15.3724 32.6432C15.3792 32.6469 15.3883 32.6513 15.3973 32.6556C15.4064 32.66 15.4155 32.6644 15.4223 32.6681C15.4361 32.6744 15.4585 32.6806 15.4723 32.6806C15.4873 32.6806 15.4948 32.6856 15.491 32.6931C15.486 32.7006 15.4998 32.7056 15.521 32.7056C15.5422 32.7056 15.5597 32.7106 15.5597 32.7168C15.5597 32.7231 15.5847 32.7318 15.6159 32.7356C15.6459 32.7406 15.6746 32.7493 15.6783 32.7568C15.6833 32.763 15.6996 32.768 15.717 32.768C15.7333 32.768 15.747 32.773 15.747 32.7805C15.747 32.7868 15.7645 32.793 15.7845 32.793C15.8057 32.793 15.8219 32.798 15.8219 32.8055C15.8219 32.8117 15.8394 32.818 15.8594 32.818C15.8806 32.818 15.8969 32.823 15.8969 32.8292C15.8969 32.8355 15.9256 32.8442 15.9593 32.8492C15.9943 32.8542 16.0217 32.8629 16.0217 32.8692C16.0217 32.8754 16.0392 32.8804 16.0592 32.8804C16.0804 32.8804 16.0967 32.8854 16.0967 32.8929C16.0967 32.8991 16.1166 32.9054 16.1416 32.9054C16.1678 32.9054 16.1828 32.9104 16.1778 32.9179C16.1728 32.9254 16.1866 32.9304 16.2116 32.9304C16.234 32.9316 16.2752 32.9391 16.3027 32.9491C16.3302 32.9591 16.3651 32.9678 16.3814 32.9678C16.3964 32.9678 16.4089 32.9728 16.4089 32.9803C16.4089 32.9866 16.4288 32.9928 16.4526 32.9928C16.4763 32.9928 16.4963 32.9978 16.4963 33.0053C16.4963 33.0115 16.5162 33.0178 16.5412 33.0178C16.565 33.0178 16.5824 33.0228 16.5787 33.029C16.5749 33.0353 16.6074 33.044 16.6524 33.049C16.6973 33.0527 16.736 33.0627 16.7398 33.069C16.7448 33.0752 16.766 33.0802 16.7897 33.0802C16.8135 33.0802 16.8359 33.0852 16.8397 33.0927C16.8434 33.099 16.8672 33.1052 16.8909 33.1052C16.9146 33.1052 16.9333 33.1102 16.9333 33.1177C16.9333 33.1239 16.9558 33.1302 16.9833 33.1302C17.0108 33.1302 17.0332 33.1352 17.0332 33.1414C17.0332 33.1477 17.0782 33.1564 17.1331 33.1614C17.1881 33.1664 17.233 33.1751 17.233 33.1814C17.233 33.1876 17.258 33.1926 17.2892 33.1926C17.3205 33.1926 17.3454 33.1976 17.3454 33.2051C17.3454 33.2113 17.3704 33.2176 17.4016 33.2176C17.4328 33.2176 17.4578 33.2226 17.4578 33.2301C17.4578 33.2363 17.4865 33.2426 17.5215 33.2426C17.5552 33.2426 17.5815 33.2476 17.5777 33.2538C17.574 33.26 17.6289 33.2688 17.7013 33.2738C17.7738 33.2788 17.8362 33.2875 17.8399 33.2938C17.8437 33.3 17.8737 33.305 17.9086 33.305C17.9423 33.305 17.9698 33.31 17.9698 33.3175C17.9698 33.325 18.0048 33.33 18.051 33.33C18.0972 33.33 18.1322 33.335 18.1322 33.3425C18.1322 33.35 18.1671 33.355 18.2133 33.355C18.2583 33.355 18.2945 33.3599 18.2945 33.3662C18.2945 33.3724 18.3819 33.3812 18.4881 33.3862C18.5942 33.3912 18.6854 33.3999 18.6891 33.4062C18.6929 33.4124 18.7515 33.4174 18.8202 33.4174C18.8939 33.4174 18.9439 33.4224 18.9439 33.4299C18.9439 33.4374 19.0113 33.4424 19.1224 33.4424C19.2411 33.4424 19.2935 33.4461 19.281 33.4549C19.2685 33.4623 19.5258 33.4673 20.0178 33.4673C20.5098 33.4673 20.7671 33.4623 20.7546 33.4549C20.7421 33.4461 20.7945 33.4424 20.9144 33.4424C21.0243 33.4424 21.0917 33.4374 21.0917 33.4299C21.0917 33.4224 21.1417 33.4174 21.2154 33.4174C21.2841 33.4174 21.3427 33.4124 21.3465 33.4062C21.3502 33.3999 21.4414 33.3912 21.5475 33.3862C21.6537 33.3812 21.7411 33.3724 21.7411 33.3662C21.7411 33.3599 21.7773 33.355 21.8223 33.355C21.8685 33.355 21.9034 33.35 21.9034 33.3425C21.9034 33.335 21.9384 33.33 21.9846 33.33C22.0308 33.33 22.0658 33.325 22.0658 33.3175C22.0658 33.31 22.0933 33.305 22.127 33.305C22.1619 33.305 22.1919 33.3 22.1957 33.2938C22.1994 33.2875 22.2618 33.2788 22.3343 33.2738C22.4067 33.2688 22.4616 33.26 22.4579 33.2538C22.4542 33.2476 22.4804 33.2426 22.5141 33.2426C22.5491 33.2426 22.5778 33.2363 22.5778 33.2301C22.5778 33.2226 22.6028 33.2176 22.634 33.2176C22.6652 33.2176 22.6902 33.2113 22.6902 33.2051C22.6902 33.1976 22.7151 33.1926 22.7464 33.1926C22.7776 33.1926 22.8026 33.1876 22.8026 33.1814C22.8026 33.1751 22.8475 33.1664 22.9025 33.1614C22.9574 33.1564 23.0024 33.1477 23.0024 33.1414C23.0024 33.1352 23.0286 33.1302 23.0598 33.1302C23.0935 33.1302 23.1135 33.1252 23.1085 33.1177C23.1035 33.1102 23.1185 33.1052 23.1447 33.1052C23.1685 33.1052 23.1922 33.099 23.1959 33.0927C23.1997 33.0852 23.2221 33.0802 23.2459 33.0802C23.2696 33.0802 23.2908 33.0752 23.2958 33.069C23.2996 33.0627 23.3383 33.0527 23.3832 33.049C23.4282 33.044 23.4607 33.0353 23.4569 33.029C23.4532 33.0228 23.4707 33.0178 23.4944 33.0178C23.5194 33.0178 23.5393 33.0115 23.5393 33.0053C23.5393 32.9978 23.5593 32.9928 23.583 32.9928C23.6068 32.9928 23.6268 32.9866 23.6268 32.9803C23.6268 32.9728 23.6392 32.9678 23.6555 32.9678C23.6705 32.9678 23.7054 32.9591 23.7329 32.9491C23.7604 32.9391 23.8016 32.9316 23.8241 32.9304C23.849 32.9304 23.8628 32.9254 23.8578 32.9179C23.8528 32.9104 23.8678 32.9054 23.894 32.9054C23.919 32.9054 23.9389 32.8991 23.9389 32.8929C23.9389 32.8854 23.9564 32.8804 23.9764 32.8804C23.9976 32.8804 24.0139 32.8754 24.0139 32.8692C24.0139 32.8604 24.0613 32.8479 24.1288 32.838C24.1325 32.8367 24.1412 32.833 24.1462 32.828C24.1512 32.8217 24.1687 32.818 24.185 32.818C24.2012 32.818 24.2137 32.8117 24.2137 32.8055C24.2137 32.798 24.2312 32.793 24.2511 32.793C24.2724 32.793 24.2886 32.7868 24.2886 32.7805C24.2886 32.773 24.3023 32.768 24.3186 32.768C24.3361 32.768 24.3523 32.763 24.3573 32.7568C24.361 32.7493 24.3897 32.7406 24.4197 32.7356C24.4509 32.7318 24.4759 32.7231 24.4759 32.7168C24.4759 32.7106 24.4934 32.7056 24.5146 32.7056C24.5359 32.7056 24.5496 32.7006 24.5446 32.6931C24.5396 32.6856 24.5533 32.6806 24.5746 32.6806C24.5958 32.6806 24.6133 32.6744 24.6133 32.6681C24.6133 32.6606 24.6245 32.6556 24.637 32.6556C24.6507 32.6556 24.6645 32.6506 24.6695 32.6444C24.6732 32.6369 24.7019 32.6282 24.7319 32.6232C24.7631 32.6194 24.7881 32.6107 24.7881 32.6044C24.7881 32.5982 24.8031 32.5932 24.8206 32.5932C24.8381 32.5932 24.8493 32.5882 24.8443 32.5807C24.8393 32.5732 24.8505 32.5682 24.868 32.5682C24.8855 32.5682 24.9005 32.562 24.9005 32.5557C24.9005 32.5482 24.9105 32.5433 24.9242 32.5433C24.9367 32.5433 24.9642 32.5345 24.9829 32.5245C25.0029 32.5145 25.0316 32.5058 25.0479 32.5058C25.0641 32.5058 25.0728 32.5008 25.0691 32.4933C25.0641 32.4858 25.0753 32.4808 25.0928 32.4808C25.1103 32.4808 25.1253 32.4746 25.1253 32.4683C25.1253 32.4608 25.134 32.4558 25.144 32.4558C25.154 32.4558 25.1727 32.4508 25.1852 32.4446C25.2352 32.4184 25.2989 32.3934 25.3176 32.3934C25.3288 32.3934 25.3376 32.3872 25.3376 32.3809C25.3376 32.3734 25.3513 32.3684 25.3675 32.3684C25.3838 32.3684 25.4 32.3634 25.4025 32.3584C25.4087 32.3434 25.5474 32.281 25.5748 32.281C25.5886 32.281 25.5998 32.2748 25.5998 32.2685C25.5998 32.261 25.611 32.256 25.626 32.256C25.6398 32.256 25.6473 32.251 25.6435 32.2435C25.6398 32.2361 25.6473 32.2311 25.661 32.2311C25.676 32.2311 25.6872 32.2261 25.6872 32.2198C25.6872 32.2136 25.6997 32.2061 25.7159 32.2023C25.7734 32.1886 25.8371 32.1599 25.8283 32.1524C25.8246 32.1474 25.8321 32.1436 25.8471 32.1436C25.862 32.1436 25.8745 32.1374 25.8745 32.1312C25.8745 32.1237 25.8833 32.1187 25.8933 32.1187C25.9033 32.1187 25.9295 32.1074 25.952 32.0949C25.9732 32.0812 25.9957 32.0725 26.0019 32.0762C26.0069 32.08 26.0119 32.0762 26.0119 32.07C26.0119 32.0625 26.0231 32.0562 26.0356 32.0562C26.0494 32.0562 26.0619 32.0525 26.0644 32.0462C26.0706 32.0325 26.1967 31.9688 26.2179 31.9688C26.2279 31.9688 26.2367 31.9626 26.2367 31.9563C26.2367 31.9488 26.2454 31.9438 26.2554 31.9438C26.2654 31.9438 26.2741 31.9376 26.2741 31.9314C26.2741 31.9239 26.2854 31.9189 26.2991 31.9189C26.3129 31.9189 26.3241 31.9126 26.3241 31.9064C26.3241 31.8989 26.3328 31.8939 26.3428 31.8939C26.3528 31.8939 26.3616 31.8889 26.3616 31.8827C26.3616 31.8764 26.3778 31.8677 26.399 31.8627C26.419 31.8577 26.439 31.8489 26.4427 31.8427C26.4477 31.8364 26.4615 31.8315 26.4752 31.8315C26.4889 31.8315 26.4964 31.8265 26.4927 31.819C26.4889 31.8127 26.4939 31.8065 26.5039 31.8065C26.5152 31.8065 26.5239 31.8015 26.5239 31.7965C26.5239 31.7915 26.5526 31.7765 26.5863 31.7628C26.6213 31.749 26.6488 31.734 26.6488 31.7291C26.6488 31.7241 26.66 31.7191 26.675 31.7191C26.6887 31.7191 26.6962 31.7128 26.6925 31.7066C26.6887 31.6991 26.6937 31.6941 26.7037 31.6941C26.715 31.6941 26.7237 31.6903 26.7237 31.6841C26.7237 31.6791 26.7487 31.6641 26.7799 31.6504C26.8111 31.6366 26.8361 31.6217 26.8361 31.6154C26.8361 31.6104 26.8448 31.6067 26.8548 31.6067C26.8648 31.6067 26.8736 31.6004 26.8736 31.5942C26.8736 31.5867 26.8848 31.5817 26.8985 31.5817C26.9123 31.5817 26.9235 31.5779 26.9235 31.5717C26.9235 31.5605 26.9947 31.5193 27.0159 31.5193C27.0234 31.5193 27.0384 31.508 27.0484 31.4943C27.0584 31.4805 27.0734 31.4693 27.0821 31.4693C27.0908 31.4693 27.0983 31.4643 27.0983 31.4581C27.0983 31.4481 27.1445 31.4281 27.1645 31.4306C27.1695 31.4318 27.1733 31.4256 27.1733 31.4194C27.1733 31.4119 27.1795 31.4069 27.187 31.4069C27.1957 31.4069 27.2107 31.3969 27.222 31.3844C27.2332 31.3732 27.2644 31.3519 27.2919 31.3382C27.3194 31.3244 27.3506 31.3032 27.3618 31.2907C27.3731 31.2795 27.388 31.2695 27.3968 31.2695C27.4043 31.2695 27.4105 31.2658 27.4105 31.2595C27.4105 31.2545 27.433 31.2395 27.4605 31.227C27.4879 31.2133 27.5104 31.1983 27.5104 31.1921C27.5104 31.1871 27.5167 31.1821 27.5229 31.1821C27.5304 31.1821 27.5479 31.1721 27.5616 31.1584C27.5754 31.1459 27.6078 31.1246 27.6328 31.1122C27.6578 31.0984 27.6878 31.0784 27.699 31.066C27.7102 31.0547 27.724 31.0447 27.7302 31.0447C27.7365 31.0447 27.7502 31.0335 27.7602 31.021C27.7689 31.0073 27.7814 30.9985 27.7877 31.0023C27.7926 31.006 27.7976 31.0023 27.7976 30.996C27.7976 30.9885 27.8064 30.9823 27.8164 30.9823C27.8264 30.9823 27.8351 30.976 27.8351 30.9698C27.8351 30.9623 27.8438 30.9573 27.8551 30.9573C27.8651 30.9573 27.8701 30.9511 27.8663 30.9448C27.8626 30.9373 27.8663 30.9323 27.8763 30.9323C27.8851 30.9323 27.905 30.9211 27.9188 30.9086C27.9338 30.8949 27.9487 30.8874 27.9525 30.8911C27.9562 30.8961 27.96 30.8924 27.96 30.8849C27.96 30.8761 27.9662 30.8699 27.9725 30.8699C27.98 30.8699 28.0024 30.8537 28.0249 30.8324C28.0462 30.8125 28.0686 30.795 28.0736 30.795C28.0786 30.795 28.0973 30.7812 28.1148 30.7638C28.1323 30.7463 28.1498 30.7325 28.1535 30.7325C28.1573 30.7325 28.1748 30.7188 28.1923 30.7013C28.2097 30.6838 28.2285 30.6701 28.2335 30.6701C28.2385 30.6701 28.2609 30.6526 28.2822 30.6326C28.3046 30.6114 28.3259 30.5952 28.3309 30.5952C28.3371 30.5952 28.3658 30.5727 28.3946 30.5452C28.4245 30.5177 28.4533 30.4953 28.457 30.4953C28.462 30.4953 28.4895 30.4728 28.5194 30.4453C28.5482 30.4178 28.5744 30.3954 28.5781 30.3954C28.5819 30.3954 28.5994 30.3829 28.6156 30.3666C28.6318 30.3517 28.663 30.3242 28.6868 30.3055C28.7092 30.2867 28.7417 30.2592 28.758 30.2455C28.7754 30.2318 28.7967 30.223 28.8054 30.2268C28.8154 30.2293 28.8191 30.2268 28.8154 30.2205C28.8067 30.2056 28.9315 30.0882 28.954 30.0907C28.9627 30.0919 28.9665 30.0844 28.9615 30.0732C28.9565 30.0594 28.9603 30.0557 28.9765 30.0619C28.989 30.0669 28.9952 30.0657 28.9902 30.0582C28.9815 30.0432 29.0152 30.0057 29.0264 30.017C29.0302 30.022 29.0339 30.0182 29.0339 30.0107C29.0339 30.002 29.0402 29.9958 29.0477 29.9958C29.0552 29.9958 29.0839 29.9708 29.1126 29.9396C29.1401 29.9083 29.17 29.8846 29.1788 29.8884C29.19 29.8921 29.1925 29.8884 29.1875 29.8746C29.1813 29.8596 29.185 29.8559 29.2 29.8621C29.215 29.8671 29.2175 29.8646 29.2125 29.8497C29.2063 29.8334 29.21 29.8309 29.2262 29.8372C29.24 29.8422 29.245 29.8409 29.2387 29.8322C29.2325 29.8222 29.3748 29.6736 29.4735 29.5887C29.4822 29.5812 29.4985 29.5624 29.5085 29.5487C29.5209 29.5287 29.5284 29.5262 29.5359 29.5375C29.5422 29.5474 29.5459 29.5425 29.5459 29.5237C29.5459 29.5075 29.5509 29.4975 29.5559 29.5012C29.5622 29.505 29.5746 29.4963 29.5846 29.4813C29.6184 29.4326 29.6671 29.3851 29.6758 29.3926C29.6795 29.3963 29.6833 29.3939 29.6833 29.3851C29.6833 29.3614 29.8169 29.2303 29.8319 29.239C29.8406 29.2452 29.8419 29.2403 29.8369 29.2265C29.8306 29.2103 29.8331 29.2065 29.8494 29.2128C29.8644 29.2178 29.8669 29.2153 29.8619 29.2003C29.8556 29.1853 29.8594 29.1816 29.8744 29.1878C29.8881 29.1928 29.8918 29.1903 29.8881 29.1791C29.8843 29.1691 29.8956 29.1503 29.9131 29.1366C29.9305 29.1229 29.9455 29.1054 29.9455 29.0966C29.9455 29.0891 29.9518 29.0867 29.958 29.0904C29.9655 29.0941 29.9705 29.0916 29.9705 29.0829C29.9705 29.0754 29.983 29.0579 29.998 29.0454C30.0117 29.0317 30.0205 29.0217 30.0155 29.0217C30.0105 29.0217 30.0155 29.013 30.0255 29.0017C30.0367 28.9917 30.0504 28.9855 30.0579 28.9905C30.0654 28.9955 30.0667 28.9892 30.0617 28.9768C30.0554 28.9593 30.0579 28.9568 30.0754 28.963C30.0891 28.968 30.0941 28.9668 30.0891 28.958C30.0841 28.9518 30.0954 28.9318 30.1129 28.9156C30.1303 28.8993 30.1453 28.8794 30.1453 28.8719C30.1453 28.8644 30.1516 28.8619 30.1578 28.8656C30.1653 28.8694 30.1703 28.8669 30.1703 28.8594C30.1703 28.8381 30.2053 28.8069 30.2203 28.8157C30.2265 28.8194 30.229 28.8157 30.2253 28.8057C30.2215 28.7957 30.2327 28.7732 30.2502 28.7557C30.2677 28.737 30.2827 28.7195 30.2827 28.7158C30.2827 28.712 30.2952 28.6958 30.3114 28.6796C30.3264 28.6633 30.3464 28.6383 30.3564 28.6246C30.3664 28.6096 30.3789 28.6009 30.3851 28.6046C30.3901 28.6084 30.3951 28.5984 30.3951 28.5821C30.3951 28.5597 30.3976 28.5572 30.4076 28.5722C30.4176 28.5884 30.4201 28.5871 30.4201 28.5672C30.4201 28.5547 30.4338 28.5309 30.4513 28.5147C30.4688 28.4985 30.4825 28.4797 30.4825 28.4723C30.4825 28.4648 30.4887 28.4623 30.495 28.466C30.5025 28.4698 30.5075 28.4623 30.5075 28.4473C30.5075 28.4323 30.5137 28.4248 30.52 28.4286C30.5275 28.4323 30.5325 28.4273 30.5325 28.4173C30.5325 28.4073 30.5462 28.3886 30.5637 28.3749C30.5812 28.3611 30.5949 28.3411 30.5949 28.3286C30.5949 28.3174 30.6011 28.3124 30.6074 28.3162C30.6149 28.3199 30.6199 28.3149 30.6199 28.3024C30.6199 28.2862 30.6236 28.2849 30.6374 28.2962C30.6523 28.3087 30.6536 28.3062 30.6486 28.2862C30.6448 28.2687 30.6486 28.2575 30.6623 28.2525C30.6736 28.2487 30.6823 28.2362 30.6823 28.2262C30.6823 28.2038 30.7135 28.1713 30.7248 28.1813C30.7285 28.1863 30.7323 28.1763 30.7323 28.1613C30.7323 28.1463 30.7372 28.1376 30.7447 28.1413C30.7522 28.1451 30.7572 28.1426 30.7572 28.1351C30.7572 28.1139 30.8022 28.0589 30.8122 28.0689C30.8159 28.0727 30.8197 28.0664 30.8197 28.0527C30.8197 28.0389 30.8309 28.0202 30.8446 28.0102C30.8584 28.0002 30.8696 27.9852 30.8696 27.9765C30.8696 27.9678 30.8759 27.9603 30.8834 27.9603C30.8896 27.9603 30.8933 27.9553 30.8896 27.9503C30.8859 27.944 30.8946 27.9315 30.9083 27.9228C30.9208 27.9128 30.9321 27.8941 30.9321 27.8816C30.9321 27.8691 30.9383 27.8629 30.9445 27.8666C30.952 27.8703 30.957 27.8654 30.957 27.8529C30.957 27.8366 30.9608 27.8354 30.9745 27.8466C30.9883 27.8579 30.9895 27.8554 30.9858 27.8304C30.982 27.8104 30.9895 27.7917 31.012 27.7692C31.0295 27.7517 31.0444 27.7305 31.0444 27.723C31.0444 27.7168 31.0507 27.7105 31.0569 27.7105C31.0644 27.7105 31.0694 27.7018 31.0694 27.6905C31.0694 27.6805 31.0744 27.6743 31.0807 27.678C31.0869 27.6818 31.0956 27.6718 31.0994 27.6543C31.1044 27.6368 31.1131 27.6231 31.1194 27.6231C31.1269 27.6231 31.1319 27.6144 31.1319 27.6031C31.1319 27.5931 31.1381 27.5881 31.1444 27.5919C31.1518 27.5956 31.1568 27.5881 31.1568 27.5744C31.1568 27.5594 31.1631 27.5482 31.1693 27.5482C31.1768 27.5482 31.1818 27.5394 31.1818 27.5282C31.1818 27.5182 31.1868 27.512 31.1931 27.5157C31.1993 27.5194 31.208 27.5095 31.2118 27.492C31.2168 27.4745 31.2255 27.4608 31.2318 27.4608C31.2393 27.4608 31.2443 27.4495 31.2443 27.4345C31.2443 27.4208 31.2505 27.4133 31.2567 27.417C31.2642 27.4208 31.2692 27.4121 31.2692 27.3958C31.2692 27.3733 31.2717 27.3708 31.2817 27.3858C31.2917 27.4008 31.2942 27.3996 31.2942 27.3783C31.2942 27.3633 31.3029 27.3446 31.3129 27.3359C31.3229 27.3271 31.3317 27.3121 31.3317 27.3022C31.3317 27.2909 31.3392 27.2859 31.3479 27.2897C31.3604 27.2947 31.3641 27.2872 31.3604 27.2634C31.3554 27.2372 31.3579 27.2335 31.3679 27.2485C31.3791 27.2634 31.3816 27.2622 31.3816 27.2385C31.3816 27.2235 31.3866 27.211 31.3929 27.211C31.3991 27.211 31.4078 27.1973 31.4116 27.1798C31.4166 27.1623 31.4253 27.1486 31.4316 27.1486C31.4391 27.1486 31.4441 27.1373 31.4441 27.1236C31.4441 27.1098 31.4503 27.0986 31.4565 27.0986C31.464 27.0986 31.469 27.0899 31.469 27.0786C31.469 27.0686 31.4753 27.0636 31.4815 27.0674C31.489 27.0711 31.494 27.0636 31.494 27.0487C31.494 27.0337 31.5003 27.0262 31.5065 27.0299C31.514 27.0337 31.519 27.0262 31.519 27.0112C31.519 26.9975 31.5277 26.9825 31.5377 26.9787C31.5477 26.9737 31.5564 26.96 31.5564 26.9475C31.5564 26.935 31.5627 26.9238 31.5689 26.9238C31.5764 26.9238 31.5814 26.9125 31.5814 26.8976C31.5814 26.8838 31.5877 26.8763 31.5939 26.8801C31.6014 26.8838 31.6064 26.8763 31.6064 26.8613C31.6064 26.8464 31.6126 26.8389 31.6189 26.8426C31.6264 26.8464 31.6314 26.8389 31.6314 26.8251C31.6314 26.8114 31.6401 26.7927 31.6501 26.7814C31.6601 26.7714 31.6688 26.7527 31.6688 26.7402C31.6688 26.7215 31.6713 26.7202 31.6813 26.7365C31.6913 26.7514 31.6938 26.7477 31.6938 26.7202C31.6938 26.7003 31.6988 26.6878 31.7063 26.6928C31.7138 26.6965 31.7188 26.689 31.7188 26.6753C31.7188 26.6603 31.725 26.6491 31.7313 26.6491C31.7388 26.6491 31.7438 26.6378 31.7438 26.6253C31.7438 26.6116 31.7525 26.5929 31.7625 26.5816C31.7725 26.5716 31.7812 26.5541 31.7812 26.5429C31.7812 26.5317 31.7875 26.5267 31.7937 26.5304C31.8012 26.5342 31.8062 26.5267 31.8062 26.5117C31.8062 26.4967 31.8124 26.4892 31.8187 26.493C31.8262 26.4967 31.8312 26.4892 31.8312 26.4755C31.8312 26.4605 31.8362 26.4492 31.8424 26.4492C31.8487 26.4492 31.8574 26.4293 31.8611 26.4055C31.8661 26.3818 31.8749 26.3618 31.8811 26.3618C31.8886 26.3618 31.8936 26.3531 31.8936 26.3431C31.8936 26.3331 31.8999 26.3244 31.9061 26.3244C31.9136 26.3244 31.9186 26.3131 31.9186 26.2981C31.9186 26.2844 31.9248 26.2769 31.9311 26.2807C31.9386 26.2844 31.9436 26.2794 31.9436 26.2682C31.9436 26.2569 31.9523 26.2395 31.9623 26.2295C31.9723 26.2182 31.981 26.1995 31.981 26.1858C31.981 26.1733 31.9873 26.162 31.9935 26.162C32.001 26.162 32.006 26.1508 32.006 26.1371C32.006 26.1233 32.0122 26.1121 32.0185 26.1121C32.026 26.1121 32.031 26.1008 32.031 26.0859C32.031 26.0721 32.0372 26.0646 32.0435 26.0684C32.051 26.0734 32.056 26.0621 32.056 26.0446C32.056 26.0272 32.0622 26.0122 32.0697 26.0122C32.0759 26.0122 32.0784 26.0072 32.0747 25.9997C32.0709 25.9922 32.0734 25.9872 32.0797 25.9872C32.0872 25.9872 32.0934 25.976 32.0934 25.9622C32.0934 25.9485 32.0997 25.9373 32.1059 25.9373C32.1134 25.9373 32.1184 25.9223 32.1184 25.9023C32.1184 25.8761 32.1209 25.8723 32.1309 25.8873C32.1396 25.901 32.1434 25.8948 32.1434 25.8623C32.1434 25.8299 32.1471 25.8236 32.1559 25.8373C32.1658 25.8523 32.1683 25.8486 32.1683 25.8224C32.1683 25.8036 32.1771 25.7812 32.1871 25.7699C32.1983 25.7599 32.2071 25.7474 32.2058 25.7437C32.2033 25.705 32.2083 25.6875 32.2183 25.6937C32.2258 25.6987 32.2308 25.6875 32.2308 25.6688C32.2308 25.65 32.2358 25.6388 32.2433 25.6438C32.2508 25.6488 32.2558 25.6375 32.2558 25.6188C32.2558 25.6001 32.2607 25.5888 32.2682 25.5938C32.2757 25.5976 32.2807 25.5876 32.2807 25.5701C32.2807 25.5539 32.2895 25.5314 32.2995 25.5202C32.3095 25.5102 32.3182 25.4902 32.3182 25.4765C32.3182 25.4615 32.3244 25.4502 32.3307 25.4502C32.3382 25.4502 32.3432 25.4352 32.3432 25.4178C32.3432 25.4003 32.3482 25.389 32.3557 25.394C32.3632 25.399 32.3681 25.3878 32.3681 25.3691C32.3681 25.3516 32.3731 25.3391 32.3794 25.3428C32.3856 25.3466 32.3931 25.3279 32.3981 25.3004C32.4019 25.2729 32.4118 25.2504 32.4181 25.2504C32.4256 25.2504 32.4306 25.2354 32.4306 25.218C32.4306 25.2005 32.4356 25.1892 32.4431 25.1942C32.4506 25.1992 32.4556 25.1855 32.4556 25.163C32.4556 25.1405 32.4606 25.1268 32.468 25.1318C32.4755 25.1368 32.4805 25.1231 32.4805 25.1006C32.4805 25.0793 32.4855 25.0644 32.4918 25.0681C32.498 25.0719 32.5055 25.0531 32.5105 25.0257C32.5143 24.9982 32.5242 24.9757 32.5305 24.9757C32.538 24.9757 32.543 24.9582 32.543 24.937C32.543 24.9158 32.548 24.902 32.5555 24.907C32.563 24.912 32.5679 24.8983 32.5679 24.8733C32.5679 24.8421 32.5717 24.8371 32.5804 24.8508C32.5845 24.8572 32.5874 24.8595 32.5895 24.8571C32.5901 24.8554 32.5908 24.8536 32.5915 24.8518C32.5925 24.847 32.5929 24.8393 32.5929 24.8283C32.5929 24.8071 32.5979 24.7884 32.6042 24.7884C32.6117 24.7884 32.6204 24.7634 32.6254 24.7322C32.6291 24.701 32.6379 24.6797 32.6441 24.6835C32.6504 24.6872 32.6554 24.6722 32.6554 24.6523C32.6554 24.631 32.6616 24.6136 32.6679 24.6136C32.6753 24.6136 32.6803 24.5961 32.6803 24.5748C32.6803 24.5536 32.6853 24.5399 32.6928 24.5449C32.7003 24.5499 32.7053 24.5374 32.7053 24.5149C32.7053 24.4949 32.7116 24.4762 32.7191 24.4737C32.7253 24.4712 32.7353 24.4462 32.739 24.4163C32.7428 24.3875 32.7503 24.3675 32.7565 24.3713C32.7628 24.375 32.7678 24.3576 32.7678 24.3326C32.7678 24.3051 32.7727 24.2901 32.7802 24.2951C32.7877 24.3001 32.7927 24.2851 32.7927 24.2589C32.7927 24.2339 32.799 24.2139 32.8052 24.2139C32.8127 24.2139 32.8177 24.1977 32.8177 24.1777C32.8177 24.1578 32.8239 24.139 32.8314 24.1365C32.8389 24.134 32.8477 24.1053 32.8514 24.0728C32.8552 24.0404 32.8639 24.0141 32.8689 24.0141C32.8751 24.0141 32.8801 23.9967 32.8801 23.9754C32.8801 23.9542 32.8851 23.9405 32.8926 23.9455C32.9001 23.9505 32.9051 23.9317 32.9051 23.8993C32.9051 23.8655 32.9089 23.8518 32.9164 23.8618C32.9226 23.873 32.9288 23.8518 32.9338 23.8056C32.9376 23.7656 32.9476 23.7319 32.9551 23.7294C32.9613 23.7269 32.9676 23.702 32.9676 23.6757C32.9676 23.6458 32.9726 23.6283 32.98 23.6333C32.9875 23.6383 32.9925 23.6195 32.9925 23.5871C32.9925 23.5484 32.9963 23.5384 33.005 23.5521C33.0066 23.5546 33.008 23.5562 33.0093 23.5569C33.0119 23.5469 33.0146 23.5369 33.0172 23.5269C33.0174 23.5215 33.0175 23.5153 33.0175 23.5084C33.0175 23.4697 33.0213 23.4522 33.0287 23.4622C33.0304 23.4651 33.0321 23.4655 33.0338 23.4634C33.0371 23.4509 33.0403 23.4383 33.0436 23.4257C33.045 23.4159 33.0463 23.4043 33.0475 23.391C33.0525 23.3423 33.0612 23.3023 33.0687 23.3023C33.0749 23.3023 33.0799 23.2799 33.0799 23.2524C33.0799 23.2249 33.0862 23.2024 33.0924 23.2024C33.0999 23.2024 33.1049 23.18 33.1049 23.1512C33.1049 23.1213 33.1099 23.1038 33.1174 23.1088C33.1185 23.1095 33.1195 23.1097 33.1205 23.1094C33.1236 23.0959 33.1267 23.0823 33.1298 23.0688C33.1298 23.0656 33.1299 23.0623 33.1299 23.0588C33.1299 23.0276 33.1349 23.0039 33.1411 23.0076C33.1419 23.0081 33.1428 23.0078 33.1437 23.0067C33.1482 22.9864 33.1527 22.966 33.1571 22.9457C33.1586 22.9337 33.1599 22.9205 33.1611 22.9065C33.1674 22.8366 33.1736 22.8053 33.1811 22.8166C33.1821 22.818 33.183 22.819 33.1838 22.8194C33.1866 22.806 33.1894 22.7926 33.1921 22.7792C33.1923 22.7732 33.1923 22.7665 33.1923 22.7591C33.1923 22.7067 33.1961 22.6892 33.2048 22.7029C33.2055 22.704 33.2062 22.705 33.2068 22.7057C33.2104 22.6879 33.2139 22.67 33.2173 22.6522C33.2173 22.6512 33.2173 22.6502 33.2173 22.6492C33.2173 22.6043 33.2223 22.5793 33.2298 22.5843C33.2299 22.5844 33.2301 22.5845 33.2302 22.5846C33.2343 22.5629 33.2383 22.5412 33.2423 22.5195C33.2425 22.4823 33.2473 22.4549 33.2534 22.4581C33.2615 22.4125 33.2694 22.3667 33.2771 22.3209C33.2788 22.2968 33.2798 22.2722 33.2798 22.2496C33.2798 22.2209 33.2847 22.2047 33.2922 22.2097C33.2933 22.2104 33.2943 22.2105 33.2952 22.21C33.2984 22.1899 33.3015 22.1699 33.3046 22.1498C33.3047 22.1462 33.3047 22.1424 33.3047 22.1385C33.3047 22.0868 33.308 22.0671 33.3157 22.0765C33.3206 22.0438 33.3253 22.0112 33.3299 21.9785C33.3308 21.9372 33.3343 21.9133 33.3394 21.9099C33.359 21.7653 33.3763 21.62 33.3913 21.474C33.3943 21.4319 33.3977 21.3981 33.4007 21.3789C33.4067 21.3164 33.4122 21.2538 33.4173 21.191C33.418 21.141 33.4201 21.1126 33.4241 21.1046C33.4491 20.7699 33.4619 20.4317 33.4619 20.0906C33.4619 17.6328 32.8002 15.3293 31.645 13.3479C31.6391 13.3543 31.6325 13.3615 31.6251 13.3696C31.5864 13.4133 31.5315 13.4595 31.4978 13.4758C31.4428 13.502 31.4216 13.5057 31.263 13.5045C31.0769 13.5045 31.037 13.4982 30.6711 13.4046C30.3514 13.3222 30.204 13.2984 30.0205 13.2984C29.8719 13.2984 29.8406 13.3022 29.7595 13.3297C29.6159 13.3784 29.5259 13.4645 29.4697 13.6081C29.4448 13.6731 29.441 13.703 29.441 13.8804C29.4398 14.0277 29.446 14.1101 29.4635 14.1926C29.4922 14.3362 29.5622 14.5834 29.5871 14.6309C29.6196 14.6946 29.7095 14.772 29.7832 14.7995C29.8706 14.8332 30.0629 14.8357 30.1828 14.8057C30.3651 14.7595 30.5886 14.6496 30.6898 14.5585C30.766 14.4885 30.8184 14.4698 30.9133 14.481C31.1868 14.5147 31.494 14.6846 31.7637 14.9543C31.9123 15.1029 31.9885 15.1978 32.0834 15.3527C32.1758 15.5063 32.1958 15.57 32.1908 15.7036C32.1871 15.8022 32.1821 15.826 32.1459 15.8959C32.0485 16.0832 31.9024 16.2218 31.4703 16.534C30.7535 17.0522 30.4625 17.3307 30.2315 17.7178C30.1166 17.9114 30.0579 17.9913 29.968 18.0775C29.8769 18.1649 29.8194 18.2024 29.7145 18.2461C29.6496 18.2723 29.6196 18.276 29.4897 18.276C29.2949 18.276 29.2088 18.2498 28.9465 18.1137C28.8516 18.0638 28.6093 17.8952 28.4795 17.789C28.4183 17.7391 28.0811 17.4544 28.0224 17.4044C28.0049 17.3894 27.9637 17.3545 27.9288 17.327C27.674 17.1259 27.398 16.8362 27.172 16.534C26.9472 16.2318 26.9135 16.1831 26.6238 15.7473C26.4302 15.4576 26.3141 15.2877 26.168 15.0854C26.1549 15.0676 26.1159 15.0103 26.0778 14.9543L26.0718 14.9456C25.912 14.7046 25.8158 14.6121 25.7272 14.6109C25.6435 14.6109 25.5211 14.7046 25.4987 14.7895C25.4737 14.8844 25.5249 15.1104 25.6373 15.3901C25.7497 15.6724 25.8246 15.8334 26.0968 16.3717C26.2229 16.6227 26.3316 16.8325 26.3366 16.84C26.3416 16.8462 26.384 16.9249 26.4302 17.0148C26.452 17.0566 26.4769 17.1038 26.4997 17.147C26.5252 17.1953 26.5482 17.2388 26.5614 17.2645C26.7037 17.5305 26.8711 17.859 26.9173 17.9639C27.0384 18.2386 27.0933 18.2998 27.3381 18.4371C27.5416 18.5508 27.94 18.6557 28.3409 18.7006C28.6293 18.7331 28.7742 18.7731 28.9553 18.8717C29.2337 19.0241 29.3711 19.2326 29.3736 19.5061C29.3736 19.6172 29.3524 19.6922 29.2862 19.817C29.2437 19.8982 29.1076 20.1005 29.0626 20.1492C29.0502 20.1629 29.0127 20.2079 28.979 20.2491C28.9453 20.2903 28.7992 20.4439 28.6543 20.59C28.4358 20.811 28.3071 20.9347 27.9525 21.2606C27.9494 21.2632 27.9387 21.2729 27.9232 21.2871C27.901 21.3073 27.8689 21.3366 27.8351 21.3668C27.8013 21.3969 27.7692 21.4262 27.747 21.4464C27.7315 21.4606 27.7208 21.4703 27.7177 21.4729C27.7148 21.4758 27.6967 21.4924 27.6686 21.5181C27.6248 21.5582 27.5566 21.6206 27.483 21.6889C27.1608 21.9849 27.0809 22.0798 27.0409 22.2159C27.0172 22.2971 27.0134 22.6867 27.0359 22.8565C27.0434 22.9127 27.0546 23.0039 27.0609 23.0588C27.0734 23.1637 27.1171 23.4709 27.1358 23.5896C27.2157 24.0878 27.2482 24.3363 27.2482 24.4612C27.2482 24.6123 27.2295 24.6623 27.1133 24.8159C27.0172 24.942 26.9385 25.0219 26.6862 25.2542C26.4078 25.5089 26.1031 25.8136 26.0519 25.8898C25.9732 26.0047 25.9507 26.0646 25.937 26.1945C25.9195 26.3493 25.8745 26.5267 25.8246 26.6428C25.8183 26.6565 25.7959 26.7102 25.7746 26.7614C25.7347 26.8539 25.6011 27.1261 25.5536 27.211C25.3151 27.6306 24.8318 28.3424 24.5321 28.7158C24.2262 29.0954 24.0276 29.2465 23.7129 29.3377C23.4457 29.4151 23.3358 29.4263 22.8525 29.4276H22.4342L22.3605 29.3901C22.2081 29.3127 22.1107 29.1428 22.0408 28.8332C22.0033 28.6646 21.9946 28.6246 21.9796 28.5472C21.9772 28.5361 21.974 28.5213 21.9703 28.5038C21.9525 28.421 21.922 28.279 21.9034 28.1975C21.9005 28.1864 21.8954 28.1655 21.8892 28.1405C21.8822 28.1123 21.8739 28.0788 21.866 28.0477C21.8385 27.939 21.7873 27.728 21.7411 27.5294C21.6325 27.0686 21.5475 26.7777 21.4414 26.5129C21.3378 26.2507 21.2354 26.0771 21.0855 25.906C20.9032 25.6987 20.8545 25.5951 20.7895 25.2816C20.7696 25.1817 20.7696 24.6585 20.7895 24.4949L20.7909 24.4846C20.806 24.3694 20.8106 24.3343 20.8482 24.0953C20.8539 24.0591 20.858 24.0332 20.8624 24.0073C20.8743 23.9367 20.8883 23.8664 20.9431 23.5896C21.0106 23.2474 21.0281 23.1213 21.0293 22.9639C21.0293 22.7741 20.9906 22.5194 20.9282 22.2908C20.882 22.1285 20.7583 21.7676 20.7096 21.6565C20.6984 21.6315 20.6846 21.599 20.6797 21.5853C20.6697 21.5603 20.4923 21.1345 20.4586 21.0546C20.3837 20.8785 20.285 20.7012 20.2139 20.6175C20.0752 20.4527 19.868 20.3215 19.6607 20.2691C19.3547 20.1904 19.0263 20.2016 18.4943 20.3065C18.4631 20.3128 18.3819 20.3228 18.3132 20.3303C18.2227 20.3383 18.1354 20.348 17.9098 20.373C17.8553 20.379 17.7927 20.3859 17.7201 20.394C16.9533 20.4789 16.2665 20.5113 15.8944 20.4814C15.5235 20.4514 15.4598 20.4264 15.1351 20.1892C14.7542 19.9094 14.6006 19.6497 14.5057 19.1252C14.4658 18.9054 14.4545 18.7219 14.4545 18.301C14.4545 17.8377 14.472 17.5842 14.5245 17.277C14.5732 16.9936 14.6731 16.6227 14.7642 16.3779C14.7715 16.3601 14.7836 16.3264 14.7962 16.291C14.8031 16.2719 14.8101 16.2522 14.8167 16.2343C14.8227 16.2179 14.8287 16.2012 14.8343 16.1857C14.8461 16.1528 14.8561 16.125 14.8604 16.1157C14.8716 16.0894 15.0327 15.6636 15.0727 15.5537C15.1139 15.4438 15.1813 15.2453 15.2275 15.1029C15.4086 14.5397 15.6721 14.225 16.259 13.8716C16.3102 13.8404 16.4875 13.7405 16.6524 13.6493C16.8172 13.5582 16.9758 13.467 17.0045 13.447C17.0332 13.4283 17.0595 13.4121 17.0645 13.4121C17.0782 13.4121 17.2081 13.3259 17.4516 13.1561C17.7238 12.9663 17.8549 12.8938 18.0348 12.8339C18.3669 12.7228 18.6529 12.7103 19.1249 12.7864C19.2123 12.8002 19.577 12.8701 19.6494 12.8876C19.7006 12.8988 19.788 12.9151 19.9254 12.9375C19.9666 12.945 20.124 12.9588 20.2751 12.9688C20.4262 12.9788 20.5822 12.995 20.621 13.005C20.7408 13.0362 20.8645 13.1099 20.9619 13.206C21.0743 13.3159 21.123 13.3921 21.2778 13.6968C21.4889 14.1089 21.545 14.1588 21.866 14.2175C22.1632 14.2725 22.2593 14.265 22.5291 14.1713L22.7214 14.1051L22.89 14.1064C22.9911 14.1076 23.1322 14.1189 23.2459 14.1351C23.7304 14.2075 23.904 14.2238 24.1725 14.2238C24.7881 14.2238 25.2589 14.0564 25.6697 13.6906C25.9008 13.4845 26.143 13.1773 26.2342 12.975C26.3029 12.8227 26.3179 12.7565 26.3166 12.5941C26.3154 12.463 26.3116 12.433 26.2816 12.3519C26.1955 12.1233 26.0856 11.976 25.666 11.5389C25.3438 11.203 25.2839 11.1393 25.2064 11.0457C25.0891 10.9045 25.0691 10.8833 24.9629 10.7759C24.8306 10.6423 24.7731 10.6098 24.6632 10.6086C24.5558 10.6086 24.5234 10.6261 24.3361 10.7859C24.0701 11.0132 23.9602 11.0756 23.7192 11.1381C23.643 11.1581 23.337 11.1556 23.2271 11.1331C22.9899 11.0856 22.8238 11.0307 22.5403 10.9058C22.1757 10.7435 22.082 10.706 21.841 10.6273C21.5238 10.5237 21.4202 10.5024 21.2241 10.5024C20.9019 10.5024 20.7733 10.5911 20.4386 11.0394C20.054 11.5564 19.858 11.7425 19.5283 11.9086C19.1162 12.1159 18.6267 12.232 18.0373 12.2632C17.6876 12.2819 17.2593 12.257 17.0457 12.207C17.0333 12.2035 17.0103 12.1981 16.9868 12.1925C16.9771 12.1903 16.9674 12.188 16.9583 12.1858C16.8584 12.1621 16.7161 12.1121 16.6436 12.0734C16.3564 11.921 16.3227 11.5989 16.5462 11.1393C16.6224 10.982 16.7323 10.8284 16.8771 10.6798C17.1032 10.445 17.3167 10.3276 17.5153 10.3276C17.5765 10.3276 17.7151 10.3039 17.7912 10.2802C17.8899 10.2489 17.9923 10.1815 18.0959 10.0779C18.1871 9.98795 18.2121 9.95299 18.2608 9.85309C18.3519 9.66452 18.3707 9.58085 18.3782 9.34109C18.3832 9.16376 18.3794 9.11506 18.3557 8.99143C18.2933 8.66675 18.3182 8.36829 18.4456 7.92373C18.4465 7.92067 18.4477 7.91664 18.4491 7.91181C18.4576 7.88316 18.4743 7.82623 18.4893 7.77388C18.5567 7.53911 18.6804 7.18321 18.8127 6.8373C18.8302 6.79255 18.8468 6.74942 18.8601 6.71484Z" fill="#0069CA"/>
<path d="M60.0382 29.0487V21.0518C60.0382 20.0381 59.7941 19.2731 59.3061 18.7569C58.818 18.2406 58.1797 17.9825 57.3913 17.9825C56.7249 17.9825 56.1335 18.1655 55.6173 18.5316C55.1105 18.8977 54.7116 19.4514 54.4206 20.1929C54.1296 20.9251 53.9841 21.8402 53.9841 22.9384H52.8859C52.8859 21.1644 53.1065 19.6908 53.5477 18.5175C53.9888 17.3349 54.613 16.4526 55.4202 15.8706C56.2274 15.2887 57.1754 14.9977 58.2642 14.9977C59.3905 14.9977 60.3291 15.2512 61.08 15.758C61.8403 16.2555 62.4082 16.9594 62.7836 17.8699C63.1684 18.7803 63.3609 19.841 63.3609 21.0518V29.0487H60.0382ZM50.6614 29.0487V9.73212H53.9841V29.0487H50.6614Z" fill="#657788"/>
<path d="M76.9064 29.0487L76.484 25.7261V20.2352C76.484 19.2778 76.2869 18.5691 75.8927 18.1092C75.5078 17.6493 74.8508 17.4193 73.9216 17.4193C73.3866 17.4193 72.922 17.4991 72.5277 17.6587C72.1335 17.8183 71.8285 18.0482 71.6126 18.3486C71.4061 18.6395 71.3028 18.9962 71.3028 19.4186H67.6704C67.6704 18.3861 67.9191 17.5461 68.4166 16.8984C68.9141 16.2414 69.6274 15.7627 70.5566 15.4623C71.4953 15.1526 72.6169 14.9977 73.9216 14.9977C75.1042 14.9977 76.1367 15.1901 77.019 15.575C77.9013 15.9504 78.5865 16.5324 79.0746 17.3208C79.5626 18.1092 79.8067 19.1182 79.8067 20.3478V29.0487H76.9064ZM72.4292 29.443C71.2559 29.443 70.2751 29.2412 69.4866 28.8376C68.7076 28.4246 68.1209 27.8849 67.7267 27.2185C67.3325 26.552 67.1354 25.8293 67.1354 25.0503C67.1354 24.1867 67.3607 23.464 67.8112 22.8821C68.2711 22.2907 68.9188 21.8496 69.7541 21.5586C70.5895 21.2583 71.575 21.1081 72.7108 21.1081C73.4523 21.1081 74.1515 21.1644 74.8086 21.277C75.475 21.3897 76.1367 21.5399 76.7937 21.7276V23.6705C76.2775 23.5016 75.7143 23.3701 75.1042 23.2763C74.4941 23.1824 73.9216 23.1355 73.3866 23.1355C72.5981 23.1355 71.9505 23.281 71.4436 23.5719C70.9368 23.8629 70.6834 24.3557 70.6834 25.0503C70.6834 25.5571 70.8899 25.9936 71.3028 26.3596C71.7158 26.7257 72.3729 26.9087 73.2739 26.9087C73.9591 26.9087 74.5411 26.7585 75.0197 26.4582C75.4984 26.1578 75.8598 25.7824 76.1038 25.3318C76.3573 24.8813 76.484 24.4308 76.484 23.9802H77.2724C77.2724 24.9658 77.0894 25.8762 76.7233 26.7116C76.3573 27.5376 75.8129 28.1993 75.0901 28.6968C74.3768 29.1942 73.4898 29.443 72.4292 29.443Z" fill="#657788"/>
<path d="M89.8581 29.443C88.713 29.443 87.6477 29.1473 86.6621 28.556C85.686 27.9553 84.8929 27.1152 84.2828 26.0358C83.682 24.947 83.3817 23.6705 83.3817 22.2063C83.3817 20.6576 83.682 19.3482 84.2828 18.2782C84.8929 17.1988 85.686 16.3822 86.6621 15.8284C87.6477 15.2746 88.713 14.9977 89.8581 14.9977C90.7498 14.9977 91.5335 15.1432 92.2093 15.4342C92.8945 15.7158 93.4765 16.1006 93.9552 16.5887C94.4338 17.0674 94.8093 17.6024 95.0815 18.1937C95.3537 18.785 95.5273 19.381 95.6024 19.9818L92.2516 20.0662C92.1014 19.4655 91.8198 18.9681 91.4068 18.5738C91.0032 18.1796 90.4776 17.9825 89.8299 17.9825C89.2949 17.9825 88.7928 18.1327 88.3235 18.4331C87.8542 18.724 87.4693 19.1792 87.169 19.7987C86.878 20.4182 86.7325 21.2207 86.7325 22.2063C86.7325 23.1449 86.8686 23.9286 87.1408 24.5575C87.4224 25.177 87.7979 25.6463 88.2672 25.9654C88.7365 26.2752 89.2574 26.43 89.8299 26.43C90.6747 26.43 91.2895 26.2282 91.6743 25.8246C92.0592 25.4116 92.2516 24.8625 92.2516 24.1774H95.6024C95.6024 25.1441 95.3818 26.0264 94.9407 26.8242C94.4995 27.6221 93.8519 28.2603 92.9978 28.739C92.1436 29.2083 91.0971 29.443 89.8581 29.443Z" fill="#657788"/>
<path d="M99.5811 29.0487V9.73212H102.904V29.0487H99.5811ZM102.453 20.5731L108.31 15.3919H112.816L102.453 24.0084V20.5731ZM109.099 29.0487L102.988 20.3478L106.142 19.5875L113.153 29.0487H109.099Z" fill="#657788"/>
<path d="M123.594 10.5769H126.805V22.15H129.986V24.9939H126.805V29.0487H123.51V24.9939H114.246V22.4879L123.594 10.5769ZM123.679 15.5046L118.188 22.4879H123.679V15.5046Z" fill="#657788"/>
<path d="M134.935 12.8859C134.287 12.8859 133.78 12.7169 133.414 12.379C133.057 12.0317 132.879 11.553 132.879 10.9429C132.879 10.3516 133.057 9.88229 133.414 9.53501C133.78 9.17834 134.287 9 134.935 9C135.573 9 136.075 9.17834 136.441 9.53501C136.807 9.88229 136.99 10.3516 136.99 10.9429C136.99 11.553 136.807 12.0317 136.441 12.379C136.075 12.7169 135.573 12.8859 134.935 12.8859ZM133.273 29.0487V15.3356H136.596V29.0487H133.273Z" fill="#657788"/>
<path d="M160.788 29.0487V21.0518C160.788 20.0381 160.543 19.2731 160.055 18.7569C159.567 18.2406 158.929 17.9825 158.141 17.9825C157.146 17.9825 156.362 18.3861 155.789 19.1933C155.217 20.0005 154.931 21.2207 154.931 22.8539H153.551C153.551 21.4178 153.682 20.2023 153.945 19.2074C154.217 18.2031 154.597 17.3959 155.085 16.7858C155.583 16.1663 156.165 15.7158 156.831 15.4342C157.498 15.1432 158.234 14.9977 159.042 14.9977C160.159 14.9977 161.093 15.2512 161.843 15.758C162.604 16.2555 163.176 16.9594 163.561 17.8699C163.946 18.7803 164.138 19.841 164.138 21.0518V29.0487H160.788ZM142.231 29.0487V15.3919H145.131L145.498 17.7291C145.948 16.8186 146.544 16.1381 147.286 15.6876C148.027 15.2277 148.877 14.9977 149.834 14.9977C150.96 14.9977 151.899 15.2512 152.65 15.758C153.41 16.2555 153.978 16.9594 154.353 17.8699C154.738 18.7803 154.931 19.841 154.931 21.0518V29.0487H151.608V21.0518C151.608 20.0381 151.364 19.2731 150.876 18.7569C150.388 18.2406 149.749 17.9825 148.961 17.9825C148.295 17.9825 147.703 18.1655 147.187 18.5316C146.68 18.8977 146.281 19.4514 145.99 20.1929C145.699 20.9251 145.554 21.8402 145.554 22.9384V29.0487H142.231Z" fill="#657788"/>
<path d="M175.802 29.443C174.798 29.443 173.944 29.2271 173.24 28.7953C172.536 28.3636 171.996 27.7112 171.621 26.8383C171.255 25.956 171.071 24.8532 171.071 23.5297H172.282C172.282 24.1398 172.423 24.6607 172.705 25.0925C172.986 25.5243 173.357 25.8575 173.817 26.0921C174.286 26.3174 174.788 26.43 175.323 26.43C175.877 26.43 176.422 26.2798 176.957 25.9795C177.501 25.6697 177.952 25.2051 178.308 24.5857C178.665 23.9568 178.843 23.1637 178.843 22.2063C178.843 21.3334 178.693 20.5825 178.393 19.9536C178.092 19.3153 177.679 18.8273 177.154 18.4894C176.637 18.1515 176.046 17.9825 175.38 17.9825C174.817 17.9825 174.3 18.1092 173.831 18.3627C173.362 18.6161 172.986 18.9868 172.705 19.4749C172.423 19.9536 172.282 20.5355 172.282 21.2207H171.071C171.071 19.7846 171.292 18.6114 171.733 17.7009C172.174 16.7811 172.766 16.1006 173.507 15.6595C174.249 15.2183 175.061 14.9977 175.943 14.9977C177.022 14.9977 178.036 15.284 178.984 15.8566C179.941 16.4291 180.716 17.2551 181.307 18.3345C181.898 19.4045 182.194 20.6951 182.194 22.2063C182.194 23.7268 181.894 25.0268 181.293 26.1062C180.692 27.1856 179.904 28.0116 178.928 28.5841C177.961 29.1567 176.919 29.443 175.802 29.443ZM168.96 35.7223V15.3919H171.691L172.282 18.771V35.7223H168.96Z" fill="#657788"/>
<path d="M194.847 29.0487L194.425 25.7261V20.2352C194.425 19.2778 194.228 18.5691 193.833 18.1092C193.449 17.6493 192.791 17.4193 191.862 17.4193C191.327 17.4193 190.863 17.4991 190.468 17.6587C190.074 17.8183 189.769 18.0482 189.553 18.3486C189.347 18.6395 189.244 18.9962 189.244 19.4186H185.611C185.611 18.3861 185.86 17.5461 186.357 16.8984C186.855 16.2414 187.568 15.7627 188.497 15.4623C189.436 15.1526 190.558 14.9977 191.862 14.9977C193.045 14.9977 194.077 15.1901 194.96 15.575C195.842 15.9504 196.527 16.5324 197.015 17.3208C197.503 18.1092 197.747 19.1182 197.747 20.3478V29.0487H194.847ZM190.37 29.443C189.197 29.443 188.216 29.2412 187.427 28.8376C186.648 28.4246 186.062 27.8849 185.667 27.2185C185.273 26.552 185.076 25.8293 185.076 25.0503C185.076 24.1867 185.301 23.464 185.752 22.8821C186.212 22.2907 186.859 21.8496 187.695 21.5586C188.53 21.2583 189.516 21.1081 190.651 21.1081C191.393 21.1081 192.092 21.1644 192.749 21.277C193.416 21.3897 194.077 21.5399 194.734 21.7276V23.6705C194.218 23.5016 193.655 23.3701 193.045 23.2763C192.435 23.1824 191.862 23.1355 191.327 23.1355C190.539 23.1355 189.891 23.281 189.384 23.5719C188.877 23.8629 188.624 24.3557 188.624 25.0503C188.624 25.5571 188.831 25.9936 189.244 26.3596C189.657 26.7257 190.314 26.9087 191.215 26.9087C191.9 26.9087 192.482 26.7585 192.96 26.4582C193.439 26.1578 193.8 25.7824 194.045 25.3318C194.298 24.8813 194.425 24.4308 194.425 23.9802H195.213C195.213 24.9658 195.03 25.8762 194.664 26.7116C194.298 27.5376 193.754 28.1993 193.031 28.6968C192.317 29.1942 191.43 29.443 190.37 29.443Z" fill="#657788"/>
<path d="M207.799 29.443C206.654 29.443 205.588 29.1473 204.603 28.556C203.627 27.9553 202.834 27.1152 202.223 26.0358C201.623 24.947 201.322 23.6705 201.322 22.2063C201.322 20.6576 201.623 19.3482 202.223 18.2782C202.834 17.1988 203.627 16.3822 204.603 15.8284C205.588 15.2746 206.654 14.9977 207.799 14.9977C208.69 14.9977 209.474 15.1432 210.15 15.4342C210.835 15.7158 211.417 16.1006 211.896 16.5887C212.375 17.0674 212.75 17.6024 213.022 18.1937C213.294 18.785 213.468 19.381 213.543 19.9818L210.192 20.0662C210.042 19.4655 209.76 18.9681 209.347 18.5738C208.944 18.1796 208.418 17.9825 207.771 17.9825C207.236 17.9825 206.733 18.1327 206.264 18.4331C205.795 18.724 205.41 19.1792 205.11 19.7987C204.819 20.4182 204.673 21.2207 204.673 22.2063C204.673 23.1449 204.809 23.9286 205.081 24.5575C205.363 25.177 205.739 25.6463 206.208 25.9654C206.677 26.2752 207.198 26.43 207.771 26.43C208.615 26.43 209.23 26.2282 209.615 25.8246C210 25.4116 210.192 24.8625 210.192 24.1774H213.543C213.543 25.1441 213.323 26.0264 212.881 26.8242C212.44 27.6221 211.793 28.2603 210.938 28.739C210.084 29.2083 209.038 29.443 207.799 29.443Z" fill="#657788"/>
<path d="M222.14 29.443C221.333 29.443 220.591 29.2928 219.915 28.9924C219.249 28.6921 218.714 28.2322 218.31 27.6127C217.916 26.9932 217.719 26.2048 217.719 25.2474V11.7595H221.042V25.1347C221.042 26.2611 221.577 26.8242 222.647 26.8242C222.975 26.8242 223.304 26.7867 223.632 26.7116C223.961 26.6365 224.336 26.5239 224.758 26.3737L225.237 28.7109C224.712 28.9173 224.2 29.091 223.703 29.2318C223.205 29.3726 222.684 29.443 222.14 29.443ZM215.804 17.5883V15.3919H224.758V17.5883H215.804Z" fill="#657788"/>
<path d="M227.308 22.0092V19.1088H235.22V22.0092H227.308Z" fill="#657788"/>
<path d="M238.854 10.774H242.177V22.15C242.177 23.6517 242.557 24.7358 243.317 25.4022C244.087 26.0687 245.068 26.4019 246.26 26.4019C247.461 26.4019 248.442 26.0687 249.202 25.4022C249.962 24.7358 250.343 23.6517 250.343 22.15V10.774H253.665V22.15C253.665 23.6893 253.37 25.0033 252.778 26.0921C252.187 27.1809 251.337 28.0116 250.23 28.5841C249.132 29.1567 247.808 29.443 246.26 29.443C244.711 29.443 243.383 29.1567 242.275 28.5841C241.177 28.0116 240.332 27.1809 239.741 26.0921C239.15 25.0033 238.854 23.6893 238.854 22.15V10.774Z" fill="#657788"/>
<path d="M258.577 10.774H263.336L268.489 21.9528H268.207L273.36 10.774H277.95V29.0487H274.599V14.6035H275.106L269.418 27.0495H267.25L261.59 14.6598H261.9V29.0487H258.577V10.774Z" fill="#657788"/>
<path d="M283.188 10.774H289.101C290.96 10.774 292.588 11.1494 293.987 11.9003C295.385 12.6418 296.474 13.6978 297.253 15.0681C298.032 16.4385 298.422 18.0576 298.422 19.9254C298.422 21.7745 298.032 23.3842 297.253 24.7546C296.474 26.1156 295.385 27.1715 293.987 27.9224C292.588 28.6733 290.96 29.0487 289.101 29.0487H283.188V10.774ZM286.511 13.7869V26.064H289.101C290.284 26.064 291.302 25.7965 292.156 25.2614C293.02 24.7264 293.682 23.999 294.142 23.0792C294.611 22.15 294.846 21.0987 294.846 19.9254C294.846 18.7334 294.611 17.6775 294.142 16.7576C293.682 15.8378 293.02 15.1151 292.156 14.5894C291.302 14.0544 290.284 13.7869 289.101 13.7869H286.511Z" fill="#657788"/>
</svg>
