<svg width="70" height="70" viewBox="0 0 70 70" fill="none" xmlns="http://www.w3.org/2000/svg">
<circle cx="35" cy="35" r="35" fill="#0069CA"/>
<path d="M35.0984 52.4C33.3818 52.4 31.7234 52.1666 30.1234 51.7C28.5234 51.2333 27.0901 50.5416 25.8234 49.625C24.5568 48.7083 23.5484 47.575 22.7984 46.225C22.0651 44.8583 21.6984 43.2833 21.6984 41.5H27.8984C27.9651 42.6333 28.3068 43.6166 28.9234 44.45C29.5401 45.2666 30.3734 45.9 31.4234 46.35C32.4901 46.7833 33.7151 47 35.0984 47C37.1318 47 38.7234 46.5333 39.8734 45.6C41.0234 44.6666 41.5984 43.4833 41.5984 42.05C41.5984 41.1166 41.3651 40.3166 40.8984 39.65C40.4318 38.9666 39.7151 38.45 38.7484 38.1C37.7818 37.7333 36.5484 37.55 35.0484 37.55H30.7484V32.9H34.3984C36.2984 32.9 37.7901 32.4916 38.8734 31.6749C39.9568 30.8583 40.4984 29.75 40.4984 28.35C40.4984 27.0999 40.0318 26.0583 39.0984 25.225C38.1651 24.375 36.7651 23.95 34.8984 23.95C33.3818 23.95 32.0234 24.2583 30.8234 24.8749C29.6401 25.4916 28.8818 26.5666 28.5484 28.0999H22.3484C22.5818 25.8833 23.2484 24.075 24.3484 22.675C25.4651 21.275 26.9068 20.25 28.6734 19.6C30.4401 18.9333 32.4318 18.5999 34.6484 18.5999C36.9984 18.5999 39.0901 18.9833 40.9234 19.7499C42.7568 20.5166 44.1984 21.5833 45.2484 22.9499C46.3151 24.3 46.8484 25.8666 46.8484 27.6499C46.8484 29.2999 46.3984 30.7416 45.4984 31.975C44.5984 33.1916 43.2651 34.1 41.4984 34.7C43.4651 35.3666 45.0401 36.3583 46.2234 37.6749C47.4068 38.9916 47.9984 40.6333 47.9984 42.6C47.9984 44.5166 47.4568 46.2166 46.3734 47.7C45.3068 49.1666 43.8068 50.3166 41.8734 51.15C39.9401 51.9833 37.6818 52.4 35.0984 52.4Z" fill="white"/>
</svg>
