<svg width="20" height="21" viewBox="0 0 40 41" fill="none" xmlns="http://www.w3.org/2000/svg">
<path d="M26.3211 40.0809H26.0674C17.4034 40.0809 13.2275 36.666 12.5055 29.0167C12.4274 28.2167 13.0128 27.4947 13.8324 27.4166C14.6129 27.3386 15.3545 27.9435 15.4325 28.7435C15.9984 34.8708 18.8864 37.1539 26.0869 37.1539H26.3406C34.2826 37.1539 37.0926 34.3439 37.0926 26.4019V13.679C37.0926 5.73699 34.2826 2.92704 26.3406 2.92704H26.0869C18.8474 2.92704 15.9594 5.24915 15.4325 11.4935C15.3349 12.2936 14.652 12.8985 13.8324 12.8204C13.0128 12.7619 12.4274 12.0399 12.486 11.2398C13.1494 3.47342 17.3448 0 26.0674 0H26.3211C35.9023 0 40.0001 4.09785 40.0001 13.679V26.4019C40.0001 35.9831 35.9023 40.0809 26.3211 40.0809Z" fill="black"/>
<path d="M25.8501 21.5039H3.64369C2.84364 21.5039 2.18018 20.8405 2.18018 20.0404C2.18018 19.2404 2.84364 18.5769 3.64369 18.5769H25.8501C26.6501 18.5769 27.3136 19.2404 27.3136 20.0404C27.3136 20.8405 26.6501 21.5039 25.8501 21.5039Z" fill="black"/>
<path d="M7.99569 28.0412C7.62493 28.0412 7.25417 27.9046 6.96147 27.6119L0.42442 21.0748C-0.141473 20.509 -0.141473 19.5723 0.42442 19.0064L6.96147 12.4693C7.52736 11.9034 8.46401 11.9034 9.02991 12.4693C9.5958 13.0352 9.5958 13.9719 9.02991 14.5378L3.52708 20.0406L9.02991 25.5435C9.5958 26.1093 9.5958 27.046 9.02991 27.6119C8.75672 27.9046 8.36644 28.0412 7.99569 28.0412Z" fill="black"/>
</svg>
