<svg width="100" height="100" viewBox="0 0 100 100" fill="none" xmlns="http://www.w3.org/2000/svg">
<circle cx="50" cy="50" r="50" fill="#0069CA"/>
<path d="M50.0982 67.7C48.3816 67.7 46.7232 67.4667 45.1232 67C43.5232 66.5333 42.0899 65.8417 40.8232 64.925C39.5566 64.0083 38.5482 62.875 37.7982 61.525C37.0649 60.1583 36.6982 58.5833 36.6982 56.8H42.8982C42.9649 57.9333 43.3066 58.9167 43.9232 59.75C44.5399 60.5667 45.3732 61.2 46.4232 61.65C47.4899 62.0833 48.7149 62.3 50.0982 62.3C52.1316 62.3 53.7232 61.8333 54.8732 60.9C56.0232 59.9667 56.5982 58.7833 56.5982 57.35C56.5982 56.4167 56.3649 55.6167 55.8982 54.95C55.4316 54.2667 54.7149 53.75 53.7482 53.4C52.7816 53.0333 51.5482 52.85 50.0482 52.85H45.7482V48.2H49.3982C51.2982 48.2 52.7899 47.7917 53.8732 46.975C54.9566 46.1583 55.4982 45.05 55.4982 43.65C55.4982 42.4 55.0316 41.3583 54.0982 40.525C53.1649 39.675 51.7649 39.25 49.8982 39.25C48.3816 39.25 47.0232 39.5583 45.8232 40.175C44.6399 40.7917 43.8816 41.8667 43.5482 43.4H37.3482C37.5816 41.1833 38.2482 39.375 39.3482 37.975C40.4649 36.575 41.9066 35.55 43.6732 34.9C45.4399 34.2333 47.4316 33.9 49.6482 33.9C51.9982 33.9 54.0899 34.2833 55.9232 35.05C57.7566 35.8167 59.1982 36.8833 60.2482 38.25C61.3149 39.6 61.8482 41.1667 61.8482 42.95C61.8482 44.6 61.3982 46.0417 60.4982 47.275C59.5982 48.4917 58.2649 49.4 56.4982 50C58.4649 50.6667 60.0399 51.6583 61.2232 52.975C62.4066 54.2917 62.9982 55.9333 62.9982 57.9C62.9982 59.8167 62.4566 61.5167 61.3732 63C60.3066 64.4667 58.8066 65.6167 56.8732 66.45C54.9399 67.2833 52.6816 67.7 50.0982 67.7Z" fill="white"/>
</svg>
