<svg width="220" height="59" viewBox="0 0 220 59" fill="none" xmlns="http://www.w3.org/2000/svg">
<path d="M2 2H190.972C205.899 2 218 14.1008 218 29.0278C218 43.9548 205.899 56.0556 190.972 56.0556H2V2Z" stroke="#657788" stroke-width="4"/>
<path d="M29.6606 37V21.424H32.4926V37H29.6606ZM36.9251 27.904L34.9571 26.8C35.4851 26.544 35.9531 26.244 36.3611 25.9C36.7691 25.556 37.0451 25.16 37.1891 24.712C36.7171 24.64 36.3251 24.464 36.0131 24.184C35.7091 23.896 35.5571 23.528 35.5571 23.08C35.5571 22.576 35.7451 22.164 36.1211 21.844C36.5051 21.516 36.9731 21.352 37.5251 21.352C37.9971 21.352 38.3971 21.472 38.7251 21.712C39.0611 21.952 39.3171 22.268 39.4931 22.66C39.6691 23.052 39.7571 23.48 39.7571 23.944C39.7571 24.736 39.4931 25.484 38.9651 26.188C38.4451 26.884 37.7651 27.456 36.9251 27.904ZM58.3447 37V30.184C58.3447 29.32 58.1367 28.668 57.7207 28.228C57.3047 27.788 56.7607 27.568 56.0887 27.568C55.2407 27.568 54.5727 27.912 54.0847 28.6C53.5967 29.288 53.3527 30.328 53.3527 31.72H52.1767C52.1767 30.496 52.2887 29.46 52.5127 28.612C52.7447 27.756 53.0687 27.068 53.4847 26.548C53.9087 26.02 54.4047 25.636 54.9727 25.396C55.5407 25.148 56.1687 25.024 56.8567 25.024C57.8087 25.024 58.6047 25.24 59.2447 25.672C59.8927 26.096 60.3807 26.696 60.7087 27.472C61.0367 28.248 61.2007 29.152 61.2007 30.184V37H58.3447ZM42.5287 37V25.36H45.0007L45.3127 27.352C45.6967 26.576 46.2047 25.996 46.8367 25.612C47.4687 25.22 48.1927 25.024 49.0087 25.024C49.9687 25.024 50.7687 25.24 51.4087 25.672C52.0567 26.096 52.5407 26.696 52.8607 27.472C53.1887 28.248 53.3527 29.152 53.3527 30.184V37H50.5207V30.184C50.5207 29.32 50.3127 28.668 49.8967 28.228C49.4807 27.788 48.9367 27.568 48.2647 27.568C47.6967 27.568 47.1927 27.724 46.7527 28.036C46.3207 28.348 45.9807 28.82 45.7327 29.452C45.4847 30.076 45.3607 30.856 45.3607 31.792V37H42.5287ZM77.8363 37L77.4763 34.168V29.488C77.4763 28.672 77.3083 28.068 76.9723 27.676C76.6443 27.284 76.0843 27.088 75.2923 27.088C74.8363 27.088 74.4403 27.156 74.1043 27.292C73.7683 27.428 73.5083 27.624 73.3243 27.88C73.1483 28.128 73.0603 28.432 73.0603 28.792H69.9643C69.9643 27.912 70.1763 27.196 70.6003 26.644C71.0243 26.084 71.6323 25.676 72.4243 25.42C73.2243 25.156 74.1803 25.024 75.2923 25.024C76.3003 25.024 77.1803 25.188 77.9323 25.516C78.6843 25.836 79.2683 26.332 79.6843 27.004C80.1003 27.676 80.3083 28.536 80.3083 29.584V37H77.8363ZM74.0203 37.336C73.0203 37.336 72.1843 37.164 71.5123 36.82C70.8483 36.468 70.3483 36.008 70.0123 35.44C69.6763 34.872 69.5083 34.256 69.5083 33.592C69.5083 32.856 69.7003 32.24 70.0843 31.744C70.4763 31.24 71.0283 30.864 71.7403 30.616C72.4523 30.36 73.2923 30.232 74.2603 30.232C74.8923 30.232 75.4883 30.28 76.0483 30.376C76.6163 30.472 77.1803 30.6 77.7403 30.76V32.416C77.3003 32.272 76.8203 32.16 76.3003 32.08C75.7803 32 75.2923 31.96 74.8363 31.96C74.1643 31.96 73.6123 32.084 73.1803 32.332C72.7483 32.58 72.5323 33 72.5323 33.592C72.5323 34.024 72.7083 34.396 73.0603 34.708C73.4123 35.02 73.9723 35.176 74.7403 35.176C75.3243 35.176 75.8203 35.048 76.2283 34.792C76.6363 34.536 76.9443 34.216 77.1523 33.832C77.3683 33.448 77.4763 33.064 77.4763 32.68H78.1483C78.1483 33.52 77.9923 34.296 77.6803 35.008C77.3683 35.712 76.9043 36.276 76.2883 36.7C75.6803 37.124 74.9243 37.336 74.0203 37.336ZM89.5217 21.424H92.6177L99.6977 32.536H99.4817V21.424H102.314V37H99.4337L91.8977 25.216H92.3537V37H89.5217V21.424ZM110.877 37.336C109.813 37.336 108.849 37.108 107.985 36.652C107.129 36.196 106.449 35.516 105.945 34.612C105.441 33.7 105.189 32.56 105.189 31.192C105.189 29.8 105.441 28.648 105.945 27.736C106.449 26.824 107.129 26.144 107.985 25.696C108.849 25.248 109.813 25.024 110.877 25.024C111.925 25.024 112.873 25.248 113.721 25.696C114.577 26.144 115.257 26.824 115.761 27.736C116.265 28.648 116.517 29.8 116.517 31.192C116.517 32.56 116.265 33.7 115.761 34.612C115.257 35.516 114.577 36.196 113.721 36.652C112.873 37.108 111.925 37.336 110.877 37.336ZM110.781 34.864C111.341 34.864 111.837 34.728 112.269 34.456C112.709 34.176 113.053 33.764 113.301 33.22C113.557 32.676 113.685 32 113.685 31.192C113.685 29.96 113.441 29.032 112.953 28.408C112.473 27.784 111.813 27.472 110.973 27.472C110.405 27.472 109.901 27.612 109.461 27.892C109.021 28.164 108.673 28.576 108.417 29.128C108.169 29.68 108.045 30.368 108.045 31.192C108.045 32.408 108.289 33.324 108.777 33.94C109.273 34.556 109.941 34.864 110.781 34.864ZM127.399 37V30.184C127.399 29.32 127.191 28.668 126.775 28.228C126.359 27.788 125.815 27.568 125.143 27.568C124.575 27.568 124.071 27.724 123.631 28.036C123.199 28.348 122.859 28.82 122.611 29.452C122.363 30.076 122.239 30.856 122.239 31.792H121.303C121.303 30.28 121.491 29.024 121.867 28.024C122.243 27.016 122.775 26.264 123.463 25.768C124.151 25.272 124.959 25.024 125.887 25.024C126.847 25.024 127.647 25.24 128.287 25.672C128.935 26.096 129.419 26.696 129.739 27.472C130.067 28.248 130.231 29.152 130.231 30.184V37H127.399ZM119.407 37V25.36H121.879L122.239 27.664V37H119.407ZM139.712 37.336C138.856 37.336 138.128 37.152 137.528 36.784C136.928 36.416 136.468 35.86 136.148 35.116C135.836 34.364 135.68 33.424 135.68 32.296H136.712C136.712 32.816 136.832 33.26 137.072 33.628C137.312 33.996 137.628 34.28 138.02 34.48C138.42 34.672 138.848 34.768 139.304 34.768C139.776 34.768 140.24 34.64 140.696 34.384C141.16 34.12 141.544 33.724 141.848 33.196C142.152 32.66 142.304 31.984 142.304 31.168C142.304 30.424 142.176 29.784 141.92 29.248C141.664 28.704 141.312 28.288 140.864 28C140.424 27.712 139.92 27.568 139.352 27.568C138.872 27.568 138.432 27.676 138.032 27.892C137.632 28.108 137.312 28.424 137.072 28.84C136.832 29.248 136.712 29.744 136.712 30.328H135.68C135.68 29.104 135.868 28.104 136.244 27.328C136.62 26.544 137.124 25.964 137.756 25.588C138.388 25.212 139.08 25.024 139.832 25.024C140.752 25.024 141.616 25.268 142.424 25.756C143.24 26.244 143.9 26.948 144.404 27.868C144.908 28.78 145.16 29.88 145.16 31.168C145.16 32.464 144.904 33.572 144.392 34.492C143.88 35.412 143.208 36.116 142.376 36.604C141.552 37.092 140.664 37.336 139.712 37.336ZM133.88 42.688V25.36H136.208L136.712 28.24V42.688H133.88ZM148.048 37V25.312H150.88V37H148.048ZM150.184 31.888C150.184 30.36 150.356 29.096 150.7 28.096C151.044 27.096 151.504 26.356 152.08 25.876C152.664 25.388 153.312 25.144 154.024 25.144C154.216 25.144 154.396 25.156 154.564 25.18C154.74 25.204 154.912 25.24 155.08 25.288L155.032 28.12C154.824 28.072 154.6 28.032 154.36 28C154.12 27.968 153.904 27.952 153.712 27.952C153.088 27.952 152.564 28.104 152.14 28.408C151.724 28.704 151.408 29.144 151.192 29.728C150.984 30.312 150.88 31.032 150.88 31.888H150.184ZM161.574 37.336C160.51 37.336 159.546 37.108 158.682 36.652C157.826 36.196 157.146 35.516 156.642 34.612C156.138 33.7 155.886 32.56 155.886 31.192C155.886 29.8 156.138 28.648 156.642 27.736C157.146 26.824 157.826 26.144 158.682 25.696C159.546 25.248 160.51 25.024 161.574 25.024C162.622 25.024 163.57 25.248 164.418 25.696C165.274 26.144 165.954 26.824 166.458 27.736C166.962 28.648 167.214 29.8 167.214 31.192C167.214 32.56 166.962 33.7 166.458 34.612C165.954 35.516 165.274 36.196 164.418 36.652C163.57 37.108 162.622 37.336 161.574 37.336ZM161.478 34.864C162.038 34.864 162.534 34.728 162.966 34.456C163.406 34.176 163.75 33.764 163.998 33.22C164.254 32.676 164.382 32 164.382 31.192C164.382 29.96 164.138 29.032 163.65 28.408C163.17 27.784 162.51 27.472 161.67 27.472C161.102 27.472 160.598 27.612 160.158 27.892C159.718 28.164 159.37 28.576 159.114 29.128C158.866 29.68 158.742 30.368 158.742 31.192C158.742 32.408 158.986 33.324 159.474 33.94C159.97 34.556 160.638 34.864 161.478 34.864ZM170.776 37V23.944C170.776 23.104 170.94 22.42 171.268 21.892C171.596 21.364 172.028 20.976 172.564 20.728C173.108 20.472 173.696 20.344 174.328 20.344C174.72 20.344 175.124 20.372 175.54 20.428C175.956 20.484 176.36 20.552 176.752 20.632L176.2 22.816C176 22.744 175.792 22.688 175.576 22.648C175.36 22.6 175.152 22.576 174.952 22.576C174.728 22.576 174.516 22.62 174.316 22.708C174.116 22.788 173.952 22.932 173.824 23.14C173.696 23.348 173.632 23.632 173.632 23.992V37H170.776ZM169.048 27.232V25.36H175.768V27.232H169.048ZM180.58 23.224C180.028 23.224 179.596 23.08 179.284 22.792C178.98 22.496 178.828 22.088 178.828 21.568C178.828 21.064 178.98 20.664 179.284 20.368C179.596 20.064 180.028 19.912 180.58 19.912C181.124 19.912 181.552 20.064 181.864 20.368C182.176 20.664 182.332 21.064 182.332 21.568C182.332 22.088 182.176 22.496 181.864 22.792C181.552 23.08 181.124 23.224 180.58 23.224ZM179.164 37V25.312H181.996V37H179.164ZM190.271 37.336C189.583 37.336 188.951 37.208 188.375 36.952C187.807 36.696 187.351 36.304 187.007 35.776C186.671 35.248 186.503 34.576 186.503 33.76V22.264H189.335V33.664C189.335 34.624 189.791 35.104 190.703 35.104C190.983 35.104 191.263 35.072 191.543 35.008C191.823 34.944 192.143 34.848 192.503 34.72L192.911 36.712C192.463 36.888 192.027 37.036 191.603 37.156C191.179 37.276 190.735 37.336 190.271 37.336ZM184.871 27.232V25.36H192.503V27.232H184.871Z" fill="#657788"/>
</svg>
