<svg width="220" height="59" viewBox="0 0 220 59" fill="none" xmlns="http://www.w3.org/2000/svg">
<path d="M0 29.0278C0 12.9962 12.9962 0 29.0278 0H220V58.0556H29.0278C12.9962 58.0556 0 45.0594 0 29.0278V29.0278Z" fill="#0069CA"/>
<path d="M38.362 37V21.424H41.194V37H38.362ZM45.6265 27.904L43.6585 26.8C44.1865 26.544 44.6545 26.244 45.0625 25.9C45.4705 25.556 45.7465 25.16 45.8905 24.712C45.4185 24.64 45.0265 24.464 44.7145 24.184C44.4105 23.896 44.2585 23.528 44.2585 23.08C44.2585 22.576 44.4465 22.164 44.8225 21.844C45.2065 21.516 45.6745 21.352 46.2265 21.352C46.6985 21.352 47.0985 21.472 47.4265 21.712C47.7625 21.952 48.0185 22.268 48.1945 22.66C48.3705 23.052 48.4585 23.48 48.4585 23.944C48.4585 24.736 48.1945 25.484 47.6665 26.188C47.1465 26.884 46.4665 27.456 45.6265 27.904ZM67.0461 37V30.184C67.0461 29.32 66.8381 28.668 66.4221 28.228C66.0061 27.788 65.4621 27.568 64.7901 27.568C63.9421 27.568 63.2741 27.912 62.7861 28.6C62.2981 29.288 62.0541 30.328 62.0541 31.72H60.8781C60.8781 30.496 60.9901 29.46 61.2141 28.612C61.4461 27.756 61.7701 27.068 62.1861 26.548C62.6101 26.02 63.1061 25.636 63.6741 25.396C64.2421 25.148 64.8701 25.024 65.5581 25.024C66.5101 25.024 67.3061 25.24 67.9461 25.672C68.5941 26.096 69.0821 26.696 69.4101 27.472C69.7381 28.248 69.9021 29.152 69.9021 30.184V37H67.0461ZM51.2301 37V25.36H53.7021L54.0141 27.352C54.3981 26.576 54.9061 25.996 55.5381 25.612C56.1701 25.22 56.8941 25.024 57.7101 25.024C58.6701 25.024 59.4701 25.24 60.1101 25.672C60.7581 26.096 61.2421 26.696 61.5621 27.472C61.8901 28.248 62.0541 29.152 62.0541 30.184V37H59.2221V30.184C59.2221 29.32 59.0141 28.668 58.5981 28.228C58.1821 27.788 57.6381 27.568 56.9661 27.568C56.3981 27.568 55.8941 27.724 55.4541 28.036C55.0221 28.348 54.6821 28.82 54.4341 29.452C54.1861 30.076 54.0621 30.856 54.0621 31.792V37H51.2301ZM86.5377 37L86.1777 34.168V29.488C86.1777 28.672 86.0097 28.068 85.6737 27.676C85.3457 27.284 84.7857 27.088 83.9937 27.088C83.5377 27.088 83.1417 27.156 82.8057 27.292C82.4697 27.428 82.2097 27.624 82.0257 27.88C81.8497 28.128 81.7617 28.432 81.7617 28.792H78.6657C78.6657 27.912 78.8777 27.196 79.3017 26.644C79.7257 26.084 80.3337 25.676 81.1257 25.42C81.9257 25.156 82.8817 25.024 83.9937 25.024C85.0017 25.024 85.8817 25.188 86.6337 25.516C87.3857 25.836 87.9697 26.332 88.3857 27.004C88.8017 27.676 89.0097 28.536 89.0097 29.584V37H86.5377ZM82.7217 37.336C81.7217 37.336 80.8857 37.164 80.2137 36.82C79.5497 36.468 79.0497 36.008 78.7137 35.44C78.3777 34.872 78.2097 34.256 78.2097 33.592C78.2097 32.856 78.4017 32.24 78.7857 31.744C79.1777 31.24 79.7297 30.864 80.4417 30.616C81.1537 30.36 81.9937 30.232 82.9617 30.232C83.5937 30.232 84.1897 30.28 84.7497 30.376C85.3177 30.472 85.8817 30.6 86.4417 30.76V32.416C86.0017 32.272 85.5217 32.16 85.0017 32.08C84.4817 32 83.9937 31.96 83.5377 31.96C82.8657 31.96 82.3137 32.084 81.8817 32.332C81.4497 32.58 81.2337 33 81.2337 33.592C81.2337 34.024 81.4097 34.396 81.7617 34.708C82.1137 35.02 82.6737 35.176 83.4417 35.176C84.0257 35.176 84.5217 35.048 84.9297 34.792C85.3377 34.536 85.6457 34.216 85.8537 33.832C86.0697 33.448 86.1777 33.064 86.1777 32.68H86.8497C86.8497 33.52 86.6937 34.296 86.3817 35.008C86.0697 35.712 85.6057 36.276 84.9897 36.7C84.3817 37.124 83.6257 37.336 82.7217 37.336ZM103.695 37.336C102.615 37.336 101.619 37.148 100.707 36.772C99.8031 36.396 99.0671 35.824 98.4991 35.056C97.9391 34.288 97.6391 33.312 97.5991 32.128H100.383C100.383 32.728 100.531 33.22 100.827 33.604C101.123 33.988 101.519 34.276 102.015 34.468C102.519 34.652 103.071 34.744 103.671 34.744C104.247 34.744 104.759 34.668 105.207 34.516C105.663 34.364 106.019 34.148 106.275 33.868C106.539 33.58 106.671 33.24 106.671 32.848C106.671 32.328 106.511 31.92 106.191 31.624C105.879 31.328 105.375 31.056 104.679 30.808L101.607 29.584C100.407 29.112 99.4871 28.564 98.8471 27.94C98.2071 27.316 97.8871 26.456 97.8871 25.36C97.8871 24.096 98.3871 23.072 99.3871 22.288C100.387 21.504 101.783 21.112 103.575 21.112C105.319 21.112 106.667 21.52 107.619 22.336C108.571 23.144 109.111 24.272 109.239 25.72H106.455C106.351 25.104 106.071 24.612 105.615 24.244C105.159 23.868 104.479 23.68 103.575 23.68C102.775 23.68 102.143 23.848 101.679 24.184C101.215 24.512 100.983 24.928 100.983 25.432C100.983 25.864 101.127 26.208 101.415 26.464C101.711 26.712 102.167 26.952 102.783 27.184L106.191 28.504C107.343 28.952 108.227 29.516 108.843 30.196C109.459 30.876 109.767 31.728 109.767 32.752C109.767 33.688 109.531 34.5 109.059 35.188C108.587 35.868 107.899 36.396 106.995 36.772C106.091 37.148 104.991 37.336 103.695 37.336ZM117.032 37.336C116.344 37.336 115.712 37.208 115.136 36.952C114.568 36.696 114.112 36.304 113.768 35.776C113.432 35.248 113.264 34.576 113.264 33.76V22.264H116.096V33.664C116.096 34.624 116.552 35.104 117.464 35.104C117.744 35.104 118.024 35.072 118.304 35.008C118.584 34.944 118.904 34.848 119.264 34.72L119.672 36.712C119.224 36.888 118.788 37.036 118.364 37.156C117.94 37.276 117.496 37.336 117.032 37.336ZM111.632 27.232V25.36H119.264V27.232H111.632ZM129.837 25.312H132.669V37H129.837V25.312ZM121.845 25.312H124.677V32.464C124.677 33.224 124.865 33.796 125.241 34.18C125.617 34.556 126.133 34.744 126.789 34.744C127.349 34.744 127.857 34.6 128.313 34.312C128.777 34.016 129.145 33.584 129.417 33.016C129.697 32.44 129.837 31.728 129.837 30.88H130.605C130.605 32.304 130.421 33.484 130.053 34.42C129.685 35.356 129.177 36.056 128.529 36.52C127.881 36.984 127.133 37.216 126.285 37.216C125.453 37.216 124.701 37.068 124.029 36.772C123.357 36.476 122.825 36 122.433 35.344C122.041 34.688 121.845 33.824 121.845 32.752V25.312ZM140.947 37.336C139.971 37.336 139.079 37.08 138.271 36.568C137.471 36.048 136.831 35.324 136.351 34.396C135.879 33.46 135.643 32.368 135.643 31.12C135.643 29.888 135.871 28.816 136.327 27.904C136.791 26.984 137.407 26.276 138.175 25.78C138.951 25.276 139.811 25.024 140.755 25.024C141.619 25.024 142.367 25.232 142.999 25.648C143.631 26.056 144.115 26.664 144.451 27.472C144.787 28.28 144.955 29.272 144.955 30.448H144.067C144.067 29.84 143.943 29.324 143.695 28.9C143.447 28.468 143.119 28.14 142.711 27.916C142.311 27.684 141.875 27.568 141.403 27.568C140.835 27.568 140.331 27.716 139.891 28.012C139.459 28.308 139.119 28.724 138.871 29.26C138.623 29.788 138.499 30.408 138.499 31.12C138.499 31.856 138.623 32.496 138.871 33.04C139.119 33.584 139.459 34.008 139.891 34.312C140.331 34.616 140.827 34.768 141.379 34.768C141.827 34.768 142.255 34.648 142.663 34.408C143.079 34.16 143.415 33.816 143.671 33.376C143.935 32.936 144.067 32.424 144.067 31.84H144.955C144.955 33.064 144.771 34.084 144.403 34.9C144.043 35.708 143.559 36.316 142.951 36.724C142.343 37.132 141.675 37.336 140.947 37.336ZM144.595 37L144.067 34.12V20.536H146.923V37H144.595ZM155.258 37.336C154.266 37.336 153.358 37.08 152.534 36.568C151.71 36.056 151.05 35.34 150.554 34.42C150.058 33.492 149.81 32.408 149.81 31.168C149.81 29.888 150.054 28.788 150.542 27.868C151.038 26.948 151.698 26.244 152.522 25.756C153.346 25.268 154.258 25.024 155.258 25.024C156.186 25.024 156.986 25.212 157.658 25.588C158.338 25.956 158.882 26.46 159.29 27.1C159.706 27.732 159.986 28.448 160.13 29.248C160.274 30.048 160.282 30.872 160.154 31.72H152.066V30.184H158.15L157.598 30.544C157.622 30.168 157.602 29.788 157.538 29.404C157.482 29.02 157.37 28.668 157.202 28.348C157.034 28.028 156.794 27.772 156.482 27.58C156.178 27.38 155.786 27.28 155.306 27.28C154.73 27.28 154.242 27.424 153.842 27.712C153.442 28 153.138 28.392 152.93 28.888C152.722 29.384 152.618 29.944 152.618 30.568V31.696C152.618 32.352 152.714 32.932 152.906 33.436C153.106 33.94 153.398 34.336 153.782 34.624C154.174 34.912 154.666 35.056 155.258 35.056C155.81 35.056 156.274 34.928 156.65 34.672C157.026 34.416 157.266 34.032 157.37 33.52H160.226C160.106 34.272 159.822 34.936 159.374 35.512C158.934 36.08 158.362 36.528 157.658 36.856C156.954 37.176 156.154 37.336 155.258 37.336ZM171.152 37V30.184C171.152 29.32 170.944 28.668 170.528 28.228C170.112 27.788 169.568 27.568 168.896 27.568C168.328 27.568 167.824 27.724 167.384 28.036C166.952 28.348 166.612 28.82 166.364 29.452C166.116 30.076 165.992 30.856 165.992 31.792H165.056C165.056 30.28 165.244 29.024 165.62 28.024C165.996 27.016 166.528 26.264 167.216 25.768C167.904 25.272 168.712 25.024 169.64 25.024C170.6 25.024 171.4 25.24 172.04 25.672C172.688 26.096 173.172 26.696 173.492 27.472C173.82 28.248 173.984 29.152 173.984 30.184V37H171.152ZM163.16 37V25.36H165.632L165.992 27.664V37H163.16ZM181.569 37.336C180.881 37.336 180.249 37.208 179.673 36.952C179.105 36.696 178.649 36.304 178.305 35.776C177.969 35.248 177.801 34.576 177.801 33.76V22.264H180.633V33.664C180.633 34.624 181.089 35.104 182.001 35.104C182.281 35.104 182.561 35.072 182.841 35.008C183.121 34.944 183.441 34.848 183.801 34.72L184.209 36.712C183.761 36.888 183.325 37.036 182.901 37.156C182.477 37.276 182.033 37.336 181.569 37.336ZM176.169 27.232V25.36H183.801V27.232H176.169Z" fill="#C2E0FB"/>
</svg>
