<svg width="153" height="40" viewBox="0 0 153 40" fill="none" xmlns="http://www.w3.org/2000/svg">
<path d="M2.55566 19.9969C2.55566 10.0575 10.6132 2 20.5526 2H150.111V37.9938H20.5526C10.6131 37.9938 2.55566 29.9363 2.55566 19.9969Z" stroke="#657788" stroke-width="4"/>
<path d="M40.7405 28.336C39.6605 28.336 38.6645 28.148 37.7525 27.772C36.8485 27.396 36.1125 26.824 35.5445 26.056C34.9845 25.288 34.6845 24.312 34.6445 23.128H37.4285C37.4285 23.728 37.5765 24.22 37.8725 24.604C38.1685 24.988 38.5645 25.276 39.0605 25.468C39.5645 25.652 40.1165 25.744 40.7165 25.744C41.2925 25.744 41.8045 25.668 42.2525 25.516C42.7085 25.364 43.0645 25.148 43.3205 24.868C43.5845 24.58 43.7165 24.24 43.7165 23.848C43.7165 23.328 43.5565 22.92 43.2365 22.624C42.9245 22.328 42.4205 22.056 41.7245 21.808L38.6525 20.584C37.4525 20.112 36.5325 19.564 35.8925 18.94C35.2525 18.316 34.9325 17.456 34.9325 16.36C34.9325 15.096 35.4325 14.072 36.4325 13.288C37.4325 12.504 38.8285 12.112 40.6205 12.112C42.3645 12.112 43.7125 12.52 44.6645 13.336C45.6165 14.144 46.1565 15.272 46.2845 16.72H43.5005C43.3965 16.104 43.1165 15.612 42.6605 15.244C42.2045 14.868 41.5245 14.68 40.6205 14.68C39.8205 14.68 39.1885 14.848 38.7245 15.184C38.2605 15.512 38.0285 15.928 38.0285 16.432C38.0285 16.864 38.1725 17.208 38.4605 17.464C38.7565 17.712 39.2125 17.952 39.8285 18.184L43.2365 19.504C44.3885 19.952 45.2725 20.516 45.8885 21.196C46.5045 21.876 46.8125 22.728 46.8125 23.752C46.8125 24.688 46.5765 25.5 46.1045 26.188C45.6325 26.868 44.9445 27.396 44.0405 27.772C43.1365 28.148 42.0365 28.336 40.7405 28.336ZM54.0772 28.336C53.3892 28.336 52.7572 28.208 52.1812 27.952C51.6132 27.696 51.1572 27.304 50.8132 26.776C50.4772 26.248 50.3092 25.576 50.3092 24.76V13.264H53.1412V24.664C53.1412 25.624 53.5972 26.104 54.5092 26.104C54.7892 26.104 55.0692 26.072 55.3492 26.008C55.6292 25.944 55.9492 25.848 56.3092 25.72L56.7172 27.712C56.2692 27.888 55.8332 28.036 55.4092 28.156C54.9852 28.276 54.5412 28.336 54.0772 28.336ZM48.6772 18.232V16.36H56.3092V18.232H48.6772ZM66.882 16.312H69.714V28H66.882V16.312ZM58.89 16.312H61.722V23.464C61.722 24.224 61.91 24.796 62.286 25.18C62.662 25.556 63.178 25.744 63.834 25.744C64.394 25.744 64.902 25.6 65.358 25.312C65.822 25.016 66.19 24.584 66.462 24.016C66.742 23.44 66.882 22.728 66.882 21.88H67.65C67.65 23.304 67.466 24.484 67.098 25.42C66.73 26.356 66.222 27.056 65.574 27.52C64.926 27.984 64.178 28.216 63.33 28.216C62.498 28.216 61.746 28.068 61.074 27.772C60.402 27.476 59.87 27 59.478 26.344C59.086 25.688 58.89 24.824 58.89 23.752V16.312ZM77.9928 28.336C77.0168 28.336 76.1248 28.08 75.3168 27.568C74.5168 27.048 73.8768 26.324 73.3968 25.396C72.9248 24.46 72.6888 23.368 72.6888 22.12C72.6888 20.888 72.9168 19.816 73.3728 18.904C73.8368 17.984 74.4528 17.276 75.2208 16.78C75.9968 16.276 76.8568 16.024 77.8008 16.024C78.6648 16.024 79.4128 16.232 80.0448 16.648C80.6768 17.056 81.1608 17.664 81.4968 18.472C81.8328 19.28 82.0008 20.272 82.0008 21.448H81.1128C81.1128 20.84 80.9888 20.324 80.7408 19.9C80.4928 19.468 80.1648 19.14 79.7568 18.916C79.3568 18.684 78.9208 18.568 78.4488 18.568C77.8808 18.568 77.3768 18.716 76.9368 19.012C76.5048 19.308 76.1648 19.724 75.9168 20.26C75.6688 20.788 75.5448 21.408 75.5448 22.12C75.5448 22.856 75.6688 23.496 75.9168 24.04C76.1648 24.584 76.5048 25.008 76.9368 25.312C77.3768 25.616 77.8728 25.768 78.4248 25.768C78.8728 25.768 79.3008 25.648 79.7088 25.408C80.1248 25.16 80.4608 24.816 80.7168 24.376C80.9808 23.936 81.1128 23.424 81.1128 22.84H82.0008C82.0008 24.064 81.8168 25.084 81.4488 25.9C81.0888 26.708 80.6048 27.316 79.9968 27.724C79.3888 28.132 78.7208 28.336 77.9928 28.336ZM81.6408 28L81.1128 25.12V11.536H83.9688V28H81.6408ZM92.303 28.336C91.311 28.336 90.403 28.08 89.579 27.568C88.755 27.056 88.095 26.34 87.599 25.42C87.103 24.492 86.855 23.408 86.855 22.168C86.855 20.888 87.099 19.788 87.587 18.868C88.083 17.948 88.743 17.244 89.567 16.756C90.391 16.268 91.303 16.024 92.303 16.024C93.231 16.024 94.031 16.212 94.703 16.588C95.383 16.956 95.927 17.46 96.335 18.1C96.751 18.732 97.031 19.448 97.175 20.248C97.319 21.048 97.327 21.872 97.199 22.72H89.111V21.184H95.195L94.643 21.544C94.667 21.168 94.647 20.788 94.583 20.404C94.527 20.02 94.415 19.668 94.247 19.348C94.079 19.028 93.839 18.772 93.527 18.58C93.223 18.38 92.831 18.28 92.351 18.28C91.775 18.28 91.287 18.424 90.887 18.712C90.487 19 90.183 19.392 89.975 19.888C89.767 20.384 89.663 20.944 89.663 21.568V22.696C89.663 23.352 89.759 23.932 89.951 24.436C90.151 24.94 90.443 25.336 90.827 25.624C91.219 25.912 91.711 26.056 92.303 26.056C92.855 26.056 93.319 25.928 93.695 25.672C94.071 25.416 94.311 25.032 94.415 24.52H97.271C97.151 25.272 96.867 25.936 96.419 26.512C95.979 27.08 95.407 27.528 94.703 27.856C93.999 28.176 93.199 28.336 92.303 28.336ZM108.198 28V21.184C108.198 20.32 107.99 19.668 107.574 19.228C107.158 18.788 106.614 18.568 105.942 18.568C105.374 18.568 104.87 18.724 104.43 19.036C103.998 19.348 103.658 19.82 103.41 20.452C103.162 21.076 103.038 21.856 103.038 22.792H102.102C102.102 21.28 102.29 20.024 102.666 19.024C103.042 18.016 103.574 17.264 104.262 16.768C104.95 16.272 105.758 16.024 106.686 16.024C107.646 16.024 108.446 16.24 109.086 16.672C109.734 17.096 110.218 17.696 110.538 18.472C110.866 19.248 111.03 20.152 111.03 21.184V28H108.198ZM100.206 28V16.36H102.678L103.038 18.664V28H100.206ZM118.615 28.336C117.927 28.336 117.295 28.208 116.719 27.952C116.151 27.696 115.695 27.304 115.351 26.776C115.015 26.248 114.847 25.576 114.847 24.76V13.264H117.679V24.664C117.679 25.624 118.135 26.104 119.047 26.104C119.327 26.104 119.607 26.072 119.887 26.008C120.167 25.944 120.487 25.848 120.847 25.72L121.255 27.712C120.807 27.888 120.371 28.036 119.947 28.156C119.523 28.276 119.079 28.336 118.615 28.336ZM113.215 18.232V16.36H120.847V18.232H113.215Z" fill="#657788"/>
</svg>
