<svg width="152" height="40" viewBox="0 0 152 40" fill="none" xmlns="http://www.w3.org/2000/svg">
<path d="M0 19.9969C0 8.95293 8.95292 0 19.9969 0H151.556V39.9938H19.9969C8.9529 39.9938 0 31.0409 0 19.9969V19.9969Z" fill="#0069CA"/>
<path d="M39.7405 28.336C38.6605 28.336 37.6645 28.148 36.7525 27.772C35.8485 27.396 35.1125 26.824 34.5445 26.056C33.9845 25.288 33.6845 24.312 33.6445 23.128H36.4285C36.4285 23.728 36.5765 24.22 36.8725 24.604C37.1685 24.988 37.5645 25.276 38.0605 25.468C38.5645 25.652 39.1165 25.744 39.7165 25.744C40.2925 25.744 40.8045 25.668 41.2525 25.516C41.7085 25.364 42.0645 25.148 42.3205 24.868C42.5845 24.58 42.7165 24.24 42.7165 23.848C42.7165 23.328 42.5565 22.92 42.2365 22.624C41.9245 22.328 41.4205 22.056 40.7245 21.808L37.6525 20.584C36.4525 20.112 35.5325 19.564 34.8925 18.94C34.2525 18.316 33.9325 17.456 33.9325 16.36C33.9325 15.096 34.4325 14.072 35.4325 13.288C36.4325 12.504 37.8285 12.112 39.6205 12.112C41.3645 12.112 42.7125 12.52 43.6645 13.336C44.6165 14.144 45.1565 15.272 45.2845 16.72H42.5005C42.3965 16.104 42.1165 15.612 41.6605 15.244C41.2045 14.868 40.5245 14.68 39.6205 14.68C38.8205 14.68 38.1885 14.848 37.7245 15.184C37.2605 15.512 37.0285 15.928 37.0285 16.432C37.0285 16.864 37.1725 17.208 37.4605 17.464C37.7565 17.712 38.2125 17.952 38.8285 18.184L42.2365 19.504C43.3885 19.952 44.2725 20.516 44.8885 21.196C45.5045 21.876 45.8125 22.728 45.8125 23.752C45.8125 24.688 45.5765 25.5 45.1045 26.188C44.6325 26.868 43.9445 27.396 43.0405 27.772C42.1365 28.148 41.0365 28.336 39.7405 28.336ZM53.0772 28.336C52.3892 28.336 51.7572 28.208 51.1812 27.952C50.6132 27.696 50.1572 27.304 49.8132 26.776C49.4772 26.248 49.3092 25.576 49.3092 24.76V13.264H52.1412V24.664C52.1412 25.624 52.5972 26.104 53.5092 26.104C53.7892 26.104 54.0692 26.072 54.3492 26.008C54.6292 25.944 54.9492 25.848 55.3092 25.72L55.7172 27.712C55.2692 27.888 54.8332 28.036 54.4092 28.156C53.9852 28.276 53.5412 28.336 53.0772 28.336ZM47.6772 18.232V16.36H55.3092V18.232H47.6772ZM65.882 16.312H68.714V28H65.882V16.312ZM57.89 16.312H60.722V23.464C60.722 24.224 60.91 24.796 61.286 25.18C61.662 25.556 62.178 25.744 62.834 25.744C63.394 25.744 63.902 25.6 64.358 25.312C64.822 25.016 65.19 24.584 65.462 24.016C65.742 23.44 65.882 22.728 65.882 21.88H66.65C66.65 23.304 66.466 24.484 66.098 25.42C65.73 26.356 65.222 27.056 64.574 27.52C63.926 27.984 63.178 28.216 62.33 28.216C61.498 28.216 60.746 28.068 60.074 27.772C59.402 27.476 58.87 27 58.478 26.344C58.086 25.688 57.89 24.824 57.89 23.752V16.312ZM76.9928 28.336C76.0168 28.336 75.1248 28.08 74.3168 27.568C73.5168 27.048 72.8768 26.324 72.3968 25.396C71.9248 24.46 71.6888 23.368 71.6888 22.12C71.6888 20.888 71.9168 19.816 72.3728 18.904C72.8368 17.984 73.4528 17.276 74.2208 16.78C74.9968 16.276 75.8568 16.024 76.8008 16.024C77.6648 16.024 78.4128 16.232 79.0448 16.648C79.6768 17.056 80.1608 17.664 80.4968 18.472C80.8328 19.28 81.0008 20.272 81.0008 21.448H80.1128C80.1128 20.84 79.9888 20.324 79.7408 19.9C79.4928 19.468 79.1648 19.14 78.7568 18.916C78.3568 18.684 77.9208 18.568 77.4488 18.568C76.8808 18.568 76.3768 18.716 75.9368 19.012C75.5048 19.308 75.1648 19.724 74.9168 20.26C74.6688 20.788 74.5448 21.408 74.5448 22.12C74.5448 22.856 74.6688 23.496 74.9168 24.04C75.1648 24.584 75.5048 25.008 75.9368 25.312C76.3768 25.616 76.8728 25.768 77.4248 25.768C77.8728 25.768 78.3008 25.648 78.7088 25.408C79.1248 25.16 79.4608 24.816 79.7168 24.376C79.9808 23.936 80.1128 23.424 80.1128 22.84H81.0008C81.0008 24.064 80.8168 25.084 80.4488 25.9C80.0888 26.708 79.6048 27.316 78.9968 27.724C78.3888 28.132 77.7208 28.336 76.9928 28.336ZM80.6408 28L80.1128 25.12V11.536H82.9688V28H80.6408ZM91.303 28.336C90.311 28.336 89.403 28.08 88.579 27.568C87.755 27.056 87.095 26.34 86.599 25.42C86.103 24.492 85.855 23.408 85.855 22.168C85.855 20.888 86.099 19.788 86.587 18.868C87.083 17.948 87.743 17.244 88.567 16.756C89.391 16.268 90.303 16.024 91.303 16.024C92.231 16.024 93.031 16.212 93.703 16.588C94.383 16.956 94.927 17.46 95.335 18.1C95.751 18.732 96.031 19.448 96.175 20.248C96.319 21.048 96.327 21.872 96.199 22.72H88.111V21.184H94.195L93.643 21.544C93.667 21.168 93.647 20.788 93.583 20.404C93.527 20.02 93.415 19.668 93.247 19.348C93.079 19.028 92.839 18.772 92.527 18.58C92.223 18.38 91.831 18.28 91.351 18.28C90.775 18.28 90.287 18.424 89.887 18.712C89.487 19 89.183 19.392 88.975 19.888C88.767 20.384 88.663 20.944 88.663 21.568V22.696C88.663 23.352 88.759 23.932 88.951 24.436C89.151 24.94 89.443 25.336 89.827 25.624C90.219 25.912 90.711 26.056 91.303 26.056C91.855 26.056 92.319 25.928 92.695 25.672C93.071 25.416 93.311 25.032 93.415 24.52H96.271C96.151 25.272 95.867 25.936 95.419 26.512C94.979 27.08 94.407 27.528 93.703 27.856C92.999 28.176 92.199 28.336 91.303 28.336ZM107.198 28V21.184C107.198 20.32 106.99 19.668 106.574 19.228C106.158 18.788 105.614 18.568 104.942 18.568C104.374 18.568 103.87 18.724 103.43 19.036C102.998 19.348 102.658 19.82 102.41 20.452C102.162 21.076 102.038 21.856 102.038 22.792H101.102C101.102 21.28 101.29 20.024 101.666 19.024C102.042 18.016 102.574 17.264 103.262 16.768C103.95 16.272 104.758 16.024 105.686 16.024C106.646 16.024 107.446 16.24 108.086 16.672C108.734 17.096 109.218 17.696 109.538 18.472C109.866 19.248 110.03 20.152 110.03 21.184V28H107.198ZM99.2056 28V16.36H101.678L102.038 18.664V28H99.2056ZM117.615 28.336C116.927 28.336 116.295 28.208 115.719 27.952C115.151 27.696 114.695 27.304 114.351 26.776C114.015 26.248 113.847 25.576 113.847 24.76V13.264H116.679V24.664C116.679 25.624 117.135 26.104 118.047 26.104C118.327 26.104 118.607 26.072 118.887 26.008C119.167 25.944 119.487 25.848 119.847 25.72L120.255 27.712C119.807 27.888 119.371 28.036 118.947 28.156C118.523 28.276 118.079 28.336 117.615 28.336ZM112.215 18.232V16.36H119.847V18.232H112.215Z" fill="#C2E0FB"/>
</svg>
