<svg width="150" height="150" viewBox="0 0 150 150" fill="none" xmlns="http://www.w3.org/2000/svg">
<path d="M150 75C150 116.421 116.421 150 75 150C33.5787 150 1.87515e-05 116.421 1.87515e-05 75C1.87515e-05 33.5787 33.5787 1.36929e-05 75 1.36929e-05C116.421 1.36929e-05 150 33.5787 150 75Z" fill="#80D2C8"/>
<path fill-rule="evenodd" clip-rule="evenodd" d="M68.5686 0.270508C30.7757 3.48019 0.972297 34.715 0.0233338 73.11C0.0211629 73.5612 0.0200195 74.0682 0.0200195 74.6293C0.0221429 75.7121 0.0249137 76.5282 0.0299111 77.1368C0.0450969 77.6793 0.066043 78.2203 0.0926903 78.7598C0.100138 78.7733 0.108382 78.772 0.117518 78.7595C0.166268 78.6967 0.23591 78.6409 0.270731 78.6409C0.305552 78.6409 0.542335 78.7805 0.800011 78.9479C1.05769 79.1153 1.39197 79.2758 1.53125 79.3037C1.90732 79.3665 3.5648 79.8549 4.30301 80.106C7.34636 81.1665 9.02474 82.1711 9.56098 83.2665C9.87437 83.9153 9.97883 84.4106 10.0485 85.6455C10.1669 87.6269 10.2156 87.9408 10.5081 88.4152C10.8215 88.9176 11.1488 89.0501 12.3815 89.1757C13.4888 89.2873 14.1156 89.5036 15.9889 90.4385C18.1757 91.5268 18.7328 91.7012 20.251 91.785C22.6049 91.9175 23.949 92.1268 25.7806 92.6361C28.4897 93.3966 30.3213 94.4361 31.0107 95.5942C31.0873 95.7198 31.1082 95.971 31.1082 96.5012C31.1013 97.1291 31.0664 97.3244 30.8784 97.8826C30.4466 99.1523 29.8129 100.324 28.1554 102.927C26.686 105.222 26.477 105.829 25.892 109.338C25.502 111.696 25.1678 112.959 24.548 114.431C23.6983 116.44 22.4657 117.989 21.7135 117.989C20.6062 117.989 18.4194 119.517 17.4514 120.968C16.9709 121.687 16.8525 121.966 16.95 122.154C16.9988 122.245 17.0614 122.315 17.0963 122.315C17.1241 122.315 17.152 122.35 17.152 122.385C17.152 122.426 17.2216 122.538 17.3121 122.629C17.3957 122.719 17.5489 122.894 17.6534 123.026C17.7576 123.152 17.9102 123.332 17.987 123.423L17.9877 123.424C18.0643 123.522 18.113 123.64 18.0921 123.689C18.0782 123.745 18.0921 123.766 18.127 123.745C18.2175 123.689 18.9 124.415 18.8582 124.526C18.8443 124.582 18.8721 124.596 18.9418 124.568C19.0323 124.533 19.0462 124.554 19.0114 124.645C18.9836 124.715 18.9905 124.75 19.0323 124.722C19.0741 124.694 19.1507 124.729 19.2134 124.785C19.2691 124.847 19.3039 124.896 19.283 124.896C19.2621 124.896 19.4432 125.106 19.6939 125.364C19.9446 125.629 20.1326 125.88 20.1118 125.929C20.0909 125.985 20.1118 125.999 20.1535 125.971C20.1953 125.943 20.5296 126.243 20.9196 126.647C21.3026 127.045 21.6439 127.401 21.6787 127.443C21.7761 127.533 22.2276 127.986 22.2913 128.049L22.2915 128.05C22.3061 128.064 22.4085 128.163 22.5597 128.309C22.6974 128.442 22.8754 128.613 23.0646 128.796C23.4685 129.187 23.768 129.522 23.7401 129.564C23.7122 129.605 23.7262 129.626 23.7819 129.605C23.8306 129.585 24.0813 129.773 24.346 130.024C24.6037 130.275 24.8126 130.457 24.8126 130.436C24.8126 130.415 24.8613 130.45 24.924 130.505C24.9797 130.568 25.0146 130.645 24.9867 130.687C24.9588 130.729 24.9937 130.736 25.0633 130.708C25.1538 130.673 25.1747 130.687 25.1399 130.778C25.1121 130.847 25.126 130.875 25.1817 130.861C25.2931 130.819 26.0174 131.503 25.9617 131.594C25.9408 131.629 25.9617 131.643 26.0174 131.629C26.0662 131.608 26.1845 131.657 26.282 131.733C26.3726 131.81 26.5536 131.964 26.679 132.068C26.8113 132.173 26.9854 132.326 27.076 132.41C27.1665 132.501 27.264 132.571 27.2849 132.571C27.3058 132.571 27.3963 132.633 27.4799 132.717C27.5635 132.801 27.7445 132.947 27.8768 133.045C28.0092 133.15 28.232 133.338 28.3643 133.457C28.4967 133.582 28.629 133.687 28.6638 133.687C28.6917 133.687 28.81 133.784 28.9354 133.896C29.0538 134.015 29.1791 134.105 29.207 134.105C29.2349 134.105 29.3393 134.182 29.4368 134.28C29.5343 134.378 29.6457 134.454 29.6875 134.454C29.7224 134.454 29.7572 134.475 29.7572 134.503C29.7572 134.538 29.8756 134.636 30.0149 134.733C30.1541 134.831 30.3422 134.977 30.4257 135.061C30.5163 135.152 30.6207 135.222 30.6625 135.222C30.6973 135.222 30.7322 135.257 30.7322 135.298C30.7322 135.333 30.76 135.354 30.7948 135.333C30.8227 135.312 30.9063 135.354 30.9759 135.431C31.0456 135.508 31.1431 135.571 31.1988 135.571C31.2545 135.571 31.2754 135.598 31.2545 135.64C31.2336 135.682 31.2614 135.71 31.3172 135.71C31.3798 135.71 31.4286 135.738 31.4286 135.78C31.4286 135.815 31.4773 135.85 31.5331 135.85C31.5888 135.85 31.7072 135.926 31.8047 136.024C31.9022 136.122 32.0136 136.198 32.0554 136.198C32.0902 136.198 32.125 136.226 32.125 136.268C32.125 136.303 32.1738 136.338 32.2295 136.338C32.2852 136.338 32.3339 136.359 32.3339 136.387C32.3339 136.422 32.4941 136.533 32.6821 136.652C32.8771 136.764 33.0304 136.882 33.0304 136.91C33.0304 136.938 33.0791 136.966 33.1348 136.966C33.1905 136.966 33.2393 136.994 33.2393 137.022C33.2393 137.057 33.3646 137.14 33.5178 137.217C33.6711 137.287 33.7964 137.37 33.7964 137.398C33.7964 137.433 33.8312 137.454 33.8661 137.454C33.9078 137.454 33.9984 137.51 34.075 137.573C34.1446 137.643 34.3257 137.761 34.4719 137.838C34.6182 137.915 34.7853 138.026 34.841 138.082C34.8968 138.138 35.0778 138.25 35.238 138.326C35.4051 138.403 35.5375 138.487 35.5375 138.515C35.5375 138.55 35.5862 138.57 35.6419 138.57C35.6976 138.57 35.7464 138.598 35.7464 138.64C35.7464 138.675 35.7951 138.71 35.8578 138.71C35.9135 138.71 35.9414 138.738 35.9205 138.78C35.8996 138.815 35.9275 138.85 35.9901 138.85C36.0458 138.85 36.22 138.926 36.3732 139.024C36.5264 139.122 36.6796 139.198 36.7214 139.198C36.7562 139.198 36.791 139.226 36.791 139.268C36.791 139.303 36.8398 139.338 36.8955 139.338C36.9512 139.338 37 139.359 37 139.387C37 139.422 37.1392 139.505 37.3133 139.582C37.4874 139.659 37.6267 139.743 37.6267 139.77C37.6267 139.805 37.6755 139.826 37.7312 139.826C37.7869 139.826 37.8357 139.854 37.8357 139.896C37.8357 139.931 37.8844 139.966 37.9401 139.966C37.9958 139.966 38.0446 139.994 38.0446 140.036C38.0446 140.07 38.0933 140.105 38.156 140.105C38.2814 140.105 38.6922 140.322 38.7271 140.398C38.741 140.433 38.7967 140.454 38.8524 140.454C38.9081 140.454 38.9499 140.475 38.9499 140.51C38.9499 140.566 39.4583 140.803 39.5767 140.803C39.6185 140.803 39.6463 140.831 39.6463 140.873C39.6463 140.908 39.6951 140.943 39.7508 140.943C39.8065 140.943 39.8553 140.97 39.8553 141.012C39.8553 141.047 39.918 141.082 39.9946 141.082C40.0712 141.082 40.1338 141.11 40.1338 141.152C40.1338 141.187 40.1826 141.222 40.2383 141.222C40.294 141.222 40.3428 141.25 40.3428 141.291C40.3428 141.326 40.3915 141.361 40.4472 141.361C40.5656 141.361 41.269 141.717 41.3038 141.794C41.3178 141.829 41.3874 141.85 41.464 141.85C41.5336 141.85 41.5963 141.884 41.5963 141.926C41.5963 141.961 41.6242 141.982 41.652 141.961C41.6869 141.94 41.8122 141.989 41.9306 142.066C42.056 142.136 42.2022 142.198 42.2579 142.198C42.3136 142.198 42.3624 142.226 42.3624 142.268C42.3624 142.303 42.432 142.338 42.5156 142.338C42.5992 142.338 42.641 142.359 42.6201 142.387C42.5713 142.429 42.9265 142.589 43.2538 142.666C43.3374 142.687 43.407 142.729 43.407 142.763C43.407 142.798 43.4697 142.826 43.5463 142.826C43.6229 142.826 43.6856 142.854 43.6856 142.896C43.6856 142.931 43.7483 142.966 43.8249 142.966C43.9015 142.966 43.9642 142.994 43.9642 143.036C43.9642 143.07 44.0129 143.105 44.0686 143.105C44.1243 143.105 44.3333 143.182 44.5352 143.28C44.7302 143.377 44.9391 143.454 44.9879 143.454C45.0436 143.454 45.0645 143.482 45.0436 143.524C45.0158 143.566 45.0784 143.594 45.1759 143.594C45.2734 143.594 45.357 143.622 45.357 143.663C45.357 143.698 45.4057 143.733 45.4684 143.733C45.5729 143.733 45.9281 143.873 46.2066 144.019C46.2763 144.054 46.3807 144.082 46.4365 144.082C46.4922 144.082 46.5409 144.11 46.5409 144.152C46.5409 144.187 46.6245 144.222 46.722 144.222C46.8195 144.222 46.8822 144.249 46.8543 144.291C46.8334 144.333 46.8822 144.361 46.9727 144.361C47.0632 144.361 47.2234 144.41 47.3348 144.466C47.4393 144.522 47.5925 144.57 47.6621 144.57C47.7388 144.57 47.7945 144.598 47.7945 144.64C47.7945 144.675 47.878 144.71 47.9755 144.71C48.073 144.71 48.1357 144.738 48.1079 144.78C48.08 144.822 48.1427 144.849 48.2402 144.849C48.3377 144.849 48.4212 144.877 48.4212 144.912C48.4212 144.947 48.5466 144.989 48.6998 145.017C48.86 145.038 49.048 145.094 49.1177 145.129C49.156 145.149 49.2065 145.174 49.257 145.198C49.3075 145.223 49.3579 145.247 49.3962 145.268C49.4728 145.303 49.5982 145.338 49.6748 145.338C49.7584 145.338 49.8002 145.366 49.7793 145.408C49.7514 145.449 49.828 145.477 49.9464 145.477C50.0648 145.477 50.1623 145.505 50.1623 145.54C50.1623 145.575 50.3016 145.624 50.4757 145.645C50.6428 145.673 50.803 145.722 50.8239 145.763C50.8518 145.798 50.9423 145.826 51.0398 145.826C51.1303 145.826 51.2069 145.854 51.2069 145.896C51.2069 145.931 51.3044 145.966 51.4159 145.966C51.5342 145.966 51.6248 145.994 51.6248 146.036C51.6248 146.07 51.7223 146.105 51.8337 146.105C51.9521 146.105 52.0426 146.133 52.0426 146.168C52.0426 146.203 52.2028 146.252 52.3908 146.28C52.5858 146.308 52.7391 146.356 52.7391 146.391C52.7391 146.426 52.8366 146.454 52.948 146.454C53.0664 146.454 53.1569 146.482 53.1569 146.524C53.1569 146.559 53.2683 146.594 53.4076 146.594C53.5539 146.594 53.6374 146.622 53.6096 146.663C53.5817 146.705 53.6583 146.733 53.7976 146.733C53.923 146.74 54.1528 146.782 54.306 146.838C54.4592 146.894 54.6542 146.942 54.7447 146.942C54.8283 146.942 54.898 146.97 54.898 147.012C54.898 147.047 55.0094 147.082 55.1417 147.082C55.274 147.082 55.3855 147.11 55.3855 147.152C55.3855 147.187 55.4969 147.222 55.6362 147.222C55.7685 147.222 55.866 147.249 55.8451 147.284C55.8242 147.319 56.0053 147.368 56.256 147.396C56.5067 147.417 56.7226 147.473 56.7435 147.508C56.7713 147.542 56.8897 147.57 57.022 147.57C57.1544 147.57 57.2797 147.598 57.3006 147.64C57.3215 147.675 57.4538 147.71 57.5861 147.71C57.7185 147.71 57.8229 147.738 57.8229 147.78C57.8229 147.815 57.9483 147.849 58.1015 147.849C58.2547 147.849 58.3801 147.877 58.3801 147.912C58.3801 147.947 58.6308 147.996 58.9372 148.024C59.2436 148.052 59.4943 148.101 59.4943 148.135C59.4943 148.17 59.6336 148.198 59.8077 148.198C59.9818 148.198 60.1211 148.226 60.1211 148.268C60.1211 148.303 60.2604 148.338 60.4345 148.338C60.6086 148.338 60.7479 148.366 60.7479 148.408C60.7479 148.442 60.9081 148.477 61.1031 148.477C61.2911 148.477 61.4373 148.505 61.4165 148.54C61.3956 148.575 61.702 148.624 62.1059 148.652C62.5098 148.68 62.858 148.729 62.8789 148.763C62.8998 148.798 63.067 148.826 63.262 148.826C63.45 148.826 63.6032 148.854 63.6032 148.896C63.6032 148.938 63.7982 148.966 64.0559 148.966C64.3136 148.966 64.5086 148.994 64.5086 149.035C64.5086 149.077 64.7036 149.105 64.9612 149.105C65.212 149.105 65.4139 149.133 65.4139 149.168C65.4139 149.203 65.9014 149.252 66.4934 149.28C67.0853 149.308 67.5937 149.356 67.6146 149.391C67.6355 149.426 67.9628 149.454 68.3458 149.454C68.7567 149.454 69.0353 149.482 69.0353 149.524C69.0353 149.566 69.4114 149.594 70.0312 149.594C70.6928 149.594 70.9853 149.615 70.9156 149.663C70.846 149.705 72.2806 149.733 75.0245 149.733C77.7684 149.733 79.203 149.705 79.1334 149.663C79.0638 149.615 79.3562 149.594 80.0248 149.594C80.6377 149.594 81.0137 149.566 81.0137 149.524C81.0137 149.482 81.2923 149.454 81.7032 149.454C82.0862 149.454 82.4135 149.426 82.4344 149.391C82.4553 149.356 82.9637 149.308 83.5557 149.28C84.1476 149.252 84.6351 149.203 84.6351 149.168C84.6351 149.133 84.8371 149.105 85.0878 149.105C85.3455 149.105 85.5405 149.077 85.5405 149.035C85.5405 148.994 85.7355 148.966 85.9931 148.966C86.2508 148.966 86.4458 148.938 86.4458 148.896C86.4458 148.854 86.599 148.826 86.7871 148.826C86.9821 148.826 87.1492 148.798 87.1701 148.763C87.191 148.729 87.5392 148.68 87.9431 148.652C88.347 148.624 88.6535 148.575 88.6326 148.54C88.6117 148.505 88.7579 148.477 88.946 148.477C89.1409 148.477 89.3011 148.442 89.3011 148.408C89.3011 148.366 89.4404 148.338 89.6145 148.338C89.7886 148.338 89.9279 148.303 89.9279 148.268C89.9279 148.226 90.0672 148.198 90.2413 148.198C90.4154 148.198 90.5547 148.17 90.5547 148.135C90.5547 148.101 90.8054 148.052 91.1118 148.024C91.4183 147.996 91.669 147.947 91.669 147.912C91.669 147.877 91.8152 147.849 91.9893 147.849C92.1774 147.849 92.2888 147.822 92.2609 147.78C92.2331 147.738 92.3166 147.71 92.4629 147.71C92.5952 147.71 92.7275 147.675 92.7484 147.64C92.7693 147.598 92.8947 147.57 93.027 147.57C93.1593 147.57 93.2777 147.542 93.3055 147.508C93.3264 147.473 93.5423 147.417 93.7931 147.396C94.0438 147.368 94.2248 147.319 94.2039 147.284C94.183 147.249 94.2805 147.222 94.4129 147.222C94.5521 147.222 94.6636 147.187 94.6636 147.152C94.6636 147.11 94.775 147.082 94.9073 147.082C95.0396 147.082 95.1511 147.047 95.1511 147.012C95.1511 146.97 95.2207 146.942 95.3112 146.942C95.3948 146.942 95.5898 146.894 95.743 146.838C95.8962 146.782 96.1261 146.74 96.2514 146.733C96.3907 146.733 96.4673 146.705 96.4394 146.663C96.4116 146.622 96.4952 146.594 96.6414 146.594C96.7807 146.594 96.8921 146.559 96.8921 146.524C96.8921 146.482 96.9896 146.454 97.101 146.454C97.2194 146.454 97.31 146.426 97.31 146.391C97.31 146.342 97.5746 146.273 97.9507 146.217C97.9716 146.21 98.0203 146.189 98.0482 146.161C98.076 146.126 98.1735 146.105 98.2641 146.105C98.3546 146.105 98.4242 146.07 98.4242 146.036C98.4242 145.994 98.5217 145.966 98.6332 145.966C98.7516 145.966 98.8421 145.931 98.8421 145.896C98.8421 145.854 98.9187 145.826 99.0092 145.826C99.1067 145.826 99.1973 145.798 99.2251 145.763C99.246 145.722 99.4062 145.673 99.5733 145.645C99.7474 145.624 99.8867 145.575 99.8867 145.54C99.8867 145.505 99.9842 145.477 100.103 145.477C100.221 145.477 100.298 145.449 100.27 145.408C100.242 145.366 100.319 145.338 100.437 145.338C100.555 145.338 100.653 145.303 100.653 145.268C100.653 145.226 100.715 145.198 100.785 145.198C100.862 145.198 100.938 145.17 100.966 145.136C100.987 145.094 101.147 145.045 101.314 145.017C101.489 144.996 101.628 144.947 101.628 144.912C101.628 144.877 101.711 144.849 101.809 144.849C101.906 144.849 101.969 144.822 101.941 144.78C101.913 144.738 101.976 144.71 102.073 144.71C102.171 144.71 102.255 144.675 102.255 144.64C102.255 144.598 102.31 144.57 102.387 144.57C102.457 144.57 102.61 144.522 102.714 144.466C102.826 144.41 102.986 144.361 103.076 144.361C103.167 144.361 103.216 144.333 103.195 144.291C103.167 144.249 103.23 144.222 103.327 144.222C103.425 144.222 103.508 144.187 103.508 144.152C103.508 144.11 103.557 144.082 103.613 144.082C103.668 144.082 103.773 144.054 103.842 144.019C104.121 143.873 104.476 143.733 104.581 143.733C104.643 143.733 104.692 143.698 104.692 143.663C104.692 143.622 104.769 143.594 104.859 143.594C104.95 143.594 105.04 143.566 105.054 143.538C105.089 143.454 105.862 143.105 106.015 143.105C106.092 143.105 106.155 143.07 106.155 143.036C106.155 142.994 106.217 142.966 106.301 142.966C106.377 142.966 106.419 142.938 106.398 142.896C106.377 142.854 106.419 142.826 106.496 142.826C106.579 142.826 106.642 142.798 106.642 142.763C106.642 142.729 106.712 142.687 106.802 142.666C107.123 142.589 107.478 142.429 107.429 142.387C107.408 142.359 107.45 142.338 107.533 142.338C107.617 142.338 107.687 142.303 107.687 142.268C107.687 142.226 107.735 142.198 107.791 142.198C107.847 142.198 107.993 142.136 108.118 142.066C108.237 141.989 108.362 141.94 108.397 141.961C108.425 141.982 108.453 141.961 108.453 141.926C108.453 141.884 108.515 141.85 108.585 141.85C108.662 141.85 108.731 141.829 108.745 141.794C108.78 141.717 109.483 141.361 109.602 141.361C109.658 141.361 109.706 141.326 109.706 141.291C109.706 141.25 109.755 141.222 109.811 141.222C109.866 141.222 109.915 141.187 109.915 141.152C109.915 141.11 109.978 141.082 110.054 141.082C110.131 141.082 110.194 141.047 110.194 141.012C110.194 140.97 110.243 140.943 110.298 140.943C110.354 140.943 110.403 140.915 110.403 140.88C110.403 140.845 110.493 140.796 110.612 140.768C110.723 140.74 110.834 140.691 110.855 140.656C110.883 140.622 110.96 140.594 111.036 140.594C111.113 140.594 111.155 140.566 111.134 140.524C111.113 140.489 111.141 140.454 111.197 140.454C111.259 140.454 111.308 140.426 111.308 140.398C111.308 140.37 111.468 140.287 111.656 140.21C111.851 140.133 112.004 140.05 112.004 140.022C112.004 139.994 112.067 139.966 112.151 139.966C112.227 139.966 112.269 139.931 112.248 139.896C112.227 139.854 112.255 139.826 112.311 139.826C112.374 139.826 112.422 139.805 112.422 139.77C112.422 139.743 112.562 139.659 112.736 139.582C112.91 139.505 113.049 139.422 113.049 139.387C113.049 139.359 113.098 139.338 113.154 139.338C113.209 139.338 113.258 139.303 113.258 139.268C113.258 139.226 113.321 139.198 113.397 139.198C113.474 139.198 113.537 139.177 113.537 139.143C113.537 139.08 113.934 138.85 114.052 138.85C114.094 138.85 114.177 138.787 114.233 138.71C114.289 138.633 114.372 138.57 114.421 138.57C114.47 138.57 114.512 138.543 114.512 138.508C114.512 138.452 114.769 138.34 114.881 138.354C114.909 138.361 114.929 138.326 114.929 138.291C114.929 138.25 114.964 138.222 115.006 138.222C115.055 138.222 115.138 138.166 115.201 138.096C115.264 138.033 115.438 137.915 115.591 137.838C115.744 137.761 115.918 137.643 115.981 137.573C116.044 137.51 116.127 137.454 116.176 137.454C116.218 137.454 116.253 137.433 116.253 137.398C116.253 137.37 116.378 137.287 116.531 137.217C116.684 137.14 116.81 137.057 116.81 137.022C116.81 136.994 116.845 136.966 116.879 136.966C116.921 136.966 117.019 136.91 117.095 136.833C117.172 136.764 117.353 136.645 117.492 136.575C117.632 136.498 117.799 136.387 117.861 136.317C117.924 136.254 118.001 136.198 118.035 136.198C118.07 136.198 118.147 136.136 118.203 136.066C118.251 135.989 118.321 135.94 118.356 135.961C118.384 135.982 118.412 135.961 118.412 135.926C118.412 135.884 118.46 135.85 118.516 135.85C118.572 135.85 118.62 135.815 118.62 135.78C118.62 135.738 118.669 135.71 118.732 135.71C118.788 135.71 118.815 135.675 118.795 135.64C118.774 135.598 118.795 135.571 118.85 135.571C118.899 135.571 119.01 135.508 119.087 135.438C119.171 135.361 119.254 135.319 119.275 135.34C119.296 135.368 119.317 135.347 119.317 135.305C119.317 135.257 119.352 135.222 119.387 135.222C119.428 135.222 119.554 135.131 119.679 135.012C119.797 134.901 119.923 134.803 119.951 134.803C119.978 134.803 120.083 134.726 120.18 134.629C120.278 134.531 120.375 134.454 120.396 134.454C120.417 134.454 120.515 134.378 120.612 134.28C120.71 134.182 120.814 134.105 120.842 134.105C120.87 134.105 120.995 134.008 121.114 133.896C121.239 133.778 121.357 133.687 121.385 133.687C121.42 133.687 121.58 133.561 121.74 133.408C121.908 133.254 122.068 133.129 122.089 133.129C122.116 133.129 122.27 133.003 122.437 132.85C122.597 132.696 122.743 132.571 122.764 132.571C122.785 132.571 122.883 132.501 122.973 132.41C123.064 132.326 123.238 132.173 123.37 132.068C123.398 132.045 123.428 132.02 123.459 131.994C123.571 131.9 123.696 131.793 123.767 131.733C123.864 131.657 123.983 131.608 124.032 131.629C124.087 131.643 124.108 131.629 124.087 131.594C124.039 131.51 124.735 130.854 124.86 130.868C124.909 130.875 124.93 130.833 124.902 130.771C124.874 130.694 124.895 130.673 124.986 130.708C125.055 130.736 125.09 130.729 125.062 130.687C125.014 130.603 125.202 130.394 125.264 130.457C125.285 130.485 125.306 130.464 125.306 130.422C125.306 130.373 125.341 130.338 125.383 130.338C125.424 130.338 125.585 130.198 125.745 130.024C125.898 129.85 126.065 129.717 126.114 129.738C126.177 129.759 126.191 129.738 126.163 129.661C126.128 129.578 126.149 129.557 126.232 129.592C126.316 129.619 126.33 129.605 126.302 129.522C126.267 129.431 126.288 129.417 126.379 129.452C126.455 129.48 126.483 129.473 126.448 129.424C126.413 129.368 127.207 128.538 127.757 128.064C127.806 128.022 127.897 127.917 127.952 127.84C128.022 127.729 128.064 127.715 128.106 127.778C128.141 127.833 128.161 127.805 128.161 127.701C128.161 127.61 128.189 127.554 128.217 127.575C128.252 127.596 128.322 127.547 128.377 127.464C128.565 127.192 128.837 126.926 128.886 126.968C128.907 126.989 128.927 126.975 128.927 126.926C128.927 126.794 129.673 126.061 129.756 126.11C129.805 126.145 129.812 126.117 129.784 126.04C129.749 125.95 129.763 125.929 129.854 125.964C129.937 125.992 129.951 125.978 129.923 125.894C129.889 125.81 129.909 125.789 129.993 125.824C130.07 125.852 130.09 125.838 130.07 125.775C130.049 125.719 130.111 125.615 130.209 125.538C130.306 125.461 130.39 125.364 130.39 125.315C130.39 125.273 130.425 125.259 130.46 125.28C130.501 125.301 130.529 125.287 130.529 125.238C130.529 125.196 130.599 125.099 130.682 125.029C130.759 124.952 130.808 124.896 130.78 124.896C130.752 124.896 130.78 124.847 130.836 124.785C130.898 124.729 130.975 124.694 131.017 124.722C131.059 124.75 131.065 124.715 131.038 124.645C131.003 124.547 131.017 124.533 131.114 124.568C131.191 124.596 131.219 124.589 131.191 124.54C131.163 124.506 131.226 124.394 131.323 124.303C131.421 124.213 131.504 124.101 131.504 124.059C131.504 124.017 131.539 124.003 131.574 124.024C131.616 124.045 131.644 124.031 131.644 123.989C131.644 123.871 131.839 123.696 131.922 123.745C131.957 123.766 131.971 123.745 131.95 123.689C131.929 123.633 131.992 123.508 132.089 123.41C132.187 123.306 132.27 123.208 132.27 123.187C132.27 123.166 132.34 123.075 132.43 122.985C132.514 122.894 132.625 122.754 132.681 122.678C132.737 122.594 132.807 122.545 132.841 122.566C132.869 122.587 132.897 122.531 132.897 122.44C132.897 122.315 132.911 122.301 132.967 122.385C133.022 122.475 133.036 122.468 133.036 122.357C133.036 122.287 133.113 122.154 133.21 122.064C133.308 121.973 133.385 121.868 133.385 121.826C133.385 121.785 133.419 121.771 133.454 121.792C133.496 121.813 133.524 121.771 133.524 121.687C133.524 121.603 133.559 121.561 133.593 121.582C133.635 121.603 133.663 121.575 133.663 121.52C133.663 121.464 133.74 121.359 133.837 121.282C133.935 121.206 134.011 121.094 134.011 121.024C134.011 120.961 134.046 120.933 134.081 120.954C134.123 120.975 134.151 120.947 134.151 120.878C134.151 120.787 134.172 120.78 134.248 120.843C134.332 120.913 134.339 120.899 134.311 120.787C134.29 120.689 134.311 120.626 134.387 120.599C134.45 120.578 134.499 120.508 134.499 120.452C134.499 120.326 134.673 120.145 134.736 120.201C134.757 120.229 134.777 120.173 134.777 120.089C134.777 120.006 134.805 119.957 134.847 119.978C134.889 119.999 134.917 119.985 134.917 119.943C134.917 119.824 135.167 119.517 135.223 119.573C135.244 119.594 135.265 119.559 135.265 119.482C135.265 119.406 135.328 119.301 135.404 119.245C135.481 119.189 135.543 119.106 135.543 119.057C135.543 119.008 135.578 118.966 135.62 118.966C135.655 118.966 135.676 118.938 135.655 118.91C135.634 118.875 135.683 118.806 135.759 118.757C135.829 118.701 135.892 118.596 135.892 118.527C135.892 118.457 135.926 118.422 135.961 118.443C136.003 118.464 136.031 118.436 136.031 118.366C136.031 118.275 136.052 118.268 136.128 118.331C136.205 118.394 136.212 118.38 136.191 118.24C136.17 118.129 136.212 118.024 136.337 117.899C136.435 117.801 136.518 117.682 136.518 117.64C136.518 117.606 136.553 117.571 136.588 117.571C136.63 117.571 136.658 117.522 136.658 117.459C136.658 117.403 136.686 117.368 136.72 117.389C136.755 117.41 136.804 117.354 136.825 117.257C136.853 117.159 136.901 117.082 136.936 117.082C136.978 117.082 137.006 117.034 137.006 116.971C137.006 116.915 137.041 116.887 137.076 116.908C137.117 116.929 137.145 116.887 137.145 116.81C137.145 116.727 137.18 116.664 137.215 116.664C137.257 116.664 137.285 116.615 137.285 116.552C137.285 116.496 137.312 116.461 137.347 116.482C137.382 116.503 137.431 116.447 137.452 116.35C137.48 116.252 137.528 116.175 137.563 116.175C137.605 116.175 137.633 116.113 137.633 116.029C137.633 115.952 137.668 115.91 137.702 115.931C137.744 115.952 137.772 115.903 137.772 115.813C137.772 115.687 137.786 115.673 137.842 115.757C137.897 115.841 137.911 115.834 137.911 115.715C137.911 115.631 137.96 115.527 138.016 115.478C138.071 115.429 138.12 115.345 138.12 115.289C138.12 115.227 138.162 115.199 138.211 115.22C138.28 115.247 138.301 115.206 138.28 115.073C138.253 114.927 138.266 114.906 138.322 114.989C138.385 115.073 138.399 115.066 138.399 114.934C138.399 114.85 138.427 114.78 138.461 114.78C138.496 114.78 138.545 114.703 138.566 114.606C138.594 114.508 138.643 114.431 138.677 114.431C138.719 114.431 138.747 114.368 138.747 114.292C138.747 114.215 138.782 114.152 138.817 114.152C138.858 114.152 138.886 114.103 138.886 114.041C138.886 113.985 138.921 113.957 138.956 113.978C138.998 113.999 139.026 113.957 139.026 113.873C139.026 113.789 139.06 113.748 139.095 113.768C139.137 113.789 139.165 113.748 139.165 113.664C139.165 113.587 139.214 113.503 139.269 113.482C139.325 113.454 139.374 113.378 139.374 113.308C139.374 113.238 139.409 113.175 139.443 113.175C139.485 113.175 139.513 113.113 139.513 113.029C139.513 112.952 139.548 112.91 139.583 112.931C139.624 112.952 139.652 112.91 139.652 112.827C139.652 112.743 139.687 112.701 139.722 112.722C139.764 112.743 139.792 112.701 139.792 112.624C139.792 112.548 139.84 112.443 139.896 112.38C139.952 112.324 140.001 112.22 140.001 112.15C140.001 112.045 140.014 112.038 140.07 112.129C140.126 112.213 140.14 112.192 140.14 112.038C140.14 111.927 140.168 111.857 140.209 111.885C140.251 111.906 140.279 111.864 140.279 111.787C140.279 111.703 140.314 111.641 140.349 111.641C140.391 111.641 140.418 111.578 140.418 111.508C140.418 111.431 140.467 111.327 140.523 111.264C140.579 111.208 140.627 111.11 140.627 111.048C140.627 110.985 140.662 110.957 140.697 110.978C140.739 110.999 140.767 110.957 140.767 110.873C140.767 110.789 140.801 110.748 140.836 110.768C140.878 110.789 140.906 110.748 140.906 110.671C140.906 110.587 140.934 110.524 140.969 110.524C141.003 110.524 141.052 110.413 141.073 110.28C141.101 110.148 141.15 110.036 141.184 110.036C141.226 110.036 141.254 109.987 141.254 109.931C141.254 109.875 141.289 109.827 141.324 109.827C141.366 109.827 141.393 109.764 141.393 109.68C141.393 109.603 141.428 109.562 141.463 109.582C141.505 109.603 141.533 109.575 141.533 109.513C141.533 109.45 141.581 109.352 141.637 109.296C141.693 109.234 141.742 109.129 141.742 109.052C141.742 108.982 141.776 108.92 141.811 108.92C141.853 108.92 141.881 108.857 141.881 108.78C141.881 108.703 141.916 108.641 141.951 108.641C141.992 108.641 142.02 108.578 142.02 108.494C142.02 108.417 142.055 108.375 142.09 108.396C142.132 108.424 142.159 108.362 142.159 108.264C142.159 108.166 142.194 108.082 142.236 108.082C142.271 108.082 142.285 108.055 142.264 108.013C142.243 107.971 142.257 107.943 142.292 107.943C142.334 107.943 142.368 107.88 142.368 107.803C142.368 107.727 142.403 107.664 142.438 107.664C142.48 107.664 142.508 107.58 142.508 107.469C142.508 107.322 142.522 107.301 142.577 107.385C142.626 107.462 142.647 107.427 142.647 107.245C142.647 107.064 142.668 107.029 142.717 107.106C142.772 107.189 142.786 107.169 142.786 107.022C142.786 106.917 142.835 106.792 142.891 106.729C142.953 106.673 143.002 106.603 142.995 106.582C142.981 106.366 143.009 106.269 143.065 106.303C143.107 106.331 143.134 106.269 143.134 106.164C143.134 106.059 143.162 105.996 143.204 106.024C143.246 106.052 143.274 105.989 143.274 105.885C143.274 105.78 143.302 105.717 143.343 105.745C143.385 105.766 143.413 105.71 143.413 105.613C143.413 105.522 143.462 105.396 143.517 105.334C143.573 105.278 143.622 105.166 143.622 105.089C143.622 105.006 143.657 104.943 143.692 104.943C143.733 104.943 143.761 104.859 143.761 104.762C143.761 104.664 143.789 104.601 143.831 104.629C143.873 104.657 143.9 104.594 143.9 104.489C143.9 104.392 143.928 104.322 143.963 104.343C143.998 104.364 144.04 104.259 144.068 104.106C144.089 103.952 144.144 103.827 144.179 103.827C144.221 103.827 144.249 103.743 144.249 103.645C144.249 103.548 144.277 103.485 144.318 103.513C144.36 103.541 144.388 103.464 144.388 103.338C144.388 103.213 144.416 103.136 144.458 103.164C144.499 103.192 144.527 103.115 144.527 102.989C144.527 102.871 144.555 102.787 144.59 102.808C144.625 102.829 144.667 102.724 144.694 102.571C144.715 102.417 144.771 102.292 144.806 102.292C144.848 102.292 144.875 102.194 144.875 102.076C144.875 101.957 144.903 101.88 144.945 101.908C144.987 101.936 145.015 101.859 145.015 101.72C145.015 101.545 145.036 101.517 145.084 101.594C145.107 101.629 145.123 101.642 145.134 101.63C145.138 101.619 145.142 101.609 145.146 101.598C145.152 101.571 145.154 101.528 145.154 101.469C145.154 101.35 145.182 101.245 145.217 101.245C145.259 101.245 145.307 101.106 145.335 100.931C145.356 100.757 145.405 100.638 145.44 100.659C145.474 100.68 145.502 100.596 145.502 100.485C145.502 100.366 145.537 100.269 145.572 100.269C145.614 100.269 145.642 100.171 145.642 100.052C145.642 99.9337 145.669 99.857 145.711 99.8849C145.753 99.9128 145.781 99.843 145.781 99.7174C145.781 99.6058 145.816 99.5012 145.857 99.4872C145.892 99.4733 145.948 99.3337 145.969 99.1663C145.99 99.0058 146.032 98.8942 146.066 98.9151C146.101 98.936 146.129 98.8384 146.129 98.6988C146.129 98.5454 146.157 98.4616 146.199 98.4895C146.24 98.5174 146.268 98.4337 146.268 98.2872C146.268 98.1477 146.303 98.0361 146.338 98.0361C146.38 98.0361 146.408 97.9454 146.408 97.8337C146.408 97.7221 146.442 97.6175 146.484 97.6035C146.526 97.5896 146.575 97.4291 146.596 97.2477C146.617 97.0663 146.665 96.9198 146.693 96.9198C146.728 96.9198 146.756 96.8221 146.756 96.7035C146.756 96.5849 146.784 96.5082 146.825 96.5361C146.867 96.564 146.895 96.4593 146.895 96.2779C146.895 96.0896 146.916 96.0128 146.958 96.0686C146.993 96.1314 147.027 96.0128 147.055 95.7547C147.076 95.5314 147.132 95.3431 147.174 95.3291C147.209 95.3152 147.243 95.1756 147.243 95.0291C147.243 94.8617 147.271 94.764 147.313 94.7919C147.355 94.8198 147.383 94.7152 147.383 94.5338C147.383 94.3175 147.403 94.2617 147.452 94.3384C147.461 94.3521 147.469 94.3611 147.476 94.3653C147.491 94.3091 147.506 94.2528 147.52 94.1965C147.521 94.1665 147.522 94.1325 147.522 94.0942C147.522 93.878 147.543 93.7803 147.585 93.8361C147.594 93.8524 147.603 93.8546 147.613 93.8434C147.631 93.7725 147.649 93.7014 147.668 93.6303C147.675 93.5758 147.683 93.5117 147.689 93.4384C147.717 93.1663 147.766 92.9431 147.807 92.9431C147.842 92.9431 147.87 92.8175 147.87 92.664C147.87 92.5105 147.905 92.385 147.94 92.385C147.982 92.385 148.009 92.2594 148.009 92.0989C148.009 91.9315 148.037 91.8338 148.079 91.8617C148.085 91.8657 148.091 91.8668 148.096 91.8653C148.113 91.7894 148.131 91.7133 148.148 91.6373C148.148 91.6199 148.149 91.6017 148.149 91.5826C148.149 91.4082 148.177 91.2757 148.211 91.2966C148.216 91.2993 148.22 91.2975 148.225 91.2917C148.251 91.1775 148.276 91.063 148.3 90.9486C148.309 90.8823 148.316 90.8091 148.323 90.7315C148.358 90.3408 148.392 90.1664 148.434 90.2292C148.44 90.2373 148.445 90.2425 148.449 90.2448C148.465 90.1698 148.48 90.0947 148.495 90.0196C148.496 89.9861 148.497 89.949 148.497 89.9082C148.497 89.6152 148.518 89.5176 148.567 89.5943C148.57 89.6004 148.574 89.6055 148.578 89.6094C148.597 89.5097 148.617 89.4099 148.636 89.31C148.636 89.3049 148.636 89.2996 148.636 89.2943C148.636 89.0431 148.664 88.9036 148.706 88.9315C148.707 88.932 148.707 88.9324 148.708 88.9328C148.731 88.8116 148.753 88.6902 148.776 88.5687C148.777 88.3614 148.804 88.2091 148.837 88.2264C148.883 87.971 148.927 87.7151 148.97 87.4588C148.979 87.3245 148.984 87.1876 148.984 87.0618C148.984 86.9013 149.012 86.8106 149.054 86.8385C149.06 86.8424 149.065 86.8429 149.07 86.8402C149.088 86.7279 149.106 86.6155 149.123 86.503C149.123 86.4831 149.124 86.4624 149.124 86.4408C149.124 86.1521 149.142 86.0423 149.185 86.0942C149.212 85.9117 149.238 85.729 149.264 85.5461C149.269 85.3165 149.289 85.1832 149.317 85.1638C149.427 84.3553 149.523 83.5428 149.607 82.7263C149.623 82.4928 149.642 82.305 149.659 82.1981C149.692 81.8484 149.723 81.4981 149.752 81.1471C149.755 80.8677 149.767 80.7097 149.789 80.6649C149.929 78.7944 150 76.9048 150 74.9986C150 61.2677 146.31 48.3986 139.868 37.3289C139.835 37.3645 139.798 37.405 139.757 37.4507C139.541 37.6949 139.234 37.953 139.046 38.0437C138.74 38.1902 138.622 38.2112 137.737 38.2042C136.7 38.2042 136.477 38.1693 134.436 37.6461C132.653 37.1856 131.832 37.053 130.808 37.053C129.979 37.053 129.805 37.074 129.352 37.2275C128.551 37.4995 128.05 37.9809 127.737 38.7833C127.597 39.146 127.576 39.3135 127.576 40.3042C127.569 41.1274 127.604 41.5879 127.702 42.0483C127.862 42.8507 128.252 44.232 128.391 44.4971C128.572 44.8529 129.074 45.2855 129.485 45.439C129.972 45.6274 131.045 45.6413 131.713 45.4739C132.73 45.2157 133.977 44.6018 134.541 44.0925C134.965 43.7018 135.258 43.5971 135.787 43.6599C137.312 43.8483 139.026 44.7971 140.53 46.3041C141.359 47.1343 141.783 47.6645 142.313 48.5296C142.828 49.3878 142.939 49.7436 142.912 50.4901C142.891 51.0412 142.863 51.1738 142.661 51.5645C142.118 52.611 141.303 53.3854 138.893 55.1296C134.896 58.0249 133.273 59.5807 131.985 61.7434C131.344 62.8248 131.017 63.2713 130.515 63.7527C130.007 64.2411 129.687 64.4504 129.102 64.6946C128.739 64.8411 128.572 64.862 127.848 64.862C126.762 64.862 126.281 64.7155 124.819 63.9551C124.289 63.676 122.938 62.7341 122.214 62.1411C121.873 61.8621 119.992 60.2714 119.665 59.9923C119.568 59.9086 119.338 59.7132 119.143 59.5598C117.722 58.4365 116.183 56.8179 114.922 55.1296C113.669 53.4412 113.481 53.1691 111.865 50.7343C110.786 49.1157 110.138 48.1669 109.323 47.0366C109.25 46.9371 109.032 46.6164 108.819 46.303L108.787 46.2553C107.896 44.9088 107.359 44.3925 106.865 44.3855C106.398 44.3855 105.716 44.9088 105.59 45.3832C105.451 45.9134 105.737 47.1762 106.363 48.7389C106.99 50.3157 107.408 51.2157 108.926 54.2226C109.63 55.6249 110.236 56.797 110.263 56.8389C110.291 56.8737 110.528 57.3133 110.786 57.8156C110.907 58.0493 111.046 58.3125 111.173 58.5539C111.315 58.8242 111.443 59.0672 111.517 59.2109C112.311 60.6969 113.244 62.5318 113.502 63.1179C114.177 64.6527 114.484 64.9946 115.849 65.762C116.984 66.3969 119.205 66.9829 121.441 67.2341C123.05 67.4155 123.858 67.6387 124.867 68.1899C126.42 69.0411 127.186 70.2061 127.2 71.734C127.2 72.355 127.082 72.7736 126.713 73.4712C126.476 73.9247 125.717 75.0549 125.466 75.327C125.397 75.4038 125.188 75.6549 125 75.8851C124.812 76.1154 123.997 76.9735 123.189 77.7898C121.97 79.0246 121.253 79.7153 119.275 81.5362C119.258 81.5506 119.198 81.6052 119.112 81.6843C118.988 81.7975 118.809 81.961 118.62 82.1293C118.432 82.2976 118.253 82.4612 118.129 82.5743C118.043 82.6534 117.983 82.7079 117.966 82.7223C117.949 82.7387 117.849 82.8311 117.692 82.9751C117.447 83.1989 117.067 83.5473 116.657 83.9292C114.86 85.5827 114.414 86.1129 114.191 86.8734C114.059 87.3269 114.038 89.5036 114.163 90.4524C114.205 90.7664 114.268 91.2757 114.303 91.5826C114.372 92.1687 114.616 93.8849 114.72 94.5477C115.166 97.3314 115.347 98.7198 115.347 99.4174C115.347 100.262 115.243 100.541 114.595 101.399C114.059 102.103 113.62 102.55 112.213 103.848C110.66 105.271 108.961 106.973 108.676 107.399C108.237 108.041 108.111 108.375 108.035 109.101C107.937 109.966 107.687 110.957 107.408 111.606C107.373 111.682 107.248 111.982 107.13 112.268C106.907 112.785 106.161 114.306 105.897 114.78C104.567 117.124 101.872 121.101 100.2 123.187C98.4939 125.308 97.3866 126.152 95.6316 126.661C94.1413 127.094 93.5284 127.157 90.8333 127.164H88.5003L88.0894 126.954C87.2397 126.522 86.6965 125.573 86.3065 123.843C86.0976 122.901 86.0489 122.678 85.9653 122.245C85.9519 122.183 85.9341 122.1 85.9131 122.002C85.8138 121.539 85.6439 120.747 85.5405 120.292C85.5241 120.229 85.4954 120.113 85.4609 119.973C85.422 119.815 85.3758 119.628 85.3315 119.454C85.1783 118.847 84.8928 117.668 84.6351 116.559C84.0292 113.985 83.5557 112.359 82.9637 110.88C82.3857 109.415 81.8146 108.445 80.9789 107.489C79.9621 106.331 79.6905 105.752 79.3284 104.001C79.217 103.443 79.217 100.52 79.3284 99.6058L79.3359 99.5483C79.4203 98.9047 79.4459 98.7087 79.6557 97.3733C79.6875 97.1712 79.7102 97.0263 79.7345 96.8817C79.8009 96.4871 79.8792 96.0946 80.185 94.5477C80.5611 92.6361 80.6586 91.9315 80.6655 91.0524C80.6655 89.992 80.4496 88.5687 80.1014 87.292C79.8438 86.385 79.1543 84.3688 78.8827 83.7478C78.82 83.6083 78.7434 83.4269 78.7155 83.3502C78.6598 83.2106 77.6709 80.8316 77.4829 80.3851C77.065 79.4014 76.5148 78.4107 76.1179 77.9433C75.3449 77.0223 74.1888 76.2898 73.0328 75.9968C71.3265 75.5572 69.4949 75.62 66.5282 76.2061C66.3541 76.241 65.9014 76.2968 65.5184 76.3386C65.0134 76.3836 64.5266 76.4376 63.2676 76.5773C62.9639 76.611 62.6151 76.6497 62.2104 76.6945C57.9343 77.1689 54.104 77.3503 52.0287 77.1828C49.9603 77.0154 49.6052 76.8758 47.7945 75.5503C45.6704 73.9875 44.8138 72.5363 44.2845 69.6061C44.0617 68.3783 43.999 67.3527 43.999 65.0016C43.999 62.4132 44.0965 60.9969 44.389 59.2807C44.6606 57.697 45.2177 55.6249 45.7261 54.2575C45.7668 54.1578 45.834 53.9698 45.9047 53.7718C45.9428 53.6651 45.982 53.5554 46.0186 53.4552C46.0521 53.3635 46.0856 53.2704 46.1168 53.1836C46.1829 52.9997 46.2387 52.8445 46.2623 52.7924C46.325 52.6459 47.2234 50.2668 47.4463 49.6529C47.6761 49.0389 48.0521 47.9297 48.3098 47.1343C49.3196 43.9878 50.7891 42.2297 54.0623 40.2553C54.3478 40.0809 55.3367 39.5228 56.256 39.0135C57.1753 38.5042 58.0597 37.9949 58.2199 37.8833C58.3801 37.7786 58.5263 37.6879 58.5542 37.6879C58.6308 37.6879 59.355 37.2065 60.7131 36.2577C62.2313 35.1972 62.9625 34.7926 63.9654 34.4577C65.8178 33.8368 67.4126 33.767 70.0451 34.1926C70.5326 34.2693 72.5662 34.66 72.9701 34.7577C73.2556 34.8205 73.7431 34.9112 74.5092 35.0368C74.739 35.0786 75.6165 35.1554 76.4591 35.2112C77.3018 35.267 78.1723 35.3577 78.3882 35.4135C79.0568 35.5879 79.7463 35.9996 80.2895 36.5368C80.9162 37.1507 81.1878 37.5763 82.0514 39.2786C83.2283 41.5809 83.5417 41.86 85.3315 42.1879C86.989 42.4948 87.5253 42.453 89.0295 41.9297L90.102 41.56L91.0422 41.5669C91.6063 41.5739 92.3932 41.6367 93.027 41.7274C95.7291 42.132 96.6971 42.2227 98.1944 42.2227C101.628 42.2227 104.253 41.2879 106.545 39.2437C107.833 38.0926 109.184 36.3763 109.692 35.2461C110.075 34.3949 110.159 34.0252 110.152 33.1182C110.145 32.3857 110.124 32.2182 109.957 31.7647C109.476 30.488 108.864 29.6648 106.524 27.2229C104.727 25.3462 104.393 24.9904 103.961 24.4671C103.306 23.6788 103.195 23.5602 102.603 22.9602C101.865 22.2137 101.544 22.0323 100.931 22.0253C100.332 22.0253 100.151 22.123 99.1067 23.016C97.6234 24.2857 97.0105 24.6346 95.6664 24.9834C95.2416 25.095 93.5354 25.0811 92.9225 24.9555C91.5993 24.6904 90.6731 24.3834 89.0922 23.6857C87.0587 22.7788 86.5363 22.5695 85.1923 22.13C83.4233 21.5509 82.8453 21.4323 81.7519 21.4323C79.9552 21.4323 79.2379 21.9276 77.3715 24.4322C75.2265 27.3206 74.1331 28.3601 72.2945 29.288C69.9964 30.4461 67.2664 31.095 63.9793 31.2694C62.0293 31.374 59.6406 31.2345 58.4497 30.9554C58.3806 30.9356 58.2519 30.9053 58.1207 30.8744C58.067 30.8618 58.0128 30.849 57.9622 30.8368C57.4051 30.7043 56.6112 30.4252 56.2072 30.2089C54.6055 29.3578 54.4174 27.5578 55.664 24.9904C56.0888 24.1113 56.7017 23.2532 57.5095 22.423C58.7701 21.1114 59.9609 20.4555 61.0682 20.4555C61.4095 20.4555 62.1825 20.323 62.6073 20.1904C63.1575 20.016 63.7286 19.6393 64.3066 19.0602C64.815 18.5579 64.9543 18.3626 65.2259 17.8044C65.7343 16.751 65.8387 16.2835 65.8805 14.944C65.9084 13.9533 65.8875 13.6812 65.7551 12.9905C65.4069 11.1766 65.5462 9.50916 66.2566 7.02547L66.2764 6.95823C66.3235 6.798 66.417 6.4804 66.5003 6.18827C66.8764 4.87665 67.5658 2.88831 68.3041 0.955776C68.4015 0.705283 68.4943 0.463894 68.5686 0.270508Z" fill="#0069CA"/>
</svg>
