<svg width="285" height="38" viewBox="0 0 285 38" fill="none" xmlns="http://www.w3.org/2000/svg">
<path d="M0 6.32609V12.6523H0.940449H1.8809V7.26653V1.88072H7.26671H12.6525V0.940276V-0.000172615H6.32626H0V6.32609Z" fill="#657788"/>
<path d="M38 31.6739V25.3477H37.0596H36.1191V30.7335V36.1193H30.7333H25.3475V37.0597V38.0002H31.6737H38V31.6739Z" fill="#657788"/>
<path d="M31.7606 19.069C31.7606 26.1062 26.0456 31.8109 18.9959 31.8109C11.9461 31.8109 6.2312 26.1062 6.2312 19.069C6.2312 12.0319 11.9461 6.32715 18.9959 6.32715C26.0456 6.32715 31.7606 12.0319 31.7606 19.069Z" fill="#80D2C8"/>
<path fill-rule="evenodd" clip-rule="evenodd" d="M17.9012 6.37305C11.4692 6.91836 6.39689 12.2247 6.23518 18.7475C6.23481 18.8242 6.23462 18.9104 6.23462 19.0058C6.23498 19.1902 6.23545 19.329 6.23631 19.4325C6.23889 19.5244 6.24245 19.6161 6.24697 19.7075C6.24824 19.7098 6.24965 19.7096 6.25121 19.7075C6.25951 19.6968 6.27136 19.6873 6.27729 19.6873C6.28322 19.6873 6.32351 19.7111 6.36737 19.7395C6.41123 19.7679 6.46812 19.7952 6.49182 19.7999C6.55583 19.8106 6.83793 19.8936 6.96356 19.9363C7.48153 20.1164 7.76718 20.2871 7.85845 20.4732C7.91179 20.5834 7.92957 20.6676 7.94142 20.8774C7.96157 21.214 7.96987 21.2673 8.01965 21.3479C8.07298 21.4333 8.12869 21.4558 8.33849 21.4771C8.52695 21.4961 8.63362 21.5328 8.95246 21.6916C9.32464 21.8766 9.41946 21.9062 9.67785 21.9204C10.0785 21.9429 10.3072 21.9785 10.619 22.065C11.08 22.1942 11.3918 22.3708 11.5091 22.5676C11.5221 22.5889 11.5257 22.6316 11.5257 22.7217C11.5245 22.8283 11.5186 22.8615 11.4866 22.9563C11.4131 23.1721 11.3052 23.3712 11.0231 23.8133C10.773 24.2033 10.7375 24.3064 10.6379 24.9026C10.5715 25.3032 10.5147 25.5177 10.4092 25.7678C10.2646 26.1092 10.0548 26.3723 9.92676 26.3723C9.7383 26.3723 9.36612 26.6319 9.20137 26.8784C9.11958 27.0005 9.09944 27.0479 9.11603 27.0799C9.12433 27.0953 9.13499 27.1072 9.14092 27.1072C9.14566 27.1072 9.1504 27.1131 9.1504 27.119C9.1504 27.1261 9.16226 27.1451 9.17766 27.1605C9.19189 27.1759 9.21796 27.2056 9.23574 27.2281C9.25352 27.2494 9.2796 27.2802 9.29264 27.2956C9.30567 27.3122 9.31397 27.3324 9.31041 27.3407C9.30804 27.3502 9.31041 27.3537 9.31634 27.3502C9.33175 27.3407 9.44791 27.464 9.4408 27.4829C9.43842 27.4924 9.44317 27.4948 9.45502 27.49C9.47043 27.4841 9.4728 27.4877 9.46687 27.5031C9.46213 27.5149 9.46332 27.5208 9.47043 27.5161C9.47754 27.5114 9.49058 27.5173 9.50124 27.5268C9.51073 27.5374 9.51665 27.5457 9.5131 27.5457C9.50954 27.5457 9.54036 27.5813 9.58303 27.6252C9.6257 27.6702 9.6577 27.7129 9.65415 27.7212C9.65059 27.7306 9.65415 27.733 9.66126 27.7283C9.66837 27.7235 9.72526 27.7745 9.79164 27.8432C9.85683 27.9108 9.91491 27.9713 9.92083 27.9784C9.93743 27.9938 10.0145 28.0708 10.0251 28.0815C10.0276 28.084 10.045 28.1007 10.0706 28.1253C10.094 28.1479 10.1244 28.1772 10.1567 28.2083C10.2254 28.2747 10.2764 28.3316 10.2717 28.3387C10.2669 28.3458 10.2693 28.3494 10.2788 28.3458C10.2871 28.3422 10.3298 28.3742 10.3748 28.4169C10.4186 28.4596 10.4542 28.4904 10.4542 28.4868C10.4542 28.4833 10.4625 28.4892 10.4732 28.4987C10.4827 28.5094 10.4886 28.5224 10.4838 28.5295C10.4791 28.5366 10.485 28.5378 10.4969 28.5331C10.5123 28.5271 10.5158 28.5295 10.5099 28.5449C10.5052 28.5568 10.5075 28.5615 10.517 28.5591C10.536 28.552 10.6593 28.6682 10.6498 28.6836C10.6462 28.6895 10.6498 28.6919 10.6593 28.6895C10.6676 28.686 10.6877 28.6943 10.7043 28.7073C10.7197 28.7203 10.7505 28.7464 10.7719 28.7642C10.7944 28.782 10.824 28.8081 10.8394 28.8223C10.8548 28.8377 10.8714 28.8495 10.875 28.8495C10.8785 28.8495 10.8939 28.8602 10.9082 28.8744C10.9224 28.8887 10.9532 28.9135 10.9757 28.9301C10.9983 28.9479 11.0362 28.9799 11.0587 29.0001C11.0812 29.0214 11.1037 29.0392 11.1097 29.0392C11.1144 29.0392 11.1346 29.0558 11.1559 29.0747C11.176 29.0949 11.1974 29.1103 11.2021 29.1103C11.2069 29.1103 11.2246 29.1233 11.2412 29.1399C11.2578 29.1565 11.2768 29.1696 11.2839 29.1696C11.2898 29.1696 11.2958 29.1731 11.2958 29.1779C11.2958 29.1838 11.3159 29.2004 11.3396 29.217C11.3633 29.2336 11.3953 29.2585 11.4095 29.2727C11.425 29.2881 11.4427 29.2999 11.4498 29.2999C11.4558 29.2999 11.4617 29.3059 11.4617 29.313C11.4617 29.3189 11.4664 29.3225 11.4724 29.3189C11.4771 29.3154 11.4913 29.3225 11.5032 29.3355C11.515 29.3485 11.5316 29.3592 11.5411 29.3592C11.5506 29.3592 11.5541 29.364 11.5506 29.3711C11.547 29.3782 11.5518 29.3829 11.5613 29.3829C11.5719 29.3829 11.5802 29.3877 11.5802 29.3948C11.5802 29.4007 11.5885 29.4066 11.598 29.4066C11.6075 29.4066 11.6276 29.4197 11.6442 29.4363C11.6608 29.4528 11.6798 29.4659 11.6869 29.4659C11.6928 29.4659 11.6987 29.4706 11.6987 29.4777C11.6987 29.4837 11.707 29.4896 11.7165 29.4896C11.726 29.4896 11.7343 29.4931 11.7343 29.4979C11.7343 29.5038 11.7616 29.5228 11.7936 29.5429C11.8268 29.5619 11.8528 29.582 11.8528 29.5868C11.8528 29.5915 11.8611 29.5963 11.8706 29.5963C11.8801 29.5963 11.8884 29.601 11.8884 29.6057C11.8884 29.6117 11.9097 29.6259 11.9358 29.6389C11.9619 29.6508 11.9832 29.665 11.9832 29.6698C11.9832 29.6757 11.9891 29.6792 11.9951 29.6792C12.0022 29.6792 12.0176 29.6887 12.0306 29.6994C12.0425 29.7112 12.0733 29.7314 12.0982 29.7444C12.1231 29.7575 12.1515 29.7764 12.161 29.7859C12.1705 29.7954 12.2013 29.8144 12.2286 29.8274C12.257 29.8404 12.2795 29.8547 12.2795 29.8594C12.2795 29.8653 12.2878 29.8689 12.2973 29.8689C12.3068 29.8689 12.3151 29.8736 12.3151 29.8807C12.3151 29.8867 12.3234 29.8926 12.3341 29.8926C12.3435 29.8926 12.3483 29.8973 12.3447 29.9044C12.3412 29.9104 12.3459 29.9163 12.3566 29.9163C12.3661 29.9163 12.3957 29.9293 12.4218 29.9459C12.4478 29.9625 12.4739 29.9756 12.481 29.9756C12.487 29.9756 12.4929 29.9803 12.4929 29.9874C12.4929 29.9933 12.5012 29.9993 12.5107 29.9993C12.5201 29.9993 12.5284 30.0028 12.5284 30.0076C12.5284 30.0135 12.5522 30.0277 12.5818 30.0407C12.6114 30.0538 12.6351 30.068 12.6351 30.0727C12.6351 30.0787 12.6434 30.0822 12.6529 30.0822C12.6624 30.0822 12.6707 30.087 12.6707 30.0941C12.6707 30.1 12.679 30.1059 12.6885 30.1059C12.6979 30.1059 12.7062 30.1107 12.7062 30.1178C12.7062 30.1237 12.7145 30.1296 12.7252 30.1296C12.7465 30.1296 12.8165 30.1664 12.8224 30.1794C12.8248 30.1854 12.8342 30.1889 12.8437 30.1889C12.8532 30.1889 12.8603 30.1925 12.8603 30.1984C12.8603 30.2079 12.9468 30.2482 12.967 30.2482C12.9741 30.2482 12.9788 30.2529 12.9788 30.26C12.9788 30.2659 12.9871 30.2719 12.9966 30.2719C13.0061 30.2719 13.0144 30.2766 13.0144 30.2837C13.0144 30.2897 13.0251 30.2956 13.0381 30.2956C13.0512 30.2956 13.0618 30.3003 13.0618 30.3074C13.0618 30.3134 13.0701 30.3193 13.0796 30.3193C13.0891 30.3193 13.0974 30.324 13.0974 30.3311C13.0974 30.3371 13.1057 30.343 13.1152 30.343C13.1353 30.343 13.255 30.4034 13.2609 30.4165C13.2633 30.4224 13.2752 30.426 13.2882 30.426C13.3001 30.426 13.3107 30.4319 13.3107 30.439C13.3107 30.4449 13.3155 30.4485 13.3202 30.4449C13.3261 30.4414 13.3475 30.4497 13.3676 30.4627C13.389 30.4746 13.4138 30.4852 13.4233 30.4852C13.4328 30.4852 13.4411 30.49 13.4411 30.4971C13.4411 30.503 13.453 30.5089 13.4672 30.5089C13.4814 30.5089 13.4885 30.5125 13.485 30.5172C13.4767 30.5243 13.5371 30.5516 13.5928 30.5646C13.607 30.5682 13.6189 30.5753 13.6189 30.5812C13.6189 30.5872 13.6296 30.5919 13.6426 30.5919C13.6556 30.5919 13.6663 30.5966 13.6663 30.6038C13.6663 30.6097 13.677 30.6156 13.69 30.6156C13.7031 30.6156 13.7137 30.6203 13.7137 30.6275C13.7137 30.6334 13.722 30.6393 13.7315 30.6393C13.741 30.6393 13.7765 30.6523 13.8109 30.6689C13.8441 30.6855 13.8797 30.6986 13.888 30.6986C13.8974 30.6986 13.901 30.7033 13.8974 30.7104C13.8927 30.7175 13.9034 30.7223 13.92 30.7223C13.9366 30.7223 13.9508 30.727 13.9508 30.7341C13.9508 30.7401 13.9591 30.746 13.9697 30.746C13.9875 30.746 14.048 30.7697 14.0954 30.7946C14.1072 30.8005 14.125 30.8053 14.1345 30.8053C14.144 30.8053 14.1523 30.81 14.1523 30.8171C14.1523 30.823 14.1665 30.829 14.1831 30.829C14.1997 30.829 14.2104 30.8337 14.2056 30.8408C14.2021 30.8479 14.2104 30.8527 14.2258 30.8527C14.2412 30.8527 14.2684 30.861 14.2874 30.8704C14.3052 30.8799 14.3313 30.8882 14.3431 30.8882C14.3561 30.8882 14.3656 30.893 14.3656 30.9001C14.3656 30.906 14.3798 30.9119 14.3964 30.9119C14.413 30.9119 14.4237 30.9167 14.419 30.9238C14.4142 30.9309 14.4249 30.9356 14.4415 30.9356C14.4581 30.9356 14.4723 30.9404 14.4723 30.9463C14.4723 30.9522 14.4936 30.9593 14.5197 30.9641C14.547 30.9676 14.579 30.9771 14.5908 30.983C14.5973 30.9866 14.6059 30.9907 14.6145 30.9949C14.6231 30.999 14.6317 31.0032 14.6382 31.0067C14.6513 31.0127 14.6726 31.0186 14.6856 31.0186C14.6999 31.0186 14.707 31.0233 14.7034 31.0305C14.6987 31.0376 14.7117 31.0423 14.7319 31.0423C14.752 31.0423 14.7686 31.047 14.7686 31.053C14.7686 31.0589 14.7923 31.0672 14.822 31.0708C14.8504 31.0755 14.8777 31.0838 14.8812 31.0909C14.886 31.0968 14.9014 31.1016 14.918 31.1016C14.9334 31.1016 14.9464 31.1063 14.9464 31.1134C14.9464 31.1193 14.963 31.1253 14.982 31.1253C15.0021 31.1253 15.0175 31.13 15.0175 31.1371C15.0175 31.1431 15.0341 31.149 15.0531 31.149C15.0732 31.149 15.0886 31.1537 15.0886 31.1596C15.0886 31.1656 15.1159 31.1739 15.1479 31.1786C15.1811 31.1834 15.2072 31.1917 15.2072 31.1976C15.2072 31.2035 15.2238 31.2082 15.2427 31.2082C15.2629 31.2082 15.2783 31.213 15.2783 31.2201C15.2783 31.226 15.2973 31.232 15.321 31.232C15.3458 31.232 15.3601 31.2367 15.3553 31.2438C15.3506 31.2509 15.3636 31.2557 15.3873 31.2557C15.4087 31.2568 15.4478 31.264 15.4739 31.2734C15.4999 31.2829 15.5331 31.2912 15.5485 31.2912C15.5628 31.2912 15.5746 31.296 15.5746 31.3031C15.5746 31.309 15.5936 31.3149 15.6161 31.3149C15.6386 31.3149 15.6576 31.3197 15.6576 31.3268C15.6576 31.3327 15.6765 31.3386 15.7002 31.3386C15.7228 31.3386 15.7394 31.3434 15.7358 31.3493C15.7322 31.3552 15.7631 31.3635 15.8057 31.3683C15.8484 31.3718 15.8851 31.3813 15.8887 31.3872C15.8934 31.3931 15.9136 31.3979 15.9361 31.3979C15.9586 31.3979 15.98 31.4026 15.9835 31.4097C15.9871 31.4157 16.0096 31.4216 16.0321 31.4216C16.0546 31.4216 16.0724 31.4263 16.0724 31.4334C16.0724 31.4394 16.0938 31.4453 16.1198 31.4453C16.1459 31.4453 16.1672 31.45 16.1672 31.456C16.1672 31.4619 16.2099 31.4702 16.2621 31.4749C16.3142 31.4797 16.3569 31.488 16.3569 31.4939C16.3569 31.4998 16.3806 31.5046 16.4102 31.5046C16.4399 31.5046 16.4636 31.5093 16.4636 31.5164C16.4636 31.5223 16.4873 31.5283 16.5169 31.5283C16.5465 31.5283 16.5702 31.533 16.5702 31.5401C16.5702 31.546 16.5975 31.552 16.6307 31.552C16.6627 31.552 16.6876 31.5567 16.684 31.5626C16.6805 31.5686 16.7326 31.5769 16.8014 31.5816C16.8701 31.5863 16.9294 31.5946 16.9329 31.6006C16.9365 31.6065 16.9649 31.6112 16.9981 31.6112C17.0301 31.6112 17.0562 31.616 17.0562 31.6231C17.0562 31.6302 17.0894 31.6349 17.1332 31.6349C17.1771 31.6349 17.2103 31.6397 17.2103 31.6468C17.2103 31.6539 17.2435 31.6587 17.2873 31.6587C17.33 31.6587 17.3644 31.6634 17.3644 31.6693C17.3644 31.6752 17.4473 31.6835 17.5481 31.6883C17.6488 31.693 17.7354 31.7013 17.7389 31.7072C17.7425 31.7132 17.7982 31.7179 17.8634 31.7179C17.9333 31.7179 17.9807 31.7227 17.9807 31.7298C17.9807 31.7369 18.0447 31.7416 18.1502 31.7416C18.2628 31.7416 18.3126 31.7452 18.3007 31.7535C18.2889 31.7606 18.5331 31.7653 19.0001 31.7653C19.4671 31.7653 19.7112 31.7606 19.6994 31.7535C19.6875 31.7452 19.7373 31.7416 19.8511 31.7416C19.9554 31.7416 20.0194 31.7369 20.0194 31.7298C20.0194 31.7227 20.0668 31.7179 20.1367 31.7179C20.2019 31.7179 20.2576 31.7132 20.2612 31.7072C20.2648 31.7013 20.3513 31.693 20.452 31.6883C20.5528 31.6835 20.6357 31.6752 20.6357 31.6693C20.6357 31.6634 20.6701 31.6587 20.7128 31.6587C20.7566 31.6587 20.7898 31.6539 20.7898 31.6468C20.7898 31.6397 20.823 31.6349 20.8669 31.6349C20.9107 31.6349 20.9439 31.6302 20.9439 31.6231C20.9439 31.616 20.97 31.6112 21.002 31.6112C21.0352 31.6112 21.0636 31.6065 21.0672 31.6006C21.0707 31.5946 21.13 31.5863 21.1987 31.5816C21.2675 31.5769 21.3196 31.5686 21.3161 31.5626C21.3125 31.5567 21.3374 31.552 21.3694 31.552C21.4026 31.552 21.4299 31.546 21.4299 31.5401C21.4299 31.533 21.4536 31.5283 21.4832 31.5283C21.5128 31.5283 21.5366 31.5223 21.5366 31.5164C21.5366 31.5093 21.5603 31.5046 21.5899 31.5046C21.6195 31.5046 21.6432 31.4998 21.6432 31.4939C21.6432 31.488 21.6859 31.4797 21.7381 31.4749C21.7902 31.4702 21.8329 31.4619 21.8329 31.456C21.8329 31.45 21.8578 31.4453 21.8874 31.4453C21.9194 31.4453 21.9384 31.4406 21.9336 31.4334C21.9289 31.4263 21.9431 31.4216 21.968 31.4216C21.9905 31.4216 22.013 31.4157 22.0166 31.4097C22.0201 31.4026 22.0415 31.3979 22.064 31.3979C22.0865 31.3979 22.1067 31.3931 22.1114 31.3872C22.115 31.3813 22.1517 31.3718 22.1944 31.3683C22.2371 31.3635 22.2679 31.3552 22.2643 31.3493C22.2608 31.3434 22.2774 31.3386 22.2999 31.3386C22.3236 31.3386 22.3425 31.3327 22.3425 31.3268C22.3425 31.3197 22.3615 31.3149 22.384 31.3149C22.4065 31.3149 22.4255 31.309 22.4255 31.3031C22.4255 31.296 22.4374 31.2912 22.4528 31.2912C22.467 31.2912 22.5002 31.2829 22.5263 31.2734C22.5523 31.264 22.5915 31.2568 22.6128 31.2557C22.6365 31.2557 22.6495 31.2509 22.6448 31.2438C22.64 31.2367 22.6543 31.232 22.6792 31.232C22.7029 31.232 22.7218 31.226 22.7218 31.2201C22.7218 31.213 22.7384 31.2082 22.7574 31.2082C22.7775 31.2082 22.7929 31.2035 22.7929 31.1976C22.7929 31.1893 22.838 31.1774 22.902 31.1679C22.9056 31.1668 22.9138 31.1632 22.9186 31.1585C22.9233 31.1525 22.9399 31.149 22.9553 31.149C22.9707 31.149 22.9826 31.1431 22.9826 31.1371C22.9826 31.13 22.9992 31.1253 23.0182 31.1253C23.0383 31.1253 23.0537 31.1193 23.0537 31.1134C23.0537 31.1063 23.0667 31.1016 23.0822 31.1016C23.0987 31.1016 23.1142 31.0968 23.1189 31.0909C23.1225 31.0838 23.1497 31.0755 23.1782 31.0708C23.2078 31.0672 23.2315 31.0589 23.2315 31.053C23.2315 31.047 23.2481 31.0423 23.2682 31.0423C23.2884 31.0423 23.3014 31.0376 23.2967 31.0305C23.292 31.0233 23.305 31.0186 23.3251 31.0186C23.3453 31.0186 23.3619 31.0127 23.3619 31.0067C23.3619 30.9996 23.3725 30.9949 23.3844 30.9949C23.3974 30.9949 23.4105 30.9902 23.4152 30.9842C23.4188 30.9771 23.446 30.9688 23.4745 30.9641C23.5041 30.9605 23.5278 30.9522 23.5278 30.9463C23.5278 30.9404 23.542 30.9356 23.5586 30.9356C23.5752 30.9356 23.5859 30.9309 23.5812 30.9238C23.5764 30.9167 23.5871 30.9119 23.6037 30.9119C23.6203 30.9119 23.6345 30.906 23.6345 30.9001C23.6345 30.893 23.644 30.8882 23.657 30.8882C23.6689 30.8882 23.6949 30.8799 23.7127 30.8704C23.7317 30.861 23.7589 30.8527 23.7744 30.8527C23.7898 30.8527 23.7981 30.8479 23.7945 30.8408C23.7898 30.8337 23.8004 30.829 23.817 30.829C23.8336 30.829 23.8478 30.823 23.8478 30.8171C23.8478 30.81 23.8561 30.8053 23.8656 30.8053C23.8751 30.8053 23.8929 30.8005 23.9047 30.7946C23.9522 30.7697 24.0126 30.746 24.0304 30.746C24.041 30.746 24.0493 30.7401 24.0493 30.7341C24.0493 30.727 24.0624 30.7223 24.0778 30.7223C24.0932 30.7223 24.1086 30.7175 24.111 30.7128C24.1169 30.6986 24.2485 30.6393 24.2745 30.6393C24.2876 30.6393 24.2983 30.6334 24.2983 30.6275C24.2983 30.6203 24.3089 30.6156 24.3231 30.6156C24.3362 30.6156 24.3433 30.6109 24.3397 30.6038C24.3362 30.5966 24.3433 30.5919 24.3563 30.5919C24.3706 30.5919 24.3812 30.5872 24.3812 30.5812C24.3812 30.5753 24.3931 30.5682 24.4085 30.5646C24.463 30.5516 24.5235 30.5243 24.5152 30.5172C24.5116 30.5125 24.5187 30.5089 24.5329 30.5089C24.5472 30.5089 24.559 30.503 24.559 30.4971C24.559 30.49 24.5673 30.4852 24.5768 30.4852C24.5863 30.4852 24.6112 30.4746 24.6325 30.4627C24.6526 30.4497 24.674 30.4414 24.6799 30.4449C24.6847 30.4485 24.6894 30.4449 24.6894 30.439C24.6894 30.4319 24.7001 30.426 24.7119 30.426C24.725 30.426 24.7368 30.4224 24.7392 30.4165C24.7451 30.4034 24.8648 30.343 24.885 30.343C24.8944 30.343 24.9027 30.3371 24.9027 30.3311C24.9027 30.324 24.911 30.3193 24.9205 30.3193C24.93 30.3193 24.9383 30.3134 24.9383 30.3074C24.9383 30.3003 24.949 30.2956 24.962 30.2956C24.975 30.2956 24.9857 30.2897 24.9857 30.2837C24.9857 30.2766 24.994 30.2719 25.0035 30.2719C25.013 30.2719 25.0213 30.2671 25.0213 30.2612C25.0213 30.2553 25.0367 30.247 25.0568 30.2422C25.0758 30.2375 25.0948 30.2292 25.0983 30.2233C25.1031 30.2174 25.1161 30.2126 25.1291 30.2126C25.1422 30.2126 25.1493 30.2079 25.1457 30.2008C25.1422 30.1948 25.1469 30.1889 25.1564 30.1889C25.1671 30.1889 25.1754 30.1842 25.1754 30.1794C25.1754 30.1747 25.2026 30.1605 25.2346 30.1474C25.2678 30.1344 25.2939 30.1202 25.2939 30.1154C25.2939 30.1107 25.3046 30.1059 25.3188 30.1059C25.3318 30.1059 25.3389 30.1 25.3354 30.0941C25.3318 30.087 25.3366 30.0822 25.346 30.0822C25.3567 30.0822 25.365 30.0787 25.365 30.0727C25.365 30.068 25.3887 30.0538 25.4183 30.0407C25.448 30.0277 25.4717 30.0135 25.4717 30.0076C25.4717 30.0028 25.48 29.9993 25.4895 29.9993C25.4989 29.9993 25.5072 29.9933 25.5072 29.9874C25.5072 29.9803 25.5179 29.9756 25.5309 29.9756C25.544 29.9756 25.5546 29.972 25.5546 29.9661C25.5546 29.9554 25.6222 29.9163 25.6424 29.9163C25.6495 29.9163 25.6637 29.9056 25.6732 29.8926C25.6827 29.8795 25.6969 29.8689 25.7052 29.8689C25.7135 29.8689 25.7206 29.8641 25.7206 29.8582C25.7206 29.8487 25.7644 29.8298 25.7834 29.8321C25.7881 29.8333 25.7917 29.8274 25.7917 29.8215C25.7917 29.8144 25.7976 29.8096 25.8047 29.8096C25.813 29.8096 25.8273 29.8001 25.8379 29.7883C25.8486 29.7776 25.8782 29.7575 25.9043 29.7444C25.9304 29.7314 25.96 29.7112 25.9707 29.6994C25.9813 29.6887 25.9956 29.6792 26.0039 29.6792C26.011 29.6792 26.0169 29.6757 26.0169 29.6698C26.0169 29.665 26.0382 29.6508 26.0643 29.6389C26.0904 29.6259 26.1117 29.6117 26.1117 29.6057C26.1117 29.601 26.1177 29.5963 26.1236 29.5963C26.1307 29.5963 26.1473 29.5868 26.1603 29.5737C26.1734 29.5619 26.2042 29.5417 26.2279 29.5299C26.2516 29.5169 26.28 29.4979 26.2907 29.486C26.3014 29.4754 26.3144 29.4659 26.3203 29.4659C26.3263 29.4659 26.3393 29.4552 26.3488 29.4434C26.3571 29.4303 26.3689 29.422 26.3749 29.4256C26.3796 29.4291 26.3843 29.4256 26.3843 29.4197C26.3843 29.4125 26.3926 29.4066 26.4021 29.4066C26.4116 29.4066 26.4199 29.4007 26.4199 29.3948C26.4199 29.3877 26.4282 29.3829 26.4389 29.3829C26.4483 29.3829 26.4531 29.377 26.4495 29.3711C26.446 29.364 26.4495 29.3592 26.459 29.3592C26.4673 29.3592 26.4863 29.3485 26.4993 29.3367C26.5135 29.3237 26.5278 29.3165 26.5313 29.3201C26.5349 29.3248 26.5384 29.3213 26.5384 29.3142C26.5384 29.3059 26.5444 29.2999 26.5503 29.2999C26.5574 29.2999 26.5787 29.2845 26.6001 29.2644C26.6202 29.2454 26.6415 29.2288 26.6463 29.2288C26.651 29.2288 26.6688 29.2158 26.6854 29.1992C26.702 29.1826 26.7186 29.1696 26.7221 29.1696C26.7257 29.1696 26.7423 29.1565 26.7589 29.1399C26.7755 29.1233 26.7933 29.1103 26.798 29.1103C26.8027 29.1103 26.8241 29.0937 26.8442 29.0747C26.8656 29.0546 26.8857 29.0392 26.8905 29.0392C26.8964 29.0392 26.9236 29.0179 26.9509 28.9918C26.9793 28.9657 27.0066 28.9444 27.0102 28.9444C27.0149 28.9444 27.041 28.923 27.0694 28.897C27.0967 28.8709 27.1216 28.8495 27.1251 28.8495C27.1287 28.8495 27.1453 28.8377 27.1607 28.8223C27.1761 28.8081 27.2057 28.782 27.2283 28.7642C27.2495 28.7465 27.2801 28.7206 27.2956 28.7075L27.2958 28.7073C27.3124 28.6943 27.3326 28.686 27.3409 28.6895C27.3503 28.6919 27.3539 28.6895 27.3503 28.6836C27.342 28.6694 27.4606 28.558 27.4819 28.5603C27.4902 28.5615 27.4938 28.5544 27.489 28.5437C27.4843 28.5307 27.4878 28.5271 27.5032 28.5331C27.5151 28.5378 27.521 28.5366 27.5163 28.5295C27.508 28.5153 27.54 28.4797 27.5507 28.4904C27.5542 28.4951 27.5578 28.4916 27.5578 28.4845C27.5578 28.4762 27.5637 28.4703 27.5708 28.4703C27.5779 28.4703 27.6052 28.4465 27.6324 28.4169C27.6585 28.3873 27.687 28.3648 27.6953 28.3683C27.7059 28.3719 27.7083 28.3683 27.7036 28.3553C27.6976 28.3411 27.7012 28.3375 27.7154 28.3434C27.7296 28.3482 27.732 28.3458 27.7273 28.3316C27.7213 28.3162 27.7249 28.3138 27.7403 28.3197C27.7533 28.3245 27.7581 28.3233 27.7521 28.315C27.7462 28.3055 27.8813 28.1645 27.975 28.0839C27.9833 28.0767 27.9987 28.059 28.0082 28.0459C28.02 28.027 28.0271 28.0246 28.0342 28.0353C28.0402 28.0447 28.0437 28.04 28.0437 28.0222C28.0437 28.0068 28.0485 27.9973 28.0532 28.0009C28.0591 28.0044 28.071 27.9961 28.0805 27.9819C28.1125 27.9357 28.1587 27.8907 28.167 27.8978C28.1706 27.9013 28.1741 27.8989 28.1741 27.8907C28.1741 27.8681 28.3009 27.7437 28.3152 27.752C28.3235 27.7579 28.3246 27.7532 28.3199 27.7401C28.314 27.7247 28.3163 27.7212 28.3318 27.7271C28.346 27.7318 28.3483 27.7295 28.3436 27.7152C28.3377 27.701 28.3412 27.6975 28.3555 27.7034C28.3685 27.7081 28.3721 27.7057 28.3685 27.6951C28.3649 27.6856 28.3756 27.6678 28.3922 27.6548C28.4088 27.6417 28.423 27.6252 28.423 27.6169C28.423 27.6097 28.4289 27.6074 28.4349 27.6109C28.442 27.6145 28.4467 27.6121 28.4467 27.6038C28.4467 27.5967 28.4586 27.5801 28.4728 27.5683C28.4858 27.5552 28.4941 27.5457 28.4894 27.5457C28.4847 27.5457 28.4894 27.5374 28.4989 27.5268C28.5095 27.5173 28.5226 27.5114 28.5297 27.5161C28.5368 27.5208 28.538 27.5149 28.5332 27.5031C28.5273 27.4865 28.5297 27.4841 28.5463 27.49C28.5593 27.4948 28.5641 27.4936 28.5593 27.4853C28.5546 27.4794 28.5653 27.4604 28.5818 27.445C28.5984 27.4296 28.6127 27.4106 28.6127 27.4035C28.6127 27.3964 28.6186 27.394 28.6245 27.3976C28.6316 27.4011 28.6364 27.3988 28.6364 27.3917C28.6364 27.3715 28.6696 27.3419 28.6838 27.3502C28.6897 27.3537 28.6921 27.3502 28.6885 27.3407C28.685 27.3312 28.6956 27.3099 28.7122 27.2933C28.7288 27.2755 28.743 27.2589 28.743 27.2553C28.743 27.2518 28.7549 27.2364 28.7703 27.221C28.7845 27.2056 28.8035 27.1819 28.813 27.1688C28.8225 27.1546 28.8343 27.1463 28.8402 27.1499C28.845 27.1534 28.8497 27.1439 28.8497 27.1285C28.8497 27.1072 28.8521 27.1048 28.8616 27.119C28.8711 27.1344 28.8734 27.1333 28.8734 27.1143C28.8734 27.1024 28.8865 27.0799 28.9031 27.0645C28.9197 27.0491 28.9327 27.0313 28.9327 27.0242C28.9327 27.0171 28.9386 27.0147 28.9445 27.0183C28.9517 27.0218 28.9564 27.0147 28.9564 27.0005C28.9564 26.9863 28.9623 26.9792 28.9682 26.9827C28.9754 26.9863 28.9801 26.9815 28.9801 26.9721C28.9801 26.9626 28.9931 26.9448 29.0097 26.9318C29.0263 26.9187 29.0394 26.8998 29.0394 26.8879C29.0394 26.8772 29.0453 26.8725 29.0512 26.8761C29.0583 26.8796 29.0631 26.8749 29.0631 26.863C29.0631 26.8476 29.0666 26.8464 29.0797 26.8571C29.0939 26.8689 29.0951 26.8666 29.0903 26.8476C29.0868 26.831 29.0903 26.8203 29.1034 26.8156C29.114 26.812 29.1223 26.8002 29.1223 26.7907C29.1223 26.7694 29.152 26.7386 29.1626 26.748C29.1662 26.7528 29.1697 26.7433 29.1697 26.7291C29.1697 26.7149 29.1745 26.7066 29.1816 26.7101C29.1887 26.7137 29.1934 26.7113 29.1934 26.7042C29.1934 26.684 29.2361 26.6319 29.2456 26.6414C29.2492 26.6449 29.2527 26.639 29.2527 26.626C29.2527 26.6129 29.2634 26.5951 29.2764 26.5857C29.2895 26.5762 29.3001 26.562 29.3001 26.5537C29.3001 26.5454 29.306 26.5382 29.3132 26.5382C29.3191 26.5382 29.3226 26.5335 29.3191 26.5288C29.3155 26.5228 29.3238 26.511 29.3369 26.5027C29.3487 26.4932 29.3594 26.4754 29.3594 26.4636C29.3594 26.4517 29.3653 26.4458 29.3712 26.4494C29.3784 26.4529 29.3831 26.4482 29.3831 26.4363C29.3831 26.4209 29.3867 26.4197 29.3997 26.4304C29.4127 26.4411 29.4139 26.4387 29.4104 26.415C29.4068 26.396 29.4139 26.3782 29.4352 26.3569C29.4518 26.3403 29.4661 26.3202 29.4661 26.313C29.4661 26.3071 29.472 26.3012 29.4779 26.3012C29.485 26.3012 29.4898 26.2929 29.4898 26.2822C29.4898 26.2727 29.4945 26.2668 29.5004 26.2704C29.5064 26.2739 29.5147 26.2645 29.5182 26.2479C29.523 26.2313 29.5313 26.2182 29.5372 26.2182C29.5443 26.2182 29.549 26.2099 29.549 26.1993C29.549 26.1898 29.555 26.185 29.5609 26.1886C29.568 26.1922 29.5727 26.185 29.5727 26.172C29.5727 26.1578 29.5787 26.1471 29.5846 26.1471C29.5917 26.1471 29.5964 26.1388 29.5964 26.1281C29.5964 26.1187 29.6012 26.1127 29.6071 26.1163C29.613 26.1198 29.6213 26.1104 29.6249 26.0938C29.6296 26.0772 29.6379 26.0641 29.6439 26.0641C29.651 26.0641 29.6557 26.0535 29.6557 26.0392C29.6557 26.0262 29.6616 26.0191 29.6676 26.0227C29.6747 26.0262 29.6794 26.0179 29.6794 26.0025C29.6794 25.9812 29.6818 25.9788 29.6913 25.993C29.7007 26.0072 29.7031 26.0061 29.7031 25.9859C29.7031 25.9717 29.7114 25.9539 29.7209 25.9456C29.7304 25.9373 29.7387 25.9231 29.7387 25.9136C29.7387 25.9029 29.7458 25.8982 29.7541 25.9018C29.7659 25.9065 29.7695 25.8994 29.7659 25.8769C29.7612 25.852 29.7636 25.8484 29.773 25.8626C29.7837 25.8769 29.7861 25.8757 29.7861 25.8532C29.7861 25.8389 29.7908 25.8271 29.7968 25.8271C29.8027 25.8271 29.811 25.814 29.8145 25.7975C29.8193 25.7809 29.8276 25.7678 29.8335 25.7678C29.8406 25.7678 29.8454 25.7572 29.8454 25.7441C29.8454 25.7311 29.8513 25.7204 29.8572 25.7204C29.8643 25.7204 29.8691 25.7121 29.8691 25.7014C29.8691 25.692 29.875 25.6872 29.8809 25.6908C29.888 25.6943 29.8928 25.6872 29.8928 25.673C29.8928 25.6588 29.8987 25.6517 29.9046 25.6552C29.9117 25.6588 29.9165 25.6517 29.9165 25.6374C29.9165 25.6244 29.9248 25.6102 29.9342 25.6066C29.9437 25.6019 29.952 25.5888 29.952 25.577C29.952 25.5651 29.958 25.5545 29.9639 25.5545C29.971 25.5545 29.9757 25.5438 29.9757 25.5296C29.9757 25.5165 29.9817 25.5094 29.9876 25.513C29.9947 25.5165 29.9994 25.5094 29.9994 25.4952C29.9994 25.481 30.0054 25.4739 30.0113 25.4774C30.0184 25.481 30.0231 25.4739 30.0231 25.4608C30.0231 25.4478 30.0314 25.43 30.0409 25.4193C30.0504 25.4099 30.0587 25.3921 30.0587 25.3802C30.0587 25.3625 30.0611 25.3613 30.0706 25.3767C30.08 25.3909 30.0824 25.3873 30.0824 25.3613C30.0824 25.3423 30.0871 25.3305 30.0943 25.3352C30.1014 25.3387 30.1061 25.3316 30.1061 25.3186C30.1061 25.3044 30.112 25.2937 30.118 25.2937C30.1251 25.2937 30.1298 25.283 30.1298 25.2712C30.1298 25.2582 30.1381 25.2404 30.1476 25.2297C30.1571 25.2202 30.1654 25.2036 30.1654 25.193C30.1654 25.1823 30.1713 25.1776 30.1772 25.1811C30.1843 25.1847 30.1891 25.1776 30.1891 25.1633C30.1891 25.1491 30.195 25.142 30.2009 25.1455C30.208 25.1491 30.2128 25.142 30.2128 25.129C30.2128 25.1147 30.2175 25.1041 30.2235 25.1041C30.2294 25.1041 30.2377 25.0851 30.2412 25.0626C30.246 25.0401 30.2543 25.0211 30.2602 25.0211C30.2673 25.0211 30.272 25.0128 30.272 25.0033C30.272 24.9938 30.278 24.9855 30.2839 24.9855C30.291 24.9855 30.2958 24.9749 30.2958 24.9606C30.2958 24.9476 30.3017 24.9405 30.3076 24.9441C30.3147 24.9476 30.3195 24.9429 30.3195 24.9322C30.3195 24.9215 30.3278 24.9049 30.3372 24.8955C30.3467 24.8848 30.355 24.867 30.355 24.854C30.355 24.8421 30.3609 24.8315 30.3669 24.8315C30.374 24.8315 30.3787 24.8208 30.3787 24.8077C30.3787 24.7947 30.3847 24.784 30.3906 24.784C30.3977 24.784 30.4024 24.7734 30.4024 24.7591C30.4024 24.7461 30.4084 24.739 30.4143 24.7426C30.4214 24.7473 30.4261 24.7366 30.4261 24.72C30.4261 24.7034 30.4321 24.6892 30.4392 24.6892C30.4451 24.6892 30.4475 24.6845 30.4439 24.6774C30.4404 24.6703 30.4427 24.6655 30.4487 24.6655C30.4558 24.6655 30.4617 24.6548 30.4617 24.6418C30.4617 24.6288 30.4676 24.6181 30.4735 24.6181C30.4807 24.6181 30.4854 24.6039 30.4854 24.5849C30.4854 24.56 30.4878 24.5565 30.4973 24.5707C30.5056 24.5837 30.5091 24.5778 30.5091 24.547C30.5091 24.5162 30.5127 24.5102 30.521 24.5233C30.5304 24.5375 30.5328 24.5339 30.5328 24.5091C30.5328 24.4913 30.5411 24.4699 30.5506 24.4593C30.5613 24.4498 30.5696 24.4379 30.5684 24.4344C30.566 24.3976 30.5707 24.381 30.5802 24.387C30.5873 24.3917 30.5921 24.381 30.5921 24.3633C30.5921 24.3455 30.5968 24.3348 30.6039 24.3396C30.611 24.3443 30.6158 24.3336 30.6158 24.3159C30.6158 24.2981 30.6205 24.2874 30.6276 24.2921C30.6347 24.2957 30.6395 24.2862 30.6395 24.2696C30.6395 24.2542 30.6478 24.2329 30.6573 24.2222C30.6667 24.2127 30.675 24.1938 30.675 24.1807C30.675 24.1665 30.681 24.1558 30.6869 24.1558C30.694 24.1558 30.6987 24.1416 30.6987 24.125C30.6987 24.1084 30.7035 24.0978 30.7106 24.1025C30.7177 24.1072 30.7225 24.0966 30.7225 24.0788C30.7225 24.0622 30.7272 24.0504 30.7331 24.0539C30.7391 24.0575 30.7462 24.0397 30.7509 24.0136C30.7545 23.9875 30.7639 23.9662 30.7699 23.9662C30.777 23.9662 30.7817 23.952 30.7817 23.9354C30.7817 23.9188 30.7865 23.9081 30.7936 23.9129C30.8007 23.9176 30.8054 23.9046 30.8054 23.8832C30.8054 23.8619 30.8102 23.8489 30.8173 23.8536C30.8244 23.8583 30.8291 23.8453 30.8291 23.824C30.8291 23.8038 30.8339 23.7896 30.8398 23.7931C30.8457 23.7967 30.8528 23.7789 30.8576 23.7528C30.8611 23.7268 30.8706 23.7054 30.8765 23.7054C30.8837 23.7054 30.8884 23.6888 30.8884 23.6687C30.8884 23.6485 30.8931 23.6355 30.9002 23.6402C30.9074 23.645 30.9121 23.6319 30.9121 23.6082C30.9121 23.5786 30.9157 23.5739 30.924 23.5869C30.9278 23.5929 30.9306 23.5952 30.9325 23.5929C30.9332 23.5912 30.9338 23.5896 30.9344 23.5879C30.9354 23.5833 30.9358 23.576 30.9358 23.5656C30.9358 23.5454 30.9405 23.5276 30.9465 23.5276C30.9536 23.5276 30.9619 23.5039 30.9666 23.4743C30.9702 23.4447 30.9785 23.4245 30.9844 23.4281C30.9903 23.4316 30.9951 23.4174 30.9951 23.3984C30.9951 23.3783 31.001 23.3617 31.0069 23.3617C31.014 23.3617 31.0188 23.3451 31.0188 23.325C31.0188 23.3048 31.0235 23.2918 31.0306 23.2965C31.0377 23.3013 31.0425 23.2894 31.0425 23.2681C31.0425 23.2491 31.0484 23.2313 31.0555 23.229C31.0614 23.2266 31.0709 23.2029 31.0745 23.1744C31.078 23.1472 31.0852 23.1282 31.0911 23.1318C31.097 23.1353 31.1017 23.1187 31.1017 23.095C31.1017 23.0689 31.1065 23.0547 31.1136 23.0595C31.1207 23.0642 31.1254 23.05 31.1254 23.0251C31.1254 23.0014 31.1314 22.9824 31.1373 22.9824C31.1444 22.9824 31.1492 22.967 31.1492 22.948C31.1492 22.9291 31.1551 22.9113 31.1622 22.9089C31.1693 22.9066 31.1776 22.8793 31.1812 22.8485C31.1847 22.8177 31.193 22.7928 31.1978 22.7928C31.2037 22.7928 31.2084 22.7762 31.2084 22.756C31.2084 22.7359 31.2132 22.7228 31.2203 22.7276C31.2274 22.7323 31.2321 22.7145 31.2321 22.6837C31.2321 22.6517 31.2357 22.6387 31.2428 22.6482C31.2487 22.6588 31.2546 22.6387 31.2594 22.5948C31.2629 22.5569 31.2724 22.5249 31.2795 22.5225C31.2855 22.5202 31.2914 22.4965 31.2914 22.4716C31.2914 22.4431 31.2961 22.4265 31.3032 22.4313C31.3104 22.436 31.3151 22.4182 31.3151 22.3874C31.3151 22.3507 31.3186 22.3412 31.3269 22.3542C31.3284 22.3566 31.3298 22.3581 31.331 22.3588C31.3335 22.3493 31.336 22.3398 31.3385 22.3303C31.3387 22.3251 31.3388 22.3193 31.3388 22.3127C31.3388 22.276 31.3424 22.2594 31.3495 22.2689C31.351 22.2717 31.3527 22.272 31.3543 22.2701C31.3574 22.2581 31.3605 22.2462 31.3635 22.2343C31.3649 22.2249 31.3661 22.2139 31.3672 22.2013C31.372 22.1551 31.3803 22.1172 31.3874 22.1172C31.3933 22.1172 31.3981 22.0958 31.3981 22.0698C31.3981 22.0437 31.404 22.0223 31.4099 22.0223C31.417 22.0223 31.4218 22.001 31.4218 21.9737C31.4218 21.9453 31.4265 21.9287 31.4336 21.9334C31.4346 21.9341 31.4356 21.9343 31.4365 21.9341C31.4395 21.9212 31.4424 21.9084 31.4453 21.8955C31.4454 21.8925 31.4455 21.8893 31.4455 21.886C31.4455 21.8564 31.4502 21.8339 31.4561 21.8374C31.4569 21.8379 31.4577 21.8376 31.4586 21.8366C31.4628 21.8173 31.4671 21.798 31.4713 21.7786C31.4727 21.7673 31.474 21.7548 31.4751 21.7414C31.481 21.6751 31.487 21.6454 31.4941 21.6561C31.495 21.6575 31.4959 21.6584 31.4967 21.6588C31.4993 21.6461 31.5019 21.6334 31.5045 21.6206C31.5047 21.6149 31.5047 21.6086 31.5047 21.6016C31.5047 21.5518 31.5083 21.5352 31.5166 21.5482C31.5173 21.5493 31.5179 21.5502 31.5185 21.5508C31.5219 21.5339 31.5252 21.517 31.5284 21.5001C31.5284 21.4992 31.5284 21.4982 31.5284 21.4973C31.5284 21.4546 31.5332 21.4309 31.5403 21.4356C31.5404 21.4357 31.5406 21.4358 31.5407 21.4359C31.5446 21.4153 31.5484 21.3947 31.5522 21.3741C31.5523 21.3388 31.5569 21.3128 31.5627 21.3158C31.5704 21.2725 31.5779 21.2291 31.5852 21.1857C31.5868 21.1628 31.5877 21.1394 31.5877 21.118C31.5877 21.0907 31.5925 21.0753 31.5996 21.08C31.6006 21.0807 31.6015 21.0808 31.6024 21.0803C31.6054 21.0613 31.6084 21.0423 31.6113 21.0232C31.6114 21.0198 31.6114 21.0162 31.6114 21.0125C31.6114 20.9634 31.6146 20.9448 31.6219 20.9536C31.6265 20.9226 31.6309 20.8917 31.6353 20.8606C31.6362 20.8215 31.6395 20.7988 31.6443 20.7955C31.663 20.6583 31.6794 20.5203 31.6936 20.3817C31.6964 20.3418 31.6996 20.3097 31.7025 20.2915C31.7082 20.2322 31.7134 20.1728 31.7183 20.1132C31.7189 20.0657 31.7209 20.0388 31.7247 20.0312C31.7485 19.7135 31.7606 19.3925 31.7606 19.0687C31.7606 16.7359 31.1325 14.5495 30.0361 12.6688C30.0304 12.6749 30.0242 12.6817 30.0172 12.6895C29.9805 12.7309 29.9283 12.7748 29.8963 12.7902C29.8442 12.8151 29.824 12.8187 29.6735 12.8175C29.4969 12.8175 29.459 12.8115 29.1117 12.7227C28.8082 12.6444 28.6684 12.6219 28.4941 12.6219C28.3531 12.6219 28.3235 12.6255 28.2464 12.6515C28.1101 12.6978 28.0248 12.7795 27.9714 12.9159C27.9477 12.9775 27.9442 13.0059 27.9442 13.1742C27.943 13.3141 27.9489 13.3923 27.9655 13.4706C27.9928 13.6069 28.0591 13.8416 28.0828 13.8866C28.1137 13.947 28.199 14.0205 28.2689 14.0466C28.3519 14.0786 28.5344 14.081 28.6482 14.0525C28.8213 14.0087 29.0334 13.9044 29.1294 13.8178C29.2017 13.7515 29.2515 13.7337 29.3416 13.7444C29.6012 13.7764 29.8928 13.9376 30.1488 14.1936C30.2898 14.3346 30.3621 14.4247 30.4522 14.5717C30.5399 14.7175 30.5589 14.7779 30.5541 14.9047C30.5506 14.9984 30.5459 15.0209 30.5115 15.0873C30.419 15.2651 30.2803 15.3966 29.8702 15.693C29.1899 16.1848 28.9137 16.4492 28.6944 16.8166C28.5854 17.0003 28.5297 17.0762 28.4444 17.158C28.3578 17.2409 28.3033 17.2765 28.2037 17.318C28.1421 17.3429 28.1137 17.3464 27.9904 17.3464C27.8055 17.3464 27.7237 17.3215 27.4748 17.1923C27.3847 17.1449 27.1548 16.9849 27.0315 16.8842C26.9734 16.8368 26.6534 16.5665 26.5977 16.5191C26.5811 16.5049 26.542 16.4717 26.5088 16.4456C26.267 16.2548 26.0051 15.9798 25.7905 15.693C25.5772 15.4061 25.5452 15.3599 25.2702 14.9462C25.0865 14.6712 24.9762 14.5101 24.8376 14.318C24.8252 14.3011 24.7882 14.2468 24.752 14.1936L24.7463 14.1853C24.5946 13.9565 24.5033 13.8688 24.4191 13.8676C24.3397 13.8676 24.2236 13.9565 24.2022 14.0371C24.1785 14.1272 24.2271 14.3417 24.3338 14.6072C24.4405 14.8751 24.5116 15.028 24.77 15.5389C24.8897 15.7771 24.9928 15.9762 24.9976 15.9834C25.0023 15.9893 25.0426 16.064 25.0865 16.1493C25.1072 16.189 25.1308 16.2338 25.1525 16.2749C25.1767 16.3207 25.1984 16.362 25.2109 16.3863C25.346 16.6388 25.5049 16.9505 25.5487 17.0501C25.6637 17.3109 25.7158 17.3689 25.9482 17.4993C26.1414 17.6072 26.5195 17.7067 26.8999 17.7494C27.1737 17.7802 27.3112 17.8182 27.4831 17.9118C27.7474 18.0564 27.8778 18.2543 27.8802 18.5139C27.8802 18.6194 27.86 18.6905 27.7972 18.8091C27.7569 18.8861 27.6277 19.0781 27.585 19.1243C27.5732 19.1374 27.5376 19.18 27.5056 19.2192C27.4736 19.2583 27.3349 19.4041 27.1974 19.5427C26.99 19.7525 26.8679 19.8699 26.5313 20.1792C26.5284 20.1817 26.5183 20.1909 26.5035 20.2043C26.4825 20.2236 26.452 20.2514 26.4199 20.28C26.3878 20.3086 26.3574 20.3364 26.3363 20.3556C26.3216 20.369 26.3114 20.3783 26.3085 20.3807C26.3057 20.3835 26.2886 20.3992 26.2618 20.4237C26.2203 20.4617 26.1556 20.5209 26.0857 20.5858C25.7799 20.8667 25.704 20.9568 25.6661 21.086C25.6435 21.163 25.64 21.5328 25.6613 21.694C25.6684 21.7474 25.6791 21.8339 25.685 21.886C25.6969 21.9856 25.7384 22.2772 25.7561 22.3898C25.832 22.8627 25.8628 23.0986 25.8628 23.2171C25.8628 23.3605 25.845 23.4079 25.7348 23.5537C25.6435 23.6734 25.5689 23.7493 25.3294 23.9698C25.0651 24.2115 24.7759 24.5008 24.7273 24.5731C24.6527 24.6821 24.6313 24.739 24.6183 24.8623C24.6017 25.0092 24.559 25.1776 24.5116 25.2878C24.5057 25.3008 24.4843 25.3518 24.4642 25.4004C24.4263 25.4881 24.2994 25.7465 24.2544 25.8271C24.028 26.2253 23.5693 26.9009 23.2848 27.2553C22.9944 27.6157 22.806 27.7591 22.5073 27.8456C22.2536 27.9191 22.1493 27.9298 21.6906 27.931H21.2936L21.2236 27.8954C21.079 27.8219 20.9866 27.6607 20.9202 27.3668C20.8847 27.2067 20.8764 27.1688 20.8621 27.0953C20.8599 27.0848 20.8568 27.0708 20.8533 27.0542C20.8364 26.9756 20.8075 26.8408 20.7898 26.7635C20.787 26.7529 20.7822 26.7331 20.7763 26.7093C20.7697 26.6825 20.7618 26.6507 20.7543 26.6212C20.7282 26.5181 20.6796 26.3178 20.6357 26.1293C20.5326 25.692 20.452 25.4158 20.3513 25.1645C20.2529 24.9156 20.1557 24.7509 20.0135 24.5885C19.8404 24.3917 19.7942 24.2933 19.7326 23.9958C19.7136 23.901 19.7136 23.4044 19.7326 23.2491L19.7338 23.2393C19.7482 23.13 19.7526 23.0967 19.7883 22.8698C19.7937 22.8355 19.7975 22.8109 19.8017 22.7863C19.813 22.7193 19.8263 22.6526 19.8784 22.3898C19.9424 22.065 19.959 21.9453 19.9601 21.796C19.9601 21.6158 19.9234 21.374 19.8641 21.1571C19.8203 21.003 19.7029 20.6605 19.6567 20.555C19.646 20.5313 19.633 20.5004 19.6283 20.4874C19.6188 20.4637 19.4505 20.0595 19.4185 19.9837C19.3473 19.8165 19.2537 19.6482 19.1861 19.5688C19.0546 19.4124 18.8578 19.2879 18.6611 19.2381C18.3707 19.1635 18.0589 19.1741 17.554 19.2737C17.5244 19.2796 17.4473 19.2891 17.3822 19.2962C17.2962 19.3038 17.2133 19.313 16.9991 19.3368C16.9474 19.3425 16.888 19.3491 16.8191 19.3567C16.0914 19.4373 15.4395 19.4681 15.0863 19.4396C14.7342 19.4112 14.6738 19.3875 14.3656 19.1623C14.0041 18.8968 13.8583 18.6502 13.7682 18.1524C13.7303 17.9438 13.7196 17.7696 13.7196 17.3701C13.7196 16.9304 13.7362 16.6898 13.786 16.3982C13.8322 16.1291 13.9271 15.7771 14.0136 15.5448C14.0205 15.5279 14.032 15.4959 14.044 15.4623C14.0505 15.4441 14.0571 15.4255 14.0634 15.4085C14.0691 15.3929 14.0748 15.3771 14.0801 15.3623C14.0913 15.3311 14.1008 15.3047 14.1049 15.2959C14.1155 15.271 14.2684 14.8668 14.3064 14.7625C14.3455 14.6582 14.4095 14.4698 14.4533 14.3346C14.6252 13.8001 14.8753 13.5014 15.4324 13.1659C15.481 13.1363 15.6493 13.0415 15.8057 12.955C15.9622 12.8684 16.1127 12.7819 16.14 12.763C16.1672 12.7452 16.1921 12.7298 16.1969 12.7298C16.2099 12.7298 16.3332 12.648 16.5643 12.4868C16.8227 12.3066 16.9472 12.2379 17.1178 12.181C17.4331 12.0755 17.7046 12.0636 18.1526 12.1359C18.2356 12.149 18.5817 12.2154 18.6504 12.2319C18.699 12.2426 18.782 12.258 18.9123 12.2794C18.9515 12.2865 19.1008 12.2995 19.2442 12.309C19.3876 12.3185 19.5358 12.3339 19.5725 12.3434C19.6863 12.373 19.8037 12.4429 19.8961 12.5342C20.0028 12.6385 20.049 12.7108 20.196 13C20.3963 13.3911 20.4497 13.4386 20.7543 13.4943C21.0364 13.5464 21.1276 13.5393 21.3837 13.4504L21.5662 13.3876L21.7262 13.3888C21.8222 13.39 21.9561 13.4006 22.064 13.416C22.5239 13.4848 22.6886 13.5002 22.9435 13.5002C23.5278 13.5002 23.9747 13.3414 24.3646 12.9941C24.5839 12.7985 24.8138 12.5069 24.9004 12.3149C24.9656 12.1703 24.9798 12.1075 24.9786 11.9534C24.9774 11.829 24.9739 11.8005 24.9454 11.7235C24.8636 11.5066 24.7593 11.3667 24.3611 10.9518C24.0553 10.633 23.9984 10.5726 23.9249 10.4837C23.8135 10.3497 23.7945 10.3296 23.6938 10.2276C23.5681 10.1008 23.5136 10.07 23.4093 10.0688C23.3074 10.0688 23.2765 10.0854 23.0987 10.2371C22.8463 10.4528 22.742 10.5121 22.5132 10.5714C22.4409 10.5903 22.1505 10.588 22.0462 10.5666C21.821 10.5216 21.6634 10.4694 21.3943 10.3509C21.0482 10.1968 20.9593 10.1613 20.7306 10.0866C20.4295 9.98822 20.3311 9.96807 20.145 9.96807C19.8392 9.96807 19.7172 10.0522 19.3995 10.4777C19.0344 10.9684 18.8483 11.145 18.5354 11.3027C18.1443 11.4994 17.6797 11.6097 17.1202 11.6393C16.7883 11.6571 16.3818 11.6334 16.1791 11.586C16.1673 11.5826 16.1454 11.5775 16.1231 11.5722C16.114 11.5701 16.1047 11.5679 16.0961 11.5658C16.0013 11.5433 15.8662 11.4959 15.7974 11.4591C15.5248 11.3145 15.4928 11.0087 15.705 10.5726C15.7773 10.4232 15.8816 10.2774 16.0191 10.1364C16.2336 9.91354 16.4363 9.80213 16.6248 9.80213C16.6828 9.80213 16.8144 9.77961 16.8867 9.75709C16.9803 9.72746 17.0775 9.66345 17.1759 9.56507C17.2624 9.47973 17.2861 9.44655 17.3324 9.35172C17.4189 9.17275 17.4367 9.09333 17.4438 8.86576C17.4485 8.69745 17.445 8.65122 17.4225 8.53388C17.3632 8.22571 17.3869 7.94243 17.5078 7.52047C17.5087 7.51753 17.5098 7.51367 17.5112 7.50902C17.5192 7.4818 17.5351 7.42785 17.5493 7.37823C17.6133 7.1554 17.7306 6.8176 17.8563 6.48928C17.8728 6.4468 17.8886 6.40587 17.9012 6.37305Z" fill="#0069CA"/>
<path d="M56.9856 27.5719V19.9815C56.9856 19.0193 56.7539 18.2933 56.2907 17.8033C55.8274 17.3133 55.2216 17.0683 54.4732 17.0683C53.8407 17.0683 53.2795 17.242 52.7895 17.5895C52.3084 17.9369 51.9298 18.4625 51.6536 19.1663C51.3774 19.8612 51.2393 20.7298 51.2393 21.7722H50.197C50.197 20.0884 50.4063 18.6897 50.8251 17.5761C51.2438 16.4536 51.8362 15.6161 52.6024 15.0638C53.3685 14.5114 54.2683 14.2353 55.3018 14.2353C56.3708 14.2353 57.2617 14.4758 57.9744 14.9569C58.6961 15.429 59.2351 16.0972 59.5914 16.9614C59.9567 17.8255 60.1393 18.8322 60.1393 19.9815V27.5719H56.9856ZM48.0856 27.5719V9.23737H51.2393V27.5719H48.0856Z" fill="#0069CA"/>
<path d="M72.9961 27.5719L72.5952 24.4181V19.2064C72.5952 18.2977 72.4081 17.6251 72.0339 17.1886C71.6687 16.752 71.045 16.5338 70.1631 16.5338C69.6553 16.5338 69.2143 16.6095 68.8401 16.7609C68.4659 16.9124 68.1764 17.1306 67.9715 17.4157C67.7755 17.6919 67.6775 18.0304 67.6775 18.4313H64.2297C64.2297 17.4514 64.4658 16.654 64.938 16.0393C65.4102 15.4157 66.0872 14.9613 66.9692 14.6762C67.8601 14.3823 68.9247 14.2353 70.1631 14.2353C71.2856 14.2353 72.2656 14.4179 73.103 14.7832C73.9404 15.1395 74.5908 15.6919 75.054 16.4402C75.5173 17.1886 75.7489 18.1463 75.7489 19.3133V27.5719H72.9961ZM68.7465 27.946C67.6329 27.946 66.702 27.7545 65.9536 27.3714C65.2142 26.9794 64.6574 26.4672 64.2832 25.8346C63.909 25.2021 63.7219 24.5161 63.7219 23.7767C63.7219 22.9571 63.9357 22.2711 64.3634 21.7187C64.7999 21.1575 65.4146 20.7387 66.2075 20.4626C67.0004 20.1775 67.9358 20.0349 69.0138 20.0349C69.7176 20.0349 70.3813 20.0884 71.0049 20.1953C71.6375 20.3022 72.2656 20.4448 72.8892 20.6229V22.4671C72.3992 22.3067 71.8647 22.182 71.2856 22.0929C70.7065 22.0038 70.1631 21.9593 69.6553 21.9593C68.9069 21.9593 68.2922 22.0974 67.8111 22.3735C67.33 22.6497 67.0895 23.1174 67.0895 23.7767C67.0895 24.2578 67.2855 24.672 67.6775 25.0195C68.0695 25.3669 68.6931 25.5406 69.5483 25.5406C70.1987 25.5406 70.751 25.3981 71.2054 25.113C71.6598 24.8279 72.0027 24.4716 72.2344 24.0439C72.4749 23.6163 72.5952 23.1887 72.5952 22.7611H73.3435C73.3435 23.6965 73.1698 24.5607 72.8224 25.3535C72.4749 26.1375 71.9582 26.7656 71.2722 27.2378C70.5951 27.71 69.7533 27.946 68.7465 27.946Z" fill="#0069CA"/>
<path d="M85.2893 27.946C84.2024 27.946 83.1913 27.6654 82.2558 27.1041C81.3293 26.534 80.5765 25.7366 79.9974 24.7121C79.4273 23.6787 79.1422 22.4671 79.1422 21.0773C79.1422 19.6073 79.4273 18.3645 79.9974 17.3489C80.5765 16.3244 81.3293 15.5493 82.2558 15.0237C83.1913 14.4981 84.2024 14.2353 85.2893 14.2353C86.1357 14.2353 86.8796 14.3733 87.521 14.6495C88.1713 14.9168 88.7237 15.2821 89.178 15.7453C89.6324 16.1997 89.9888 16.7075 90.2471 17.2687C90.5055 17.83 90.6703 18.3957 90.7416 18.9659L87.5611 19.0461C87.4185 18.4759 87.1513 18.0037 86.7593 17.6295C86.3762 17.2554 85.8773 17.0683 85.2626 17.0683C84.7548 17.0683 84.2782 17.2108 83.8327 17.4959C83.3873 17.7721 83.022 18.2042 82.7369 18.7922C82.4607 19.3801 82.3227 20.1419 82.3227 21.0773C82.3227 21.9682 82.4518 22.7121 82.7102 23.309C82.9775 23.8969 83.3338 24.3424 83.7793 24.6453C84.2247 24.9393 84.7191 25.0863 85.2626 25.0863C86.0644 25.0863 86.6479 24.8947 87.0132 24.5117C87.3784 24.1197 87.5611 23.5985 87.5611 22.9481H90.7416C90.7416 23.8658 90.5322 24.7032 90.1135 25.4605C89.6948 26.2177 89.0801 26.8235 88.2693 27.2779C87.4586 27.7233 86.4653 27.946 85.2893 27.946Z" fill="#0069CA"/>
<path d="M94.518 27.5719V9.23737H97.6717V27.5719H94.518ZM97.2441 19.5271L102.803 14.6094H107.079L97.2441 22.7878V19.5271ZM103.552 27.5719L97.7519 19.3133L100.745 18.5917L107.4 27.5719H103.552Z" fill="#0069CA"/>
<path d="M117.31 10.0392H120.357V21.0238H123.377V23.7232H120.357V27.5719H117.23V23.7232H108.437V21.3446L117.31 10.0392ZM117.391 14.7163L112.179 21.3446H117.391V14.7163Z" fill="#0069CA"/>
<path d="M128.074 12.2308C127.459 12.2308 126.978 12.0704 126.631 11.7497C126.292 11.4201 126.123 10.9657 126.123 10.3866C126.123 9.82536 126.292 9.37992 126.631 9.05029C126.978 8.71175 127.459 8.54248 128.074 8.54248C128.68 8.54248 129.156 8.71175 129.504 9.05029C129.851 9.37992 130.025 9.82536 130.025 10.3866C130.025 10.9657 129.851 11.4201 129.504 11.7497C129.156 12.0704 128.68 12.2308 128.074 12.2308ZM126.497 27.5719V14.556H129.651V27.5719H126.497Z" fill="#0069CA"/>
<path d="M152.612 27.5719V19.9815C152.612 19.0193 152.381 18.2933 151.917 17.8033C151.454 17.3133 150.848 17.0683 150.1 17.0683C149.156 17.0683 148.412 17.4514 147.868 18.2175C147.325 18.9837 147.053 20.1419 147.053 21.692H145.744C145.744 20.3289 145.868 19.1752 146.118 18.2309C146.376 17.2776 146.737 16.5115 147.2 15.9324C147.672 15.3444 148.225 14.9168 148.857 14.6495C149.49 14.3733 150.189 14.2353 150.955 14.2353C152.015 14.2353 152.902 14.4758 153.615 14.9569C154.336 15.429 154.88 16.0972 155.245 16.9614C155.61 17.8255 155.793 18.8322 155.793 19.9815V27.5719H152.612ZM134.999 27.5719V14.6094H137.752L138.1 16.8277C138.527 15.9636 139.093 15.3177 139.797 14.8901C140.501 14.4535 141.307 14.2353 142.216 14.2353C143.285 14.2353 144.176 14.4758 144.888 14.9569C145.61 15.429 146.149 16.0972 146.505 16.9614C146.871 17.8255 147.053 18.8322 147.053 19.9815V27.5719H143.899V19.9815C143.899 19.0193 143.668 18.2933 143.205 17.8033C142.741 17.3133 142.135 17.0683 141.387 17.0683C140.755 17.0683 140.193 17.242 139.703 17.5895C139.222 17.9369 138.844 18.4625 138.567 19.1663C138.291 19.8612 138.153 20.7298 138.153 21.7722V27.5719H134.999Z" fill="#0069CA"/>
<path d="M166.864 27.946C165.91 27.946 165.1 27.7411 164.431 27.3313C163.763 26.9215 163.251 26.3023 162.895 25.4738C162.547 24.6364 162.373 23.5896 162.373 22.3334H163.523C163.523 22.9125 163.656 23.407 163.924 23.8168C164.191 24.2266 164.543 24.5428 164.979 24.7656C165.425 24.9794 165.901 25.0863 166.409 25.0863C166.935 25.0863 167.451 24.9437 167.959 24.6587C168.476 24.3647 168.904 23.9237 169.242 23.3357C169.581 22.7388 169.75 21.986 169.75 21.0773C169.75 20.2488 169.607 19.536 169.322 18.9392C169.037 18.3333 168.645 17.8701 168.146 17.5494C167.656 17.2286 167.095 17.0683 166.463 17.0683C165.928 17.0683 165.438 17.1886 164.993 17.4291C164.547 17.6696 164.191 18.0215 163.924 18.4848C163.656 18.9392 163.523 19.4915 163.523 20.1419H162.373C162.373 18.7788 162.583 17.6652 163.002 16.801C163.42 15.9279 163.981 15.2821 164.685 14.8633C165.389 14.4446 166.16 14.2353 166.997 14.2353C168.022 14.2353 168.984 14.507 169.884 15.0504C170.792 15.5939 171.527 16.3778 172.089 17.4024C172.65 18.418 172.93 19.643 172.93 21.0773C172.93 22.5205 172.645 23.7544 172.075 24.7789C171.505 25.8034 170.757 26.5874 169.83 27.1309C168.913 27.6743 167.924 27.946 166.864 27.946ZM160.369 33.9061V14.6094H162.961L163.523 17.8166V33.9061H160.369Z" fill="#0069CA"/>
<path d="M184.94 27.5719L184.539 24.4181V19.2064C184.539 18.2977 184.352 17.6251 183.978 17.1886C183.613 16.752 182.989 16.5338 182.107 16.5338C181.599 16.5338 181.158 16.6095 180.784 16.7609C180.41 16.9124 180.12 17.1306 179.916 17.4157C179.72 17.6919 179.622 18.0304 179.622 18.4313H176.174C176.174 17.4514 176.41 16.654 176.882 16.0393C177.354 15.4157 178.031 14.9613 178.913 14.6762C179.804 14.3823 180.869 14.2353 182.107 14.2353C183.23 14.2353 184.21 14.4179 185.047 14.7832C185.884 15.1395 186.535 15.6919 186.998 16.4402C187.461 17.1886 187.693 18.1463 187.693 19.3133V27.5719H184.94ZM180.691 27.946C179.577 27.946 178.646 27.7545 177.898 27.3714C177.158 26.9794 176.601 26.4672 176.227 25.8346C175.853 25.2021 175.666 24.5161 175.666 23.7767C175.666 22.9571 175.88 22.2711 176.307 21.7187C176.744 21.1575 177.359 20.7387 178.152 20.4626C178.944 20.1775 179.88 20.0349 180.958 20.0349C181.662 20.0349 182.325 20.0884 182.949 20.1953C183.582 20.3022 184.21 20.4448 184.833 20.6229V22.4671C184.343 22.3067 183.809 22.182 183.23 22.0929C182.651 22.0038 182.107 21.9593 181.599 21.9593C180.851 21.9593 180.236 22.0974 179.755 22.3735C179.274 22.6497 179.034 23.1174 179.034 23.7767C179.034 24.2578 179.23 24.672 179.622 25.0195C180.014 25.3669 180.637 25.5406 181.492 25.5406C182.143 25.5406 182.695 25.3981 183.149 25.113C183.604 24.8279 183.947 24.4716 184.178 24.0439C184.419 23.6163 184.539 23.1887 184.539 22.7611H185.288C185.288 23.6965 185.114 24.5607 184.766 25.3535C184.419 26.1375 183.902 26.7656 183.216 27.2378C182.539 27.71 181.697 27.946 180.691 27.946Z" fill="#0069CA"/>
<path d="M197.233 27.946C196.146 27.946 195.135 27.6654 194.2 27.1041C193.273 26.534 192.521 25.7366 191.941 24.7121C191.371 23.6787 191.086 22.4671 191.086 21.0773C191.086 19.6073 191.371 18.3645 191.941 17.3489C192.521 16.3244 193.273 15.5493 194.2 15.0237C195.135 14.4981 196.146 14.2353 197.233 14.2353C198.08 14.2353 198.824 14.3733 199.465 14.6495C200.115 14.9168 200.668 15.2821 201.122 15.7453C201.576 16.1997 201.933 16.7075 202.191 17.2687C202.45 17.83 202.614 18.3957 202.686 18.9659L199.505 19.0461C199.363 18.4759 199.095 18.0037 198.703 17.6295C198.32 17.2554 197.821 17.0683 197.207 17.0683C196.699 17.0683 196.222 17.2108 195.777 17.4959C195.331 17.7721 194.966 18.2042 194.681 18.7922C194.405 19.3801 194.267 20.1419 194.267 21.0773C194.267 21.9682 194.396 22.7121 194.654 23.309C194.921 23.8969 195.278 24.3424 195.723 24.6453C196.169 24.9393 196.663 25.0863 197.207 25.0863C198.008 25.0863 198.592 24.8947 198.957 24.5117C199.322 24.1197 199.505 23.5985 199.505 22.9481H202.686C202.686 23.8658 202.476 24.7032 202.058 25.4605C201.639 26.2177 201.024 26.8235 200.213 27.2779C199.403 27.7233 198.409 27.946 197.233 27.946Z" fill="#0069CA"/>
<path d="M210.845 27.946C210.079 27.946 209.375 27.8035 208.734 27.5184C208.101 27.2333 207.593 26.7968 207.21 26.2088C206.836 25.6208 206.649 24.8725 206.649 23.9638V11.1617H209.803V23.8569C209.803 24.9259 210.311 25.4605 211.326 25.4605C211.638 25.4605 211.95 25.4248 212.262 25.3535C212.574 25.2823 212.93 25.1754 213.331 25.0328L213.785 27.2511C213.286 27.4471 212.801 27.612 212.329 27.7456C211.856 27.8792 211.362 27.946 210.845 27.946ZM204.832 16.6941V14.6094H213.331V16.6941H204.832Z" fill="#0069CA"/>
<path d="M215.75 20.8902V18.1374H223.261V20.8902H215.75Z" fill="#0069CA"/>
<path d="M226.71 10.2263H229.863V21.0238C229.863 22.4493 230.224 23.4782 230.946 24.1108C231.676 24.7433 232.607 25.0596 233.739 25.0596C234.879 25.0596 235.81 24.7433 236.532 24.1108C237.253 23.4782 237.614 22.4493 237.614 21.0238V10.2263H240.768V21.0238C240.768 22.4849 240.487 23.7321 239.926 24.7656C239.365 25.799 238.558 26.5874 237.507 27.1309C236.465 27.6743 235.209 27.946 233.739 27.946C232.269 27.946 231.008 27.6743 229.957 27.1309C228.915 26.5874 228.113 25.799 227.551 24.7656C226.99 23.7321 226.71 22.4849 226.71 21.0238V10.2263Z" fill="#0069CA"/>
<path d="M245.43 10.2263H249.947L254.837 20.8367H254.57L259.461 10.2263H263.818V27.5719H260.637V13.8611H261.118L255.719 25.6743H253.662L248.289 13.9145H248.583V27.5719H245.43V10.2263Z" fill="#0069CA"/>
<path d="M268.789 10.2263H274.402C276.166 10.2263 277.712 10.5826 279.039 11.2953C280.367 11.9991 281.4 13.0014 282.139 14.3021C282.879 15.6028 283.249 17.1396 283.249 18.9124C283.249 20.6675 282.879 22.1953 282.139 23.496C281.4 24.7878 280.367 25.7901 279.039 26.5028C277.712 27.2155 276.166 27.5719 274.402 27.5719H268.789V10.2263ZM271.943 13.086V24.7388H274.402C275.525 24.7388 276.491 24.4849 277.302 23.9771C278.122 23.4693 278.75 22.7789 279.186 21.9058C279.632 21.0238 279.854 20.026 279.854 18.9124C279.854 17.781 279.632 16.7787 279.186 15.9057C278.75 15.0326 278.122 14.3466 277.302 13.8477C276.491 13.3399 275.525 13.086 274.402 13.086H271.943Z" fill="#0069CA"/>
</svg>
