<svg width="381" height="353" viewBox="0 0 381 353" fill="none" xmlns="http://www.w3.org/2000/svg">
<path d="M116.733 300.357L83.6526 305.917C75.3789 307.32 66.8866 305.383 60.0397 300.531C53.1929 295.679 48.5508 288.308 47.1325 280.037L16.9726 94.0374L181.913 66.3574C182 66.3283 182.074 66.2686 182.12 66.1893C182.167 66.1101 182.183 66.0166 182.166 65.9262C182.149 65.8359 182.099 65.7548 182.027 65.698C181.955 65.6412 181.864 65.6126 181.773 65.6174L16.8526 93.3174L15.4926 84.9174C14.0781 76.6376 16.0098 68.1349 20.863 61.279C25.7161 54.4232 33.0933 49.7753 41.3726 48.3574L277.753 8.69739C281.855 7.98289 286.058 8.08564 290.12 8.99974C294.182 9.91385 298.024 11.6213 301.425 14.0241C304.825 16.4269 307.718 19.4777 309.937 23.0014C312.155 26.525 313.656 30.4522 314.353 34.5574L315.753 43.1374L202.693 62.1174C202.592 62.1174 202.495 62.1574 202.424 62.2287C202.353 62.3 202.313 62.3966 202.313 62.4974C202.313 62.5982 202.353 62.6948 202.424 62.7661C202.495 62.8374 202.592 62.8774 202.693 62.8774C202.893 62.8774 203.173 62.8774 315.813 43.8774L329.473 128.197L329.933 126.197L314.993 34.3574C313.536 25.8997 308.78 18.367 301.77 13.416C294.76 8.46512 286.07 6.5016 277.613 7.95739L41.2526 47.6574C32.7865 49.1101 25.2422 53.8612 20.2744 60.8686C15.3066 67.8761 13.3208 76.5678 14.7526 85.0374L46.3526 280.177C47.8052 288.643 52.5563 296.188 59.5638 301.156C66.5713 306.123 75.263 308.109 83.7326 306.677L116.813 301.117C116.913 301.107 117.006 301.057 117.07 300.978C117.133 300.899 117.163 300.798 117.153 300.697C117.142 300.597 117.092 300.504 117.013 300.44C116.934 300.377 116.833 300.347 116.733 300.357Z" fill="#0069CA"/>
<path d="M346.653 229.598L330.473 129.798L330.013 131.798L345.913 229.798C347.309 238.071 345.366 246.561 340.511 253.404C335.655 260.247 328.283 264.884 320.013 266.298L128.533 298.358C128.447 298.386 128.375 298.444 128.329 298.522C128.282 298.599 128.265 298.69 128.279 298.778C128.294 298.867 128.339 298.948 128.407 299.006C128.476 299.065 128.563 299.097 128.653 299.098L320.153 266.938C328.608 265.48 336.142 260.733 341.108 253.736C346.074 246.739 348.067 238.06 346.653 229.598Z" fill="#0069CA"/>
<path d="M319.213 173.237L329.213 129.077L300.673 130.117L290.433 139.477C294.019 140.24 297.503 141.421 300.813 142.997C302.215 143.594 303.502 144.434 304.613 145.477C306.173 147.257 297.833 144.697 293.713 144.257C294.527 144.711 295.275 145.277 295.933 145.937C296.993 147.137 292.493 145.517 288.393 144.837C287.616 144.637 286.812 144.57 286.013 144.637C290.013 146.417 296.113 149.797 297.573 152.397C299.333 155.557 290.333 149.297 284.513 149.117C288.213 150.837 292.233 153.117 293.693 155.857C295.693 159.457 288.533 152.877 280.013 152.597C288.153 157.517 292.013 161.577 280.413 156.597C278.295 155.64 276.029 155.051 273.713 154.857L250.513 176.097C324.353 173.197 319.153 173.497 319.213 173.237Z" fill="#0069CA"/>
<path d="M337.673 98.0974L320.773 172.517L363.173 127.677L380.053 53.3574L337.673 98.0974Z" fill="#0069CA"/>
<path d="M134.353 214.358C130.455 218.677 125.005 221.277 119.195 221.588C113.386 221.899 107.689 219.896 103.353 216.018L65.9126 182.358C70.4864 170.31 79.3853 160.398 90.8726 154.558L115.773 176.938C132.673 134.258 150.693 130.938 156.493 125.978C168.033 135.078 173.613 138.478 188.733 141.298C184.973 178.378 186.953 221.438 181.113 245.858C179.727 251.603 176.937 256.915 172.993 261.318L146.353 290.998C134.555 285.921 124.728 277.147 118.353 265.998L143.613 237.998L149.753 197.138C198.473 142.898 182.493 160.678 134.353 214.358Z" fill="#80D2C8"/>
<path d="M305.233 145.097C304.059 144.012 302.706 143.139 301.233 142.517C295.913 139.897 294.753 139.837 240.853 126.737L225.673 114.137C226.133 112.277 226.013 111.077 225.293 110.597C225.093 110.457 226.133 111.357 191.293 79.9375C190.613 75.0829 191.051 70.1372 192.573 65.4775C203.273 69.2375 206.073 59.8175 203.853 48.7375C204.396 48.386 204.855 47.9179 205.195 47.3671C205.535 46.8164 205.748 46.1968 205.819 45.5533C205.89 44.9098 205.817 44.2587 205.605 43.6471C205.392 43.0355 205.047 42.4788 204.593 42.0175C205.241 41.6063 205.77 41.0311 206.125 40.35C206.48 39.6689 206.649 38.9062 206.614 38.1389C206.58 37.3716 206.343 36.6271 205.928 35.9806C205.514 35.3342 204.936 34.8087 204.253 34.4575C204.729 33.8733 205.047 33.176 205.175 32.4331C205.303 31.6902 205.237 30.9269 204.983 30.2169C204.73 29.5069 204.298 28.8744 203.728 28.3805C203.159 27.8865 202.471 27.548 201.733 27.3975C201.972 26.7084 202.033 25.9701 201.911 25.251C201.79 24.5318 201.489 23.8549 201.036 23.2828C200.584 22.7107 199.994 22.2619 199.323 21.9778C198.651 21.6938 197.918 21.5836 197.193 21.6575C197.194 20.9311 197.015 20.2158 196.67 19.5765C196.325 18.9372 195.826 18.3942 195.218 17.9968C194.61 17.5995 193.912 17.3603 193.188 17.301C192.464 17.2417 191.737 17.3643 191.073 17.6575C190.858 16.9368 190.461 16.2835 189.921 15.7606C189.38 15.2377 188.714 14.8627 187.987 14.6718C187.259 14.4809 186.495 14.4805 185.768 14.6707C185.04 14.8608 184.374 15.2351 183.833 15.7575C183.391 15.1014 182.787 14.5704 182.08 14.2158C181.372 13.8612 180.586 13.6949 179.796 13.7331C179.005 13.7713 178.238 14.0127 177.569 14.4339C176.899 14.855 176.349 15.4418 175.973 16.1375C175.084 15.4523 173.965 15.1347 172.849 15.2501C171.732 15.3654 170.703 15.905 169.973 16.7575C169.805 15.9155 169.439 15.1257 168.905 14.4534C168.371 13.7812 167.685 13.2459 166.903 12.892C166.121 12.5381 165.265 12.3757 164.408 12.4184C163.551 12.4611 162.716 12.7076 161.973 13.1375C161.468 12.2067 160.71 11.4375 159.787 10.9185C158.864 10.3995 157.813 10.1519 156.755 10.2041C155.698 10.2564 154.676 10.6064 153.809 11.2138C152.941 11.8213 152.263 12.6614 151.853 13.6375C150.946 13.1909 149.931 13.011 148.925 13.1187C147.92 13.2263 146.966 13.6171 146.174 14.2456C145.382 14.874 144.785 15.7144 144.452 16.6688C144.119 17.6233 144.064 18.6528 144.293 19.6375C143.289 19.8372 142.363 20.3201 141.625 21.0291C140.887 21.7381 140.368 22.6436 140.128 23.6385C139.888 24.6334 139.938 25.6761 140.272 26.6435C140.606 27.6109 141.21 28.4624 142.013 29.0975C141.251 29.791 140.706 30.69 140.443 31.6862C140.181 32.6824 140.212 33.7332 140.534 34.712C140.855 35.6908 141.453 36.5557 142.254 37.2025C143.056 37.8494 144.028 38.2505 145.053 38.3575C144.925 39.3639 145.085 40.386 145.515 41.3049C145.945 42.2239 146.627 43.0019 147.481 43.5486C148.336 44.0954 149.328 44.3883 150.343 44.3934C151.357 44.3985 152.353 44.1156 153.213 43.5775C153.571 44.2885 154.087 44.9085 154.722 45.3902C155.356 45.8719 156.091 46.2027 156.873 46.3575C156.708 47.4678 156.978 48.599 157.626 49.5155C158.274 50.4319 159.251 51.0631 160.353 51.2775C160.121 51.9688 160.067 52.707 160.195 53.4246C160.323 54.1422 160.629 54.8164 161.084 55.3854C161.54 55.9544 162.131 56.4001 162.803 56.6817C163.475 56.9633 164.208 57.0719 164.933 56.9975C164.933 57.7272 165.116 58.4452 165.464 59.0864C165.812 59.7276 166.315 60.2716 166.927 60.6689C167.539 61.0663 168.241 61.3045 168.968 61.3619C169.696 61.4193 170.426 61.294 171.093 60.9975C171.311 61.7194 171.712 62.3725 172.258 62.8929C172.804 63.4133 173.475 63.7833 174.206 63.9667C174.938 64.15 175.704 64.1405 176.431 63.9391C177.158 63.7377 177.82 63.3512 178.353 62.8175C179.319 63.8962 180.599 64.6446 182.013 64.9575C177.753 72.5575 169.893 79.3775 166.433 86.6775C157.433 105.657 160.933 111.957 156.193 125.657C148.633 131.077 132.193 135.297 115.653 176.217L91.1926 154.357C91.1156 154.289 91.0159 154.251 90.9126 154.251C90.8093 154.251 90.7096 154.289 90.6326 154.357C88.0265 155.681 85.5433 157.234 83.2126 158.997C70.5926 148.997 69.5926 148.717 59.3526 137.537C59.3115 137.489 59.2584 137.453 59.1987 137.432C59.139 137.411 59.0748 137.406 59.0126 137.417C38.1726 140.197 14.0726 147.357 3.71263 152.357C3.64203 152.382 3.58083 152.428 3.53752 152.489C3.49422 152.55 3.47095 152.623 3.47095 152.697C3.47095 152.772 3.49422 152.845 3.53752 152.906C3.58083 152.967 3.64203 153.013 3.71263 153.037C19.0032 158.866 35.4015 161.21 51.7126 159.897L68.8926 175.337C67.7174 177.388 66.6753 179.513 65.7726 181.697C65.675 181.921 65.6515 182.169 65.7055 182.407C65.7595 182.644 65.8881 182.858 66.0726 183.017L103.073 216.257C107.481 220.211 113.277 222.254 119.19 221.939C125.103 221.624 130.649 218.977 134.613 214.577L149.253 198.277L143.253 237.797L118.453 265.437C118.314 265.586 118.228 265.776 118.206 265.978C118.185 266.179 118.229 266.383 118.333 266.557C119.625 268.719 121.034 270.808 122.553 272.817C109.473 288.817 99.6726 297.897 99.5726 298.457C97.4526 310.957 98.4726 339.417 102.473 352.457C102.494 352.526 102.534 352.588 102.588 352.635C102.643 352.682 102.71 352.713 102.781 352.723C102.852 352.733 102.925 352.723 102.991 352.694C103.057 352.665 103.113 352.617 103.153 352.557C113.553 335.277 117.313 324.557 122.853 305.677L139.053 287.677C141.216 288.986 143.46 290.155 145.773 291.177C145.945 291.248 146.135 291.265 146.317 291.226C146.499 291.187 146.665 291.093 146.793 290.957L173.273 261.477C177.259 257.031 180.077 251.664 181.473 245.857C187.273 221.577 185.473 178.017 189.093 141.337L192.893 134.477L197.933 138.737C198.713 139.437 200.733 138.517 201.833 137.417L216.353 148.457C219.707 150.908 223.658 152.414 227.793 152.817C228.253 152.817 274.053 154.237 280.253 156.937C282.447 158.081 284.81 158.864 287.253 159.257C287.833 159.257 287.933 159.037 288.033 158.877C288.593 157.777 284.593 154.877 281.513 153.037C288.593 153.877 293.513 158.177 294.453 157.037C294.773 156.697 294.453 156.097 294.213 155.577C292.322 152.972 289.785 150.905 286.853 149.577C291.253 150.597 296.173 153.577 297.693 153.577C298.313 153.577 298.693 153.097 298.133 152.117C296.633 149.437 292.133 146.917 288.233 145.117C291.333 145.637 294.653 146.597 295.873 146.597C296.733 146.597 296.913 146.057 296.433 145.497C296.163 145.2 295.869 144.925 295.553 144.677C298.633 145.217 302.793 146.297 304.433 146.297C305.593 146.357 305.753 145.697 305.233 145.097ZM224.013 110.457C221.713 111.017 218.373 114.797 216.853 116.637L216.113 115.977C216.113 115.757 216.993 113.057 215.733 112.257L194.353 92.9575C192.995 89.1183 192.03 85.1513 191.473 81.1175L224.013 110.457ZM182.553 65.5375C185.433 60.4975 186.953 54.2375 184.033 49.3775C184.012 49.3385 183.984 49.3041 183.949 49.2766C183.915 49.2491 183.875 49.2289 183.833 49.2175C178.753 47.5375 180.833 41.6575 184.213 43.9575C185.413 44.7975 186.993 45.5775 187.353 44.1375C187.409 43.5567 187.663 43.0129 188.073 42.5975C188.485 43.2453 189.062 43.7726 189.744 44.126C190.426 44.4793 191.19 44.6462 191.957 44.6096C192.724 44.5731 193.468 44.3345 194.114 43.9179C194.759 43.5013 195.283 42.9216 195.633 42.2375C196.407 42.8591 197.37 43.198 198.363 43.198C199.355 43.198 200.319 42.8591 201.093 42.2375C203.513 48.1175 205.593 59.7775 201.093 64.0375C198.693 66.2575 194.853 66.0375 189.653 63.3375C189.413 63.1975 188.933 63.3375 189.253 64.0575C189.573 64.7775 189.953 65.5775 191.013 67.8975C190.376 70.7645 190.127 73.7041 190.273 76.6375C187.273 80.8575 181.433 76.2575 177.633 72.6375C179.448 70.3974 181.093 68.0241 182.553 65.5375ZM53.1926 160.137C56.6717 154.621 60.8986 149.613 65.7526 145.257C71.0786 150.259 76.7022 154.935 82.5926 159.257C77.2167 163.447 72.7006 168.635 69.2926 174.537L53.1926 160.137ZM122.553 304.917C117.026 300.877 112.144 296.022 108.073 290.517C113.533 284.637 118.593 278.837 122.973 273.497C127.298 278.942 132.495 283.632 138.353 287.377L122.553 304.917ZM180.753 245.697C179.393 251.381 176.644 256.638 172.753 260.997L155.013 280.757C143.733 275.497 134.151 267.183 127.353 256.757C144.953 237.157 144.073 238.217 144.093 238.017L147.193 217.377L179.653 164.357C179.689 164.278 179.697 164.188 179.675 164.104C179.652 164.019 179.602 163.945 179.532 163.894C179.461 163.842 179.375 163.816 179.288 163.82C179.201 163.825 179.118 163.859 179.053 163.917L134.073 213.917C130.24 218.165 124.88 220.721 119.167 221.025C113.454 221.329 107.854 219.355 103.593 215.537L74.6326 189.537C77.6909 183.912 81.3597 178.64 85.5726 173.817C120.613 201.557 118.253 199.817 118.453 199.817C118.653 199.817 118.113 200.617 152.793 149.677C157.537 148.385 161.986 146.185 165.893 143.197C165.961 143.133 166.003 143.045 166.011 142.952C166.018 142.858 165.991 142.765 165.933 142.69C165.876 142.615 165.793 142.564 165.701 142.547C165.608 142.53 165.513 142.548 165.433 142.597C158.14 148.018 149.213 150.784 140.133 150.437C140.032 150.437 139.935 150.478 139.864 150.549C139.793 150.62 139.753 150.717 139.753 150.817C139.753 150.918 139.793 151.015 139.864 151.086C139.935 151.157 140.032 151.197 140.133 151.197C144.017 151.281 147.895 150.864 151.673 149.957L118.353 198.917L86.0726 173.337C89.871 169.111 94.2238 165.417 99.0126 162.357L115.553 177.197C115.597 177.232 115.65 177.256 115.705 177.267C115.761 177.278 115.819 177.276 115.873 177.26C115.928 177.245 115.978 177.216 116.02 177.178C116.061 177.139 116.093 177.091 116.113 177.037C132.353 136.557 148.353 132.157 156.473 126.357C167.533 135.057 173.273 138.677 188.313 141.537C184.613 178.357 186.533 221.457 180.753 245.697ZM197.373 137.297L175.233 118.537C175.163 118.48 175.074 118.45 174.984 118.452C174.893 118.454 174.806 118.488 174.739 118.548C174.671 118.608 174.628 118.691 174.615 118.781C174.603 118.87 174.624 118.961 174.673 119.037C187.553 139.037 188.533 140.817 188.533 140.817C173.593 137.997 167.913 134.417 156.933 125.777C161.673 111.917 158.153 105.877 167.093 87.0175C169.313 82.3375 173.333 77.8975 177.093 73.2575C180.813 76.7975 186.693 81.4775 190.273 77.7975C190.626 82.6126 191.587 87.3637 193.133 91.9375L180.033 80.1775C179.673 79.8375 179.173 80.3975 179.533 80.7375L214.493 112.137C209.273 113.437 197.033 131.297 197.373 137.297ZM295.733 145.917C294.393 145.917 288.873 144.277 285.733 144.117C284.173 143.461 282.577 142.894 280.953 142.417C280.858 142.406 280.763 142.429 280.685 142.484C280.608 142.539 280.554 142.621 280.534 142.714C280.514 142.807 280.529 142.904 280.577 142.986C280.625 143.068 280.702 143.129 280.793 143.157C284.413 143.917 296.353 149.157 297.613 152.897C296.426 152.578 295.274 152.143 294.173 151.597C291.191 150.098 287.98 149.104 284.673 148.657C282.453 147.617 280.513 146.877 279.753 146.657C279.665 146.643 279.576 146.659 279.499 146.703C279.422 146.747 279.364 146.817 279.333 146.9C279.302 146.983 279.301 147.074 279.33 147.157C279.359 147.241 279.417 147.312 279.493 147.357C283.493 148.777 292.253 152.637 293.773 156.577C292.153 156.137 286.513 152.457 280.113 152.217L278.813 151.437C278.725 151.387 278.621 151.374 278.524 151.4C278.426 151.426 278.343 151.49 278.293 151.577C278.242 151.665 278.229 151.769 278.255 151.866C278.281 151.964 278.345 152.047 278.433 152.097C284.113 155.417 286.993 157.837 287.293 158.537C286.973 158.537 285.613 158.537 280.533 156.277C274.213 153.537 229.693 152.157 227.833 152.117C223.837 151.718 220.019 150.261 216.773 147.897L198.773 134.157C200.973 127.737 207.953 117.597 212.773 113.997L231.073 130.357C231.273 130.537 229.473 130.097 282.633 140.557C286.353 141.537 293.413 143.497 295.733 145.917ZM294.013 143.757C290.434 142.041 286.688 140.7 282.833 139.757L231.493 129.757L217.493 117.257C218.887 115.454 220.477 113.811 222.233 112.357L240.453 127.477C240.453 127.477 286.593 138.757 288.993 139.357C293.127 140.246 297.152 141.588 300.993 143.357C302.364 143.933 303.623 144.745 304.713 145.757C303.353 145.777 297.133 144.097 294.013 143.757Z" fill="#0069CA"/>
<path d="M237.893 45.0175C236.291 45.0148 234.723 44.5542 233.375 43.69C232.026 42.8258 230.953 41.594 230.281 40.1398C229.609 38.6857 229.367 37.0698 229.584 35.4827C229.8 33.8956 230.466 32.4035 231.502 31.1822C232.539 29.961 233.903 29.0615 235.433 28.5899C236.964 28.1183 238.598 28.0942 240.142 28.5204C241.686 28.9466 243.076 29.8054 244.148 30.9955C245.22 32.1857 245.929 33.6575 246.193 35.2375C246.393 36.442 246.329 37.6757 246.004 38.8528C245.679 40.0298 245.101 41.1218 244.311 42.0528C243.521 42.9838 242.538 43.7314 241.429 44.2434C240.32 44.7554 239.114 45.0196 237.893 45.0175ZM231.893 32.2975C231.184 33.2903 230.731 34.4424 230.574 35.652C230.417 36.8616 230.56 38.0912 230.991 39.2321C231.423 40.373 232.129 41.39 233.047 42.193C233.965 42.9961 235.067 43.5604 236.255 43.8361C237.443 44.1118 238.681 44.0904 239.859 43.7737C241.037 43.4569 242.118 42.8547 243.008 42.0203C243.898 41.186 244.568 40.1451 244.959 38.9899C245.351 37.8348 245.452 36.6009 245.253 35.3975C245.008 33.9482 244.338 32.6042 243.328 31.5361C242.318 30.468 241.014 29.724 239.58 29.3983C238.147 29.0726 236.649 29.18 235.277 29.7069C233.905 30.2337 232.72 31.1563 231.873 32.3575L231.893 32.2975Z" fill="#0069CA"/>
<path d="M259.413 41.4575C257.811 41.4548 256.243 40.9942 254.895 40.1299C253.546 39.2657 252.473 38.0339 251.801 36.5798C251.129 35.1256 250.887 33.5097 251.104 31.9226C251.32 30.3356 251.986 28.8434 253.022 27.6222C254.059 26.4009 255.423 25.5015 256.953 25.0298C258.484 24.5582 260.118 24.5341 261.662 24.9603C263.206 25.3866 264.596 26.2454 265.668 27.4355C266.74 28.6256 267.449 30.0974 267.713 31.6775C267.917 32.8824 267.855 34.1175 267.531 35.296C267.208 36.4746 266.63 37.5681 265.84 38.4999C265.049 39.4317 264.064 40.1793 262.954 40.6902C261.843 41.2011 260.635 41.463 259.413 41.4575ZM253.413 28.7375C252.704 29.7302 252.251 30.8824 252.094 32.0919C251.937 33.3015 252.08 34.5311 252.511 35.672C252.943 36.813 253.649 37.8299 254.567 38.633C255.485 39.436 256.587 40.0004 257.775 40.2761C258.963 40.5518 260.201 40.5303 261.379 40.2136C262.557 39.8969 263.638 39.2947 264.528 38.4603C265.418 37.6259 266.088 36.5851 266.479 35.4299C266.871 34.2747 266.972 33.0408 266.773 31.8375C266.537 30.3835 265.874 29.0327 264.868 27.9569C263.861 26.8812 262.558 26.1292 261.123 25.7967C259.688 25.4643 258.187 25.5664 256.81 26.0901C255.433 26.6138 254.244 27.5354 253.393 28.7375H253.413Z" fill="#0069CA"/>
<path d="M289.593 28.0575C289.321 26.4187 288.57 24.8971 287.434 23.6851C286.298 22.4731 284.828 21.6251 283.21 21.2484C281.593 20.8717 279.899 20.9831 278.345 21.5686C276.79 22.1541 275.444 23.1874 274.477 24.5378C273.509 25.8882 272.964 27.4951 272.91 29.1554C272.856 30.8157 273.295 32.4547 274.172 33.8654C275.049 35.276 276.325 36.3949 277.838 37.0806C279.351 37.7662 281.034 37.9879 282.673 37.7175C283.763 37.5404 284.807 37.1496 285.745 36.5676C286.684 35.9856 287.498 35.2238 288.141 34.3261C288.784 33.4285 289.243 32.4125 289.492 31.3367C289.742 30.2609 289.776 29.1465 289.593 28.0575Z" fill="#F2594B"/>
<path d="M66.1326 17.4775L56.1326 10.4375L63.1726 0.537537C63.2088 0.458063 63.2165 0.368543 63.1944 0.284041C63.1724 0.199539 63.1219 0.125212 63.0515 0.0735668C62.9811 0.0219216 62.895 -0.0038903 62.8078 0.000475321C62.7205 0.00484094 62.6375 0.0391172 62.5726 0.0975365L55.5326 10.0975L45.5326 3.05754C45.1326 2.75754 44.6926 3.37754 45.0926 3.67754L55.0926 10.6975L48.0526 20.6975C48.0126 20.7537 47.9888 20.8197 47.9834 20.8884C47.9781 20.9571 47.9916 21.026 48.0224 21.0876C48.0533 21.1492 48.1003 21.2013 48.1584 21.2383C48.2166 21.2753 48.2837 21.2958 48.3526 21.2975C48.6526 21.2975 48.1926 21.7975 55.7126 11.2975C66.2326 18.7775 65.7126 18.4175 65.8326 18.4175C65.9572 18.4573 66.0926 18.446 66.2088 18.3859C66.3251 18.3259 66.4128 18.2222 66.4526 18.0975C66.4923 17.9729 66.481 17.8375 66.421 17.7213C66.361 17.605 66.2572 17.5173 66.1326 17.4775Z" fill="#0069CA"/>
<path d="M53.4526 204.978C53.1926 204.758 56.4526 203.658 4.7326 220.438C4.67119 220.46 4.61674 220.499 4.57453 220.549C4.53232 220.599 4.50379 220.659 4.49172 220.724C4.47964 220.788 4.48442 220.855 4.50561 220.917C4.52679 220.979 4.56365 221.034 4.61261 221.078L18.3526 233.258L0.112605 253.258C0.0769279 253.293 0.0486066 253.335 0.0292788 253.381C0.00995094 253.428 0 253.477 0 253.528C0 253.578 0.00995094 253.628 0.0292788 253.674C0.0486066 253.72 0.0769279 253.762 0.112605 253.798C10.7526 263.158 10.1126 262.698 10.2726 262.698C10.4326 262.698 9.2926 263.958 28.7926 242.498L42.4926 254.678C42.542 254.721 42.6017 254.75 42.666 254.764C42.7302 254.777 42.7968 254.773 42.8592 254.753C42.9216 254.733 42.9777 254.697 43.0221 254.649C43.0666 254.6 43.0977 254.541 43.1126 254.478C54.3526 202.098 53.6926 205.218 53.4526 204.978ZM28.4926 241.798L10.2526 261.798L0.892605 253.558C20.5326 231.938 19.2326 233.558 19.2126 233.198C19.1926 232.838 20.0126 233.758 5.5926 220.958L35.0526 211.498L41.7726 253.118L29.0126 241.758C28.9372 241.697 28.8413 241.667 28.7447 241.674C28.648 241.682 28.5578 241.726 28.4926 241.798Z" fill="#0069CA"/>
<path d="M250.013 249.078C249.813 249.078 249.833 249.078 220.493 239.958C220.429 239.926 220.376 239.878 220.339 239.817C220.302 239.757 220.282 239.688 220.282 239.618C220.282 239.547 220.302 239.478 220.339 239.418C220.376 239.358 220.429 239.309 220.493 239.278L245.233 222.078C245.314 222.041 245.406 222.034 245.492 222.058C245.579 222.083 245.653 222.137 245.704 222.211C245.754 222.285 245.776 222.374 245.767 222.464C245.758 222.553 245.717 222.635 245.653 222.698L221.653 239.458L250.113 248.358C250.16 248.364 250.205 248.38 250.247 248.404C250.288 248.428 250.324 248.46 250.352 248.498C250.381 248.536 250.402 248.58 250.414 248.626C250.426 248.672 250.429 248.72 250.423 248.768C250.416 248.815 250.4 248.86 250.376 248.902C250.352 248.943 250.32 248.979 250.282 249.007C250.244 249.036 250.2 249.057 250.154 249.069C250.108 249.081 250.06 249.084 250.013 249.078Z" fill="#0069CA"/>
<path d="M273.953 244.537L297.953 226.817L269.473 218.817C269.417 218.813 269.363 218.795 269.315 218.767C269.267 218.739 269.225 218.701 269.194 218.655C269.162 218.609 269.14 218.557 269.131 218.502C269.122 218.447 269.125 218.391 269.14 218.337C269.155 218.283 269.181 218.234 269.218 218.191C269.254 218.149 269.299 218.115 269.35 218.092C269.401 218.069 269.456 218.058 269.512 218.059C269.568 218.06 269.623 218.073 269.673 218.097C291.073 223.777 296.973 225.477 298.573 226.097C299.293 226.377 299.473 226.537 298.753 227.157C297.413 228.257 292.453 231.897 274.453 245.157C274.37 245.224 274.265 245.255 274.16 245.243C274.055 245.232 273.959 245.18 273.893 245.097C273.826 245.015 273.795 244.91 273.807 244.805C273.818 244.7 273.87 244.604 273.953 244.537Z" fill="#0069CA"/>
<path d="M253.873 259.937L264.613 207.577C264.632 207.48 264.689 207.394 264.771 207.338C264.854 207.281 264.955 207.26 265.053 207.277C265.152 207.301 265.238 207.362 265.294 207.448C265.35 207.533 265.371 207.637 265.353 207.737L254.613 260.097C254.585 260.188 254.523 260.265 254.441 260.313C254.359 260.361 254.262 260.377 254.169 260.356C254.076 260.336 253.994 260.282 253.94 260.205C253.885 260.127 253.861 260.032 253.873 259.937Z" fill="#0069CA"/>
</svg>
