<svg width="153" height="40" viewBox="0 0 153 40" fill="none" xmlns="http://www.w3.org/2000/svg">
<path d="M0.555664 0H132.114C143.158 0 152.111 8.95293 152.111 19.9969C152.111 31.0409 143.158 39.9938 132.114 39.9938H0.555664V0Z" fill="#0069CA"/>
<path d="M25.5671 12.424H28.6631L35.7431 23.536H35.5271V12.424H38.3591V28H35.4791L27.9431 16.216H28.3991V28H25.5671V12.424ZM46.9223 28.336C45.8583 28.336 44.8943 28.108 44.0303 27.652C43.1743 27.196 42.4943 26.516 41.9903 25.612C41.4863 24.7 41.2343 23.56 41.2343 22.192C41.2343 20.8 41.4863 19.648 41.9903 18.736C42.4943 17.824 43.1743 17.144 44.0303 16.696C44.8943 16.248 45.8583 16.024 46.9223 16.024C47.9703 16.024 48.9183 16.248 49.7663 16.696C50.6223 17.144 51.3023 17.824 51.8063 18.736C52.3103 19.648 52.5623 20.8 52.5623 22.192C52.5623 23.56 52.3103 24.7 51.8063 25.612C51.3023 26.516 50.6223 27.196 49.7663 27.652C48.9183 28.108 47.9703 28.336 46.9223 28.336ZM46.8263 25.864C47.3863 25.864 47.8823 25.728 48.3143 25.456C48.7543 25.176 49.0983 24.764 49.3463 24.22C49.6023 23.676 49.7303 23 49.7303 22.192C49.7303 20.96 49.4863 20.032 48.9983 19.408C48.5183 18.784 47.8583 18.472 47.0183 18.472C46.4503 18.472 45.9463 18.612 45.5063 18.892C45.0663 19.164 44.7183 19.576 44.4623 20.128C44.2143 20.68 44.0903 21.368 44.0903 22.192C44.0903 23.408 44.3343 24.324 44.8223 24.94C45.3183 25.556 45.9863 25.864 46.8263 25.864ZM63.444 28V21.184C63.444 20.32 63.236 19.668 62.82 19.228C62.404 18.788 61.86 18.568 61.188 18.568C60.62 18.568 60.116 18.724 59.676 19.036C59.244 19.348 58.904 19.82 58.656 20.452C58.408 21.076 58.284 21.856 58.284 22.792H57.348C57.348 21.28 57.536 20.024 57.912 19.024C58.288 18.016 58.82 17.264 59.508 16.768C60.196 16.272 61.004 16.024 61.932 16.024C62.892 16.024 63.692 16.24 64.332 16.672C64.98 17.096 65.464 17.696 65.784 18.472C66.112 19.248 66.276 20.152 66.276 21.184V28H63.444ZM55.452 28V16.36H57.924L58.284 18.664V28H55.452ZM75.7571 28.336C74.9011 28.336 74.1731 28.152 73.5731 27.784C72.9731 27.416 72.5131 26.86 72.1931 26.116C71.8811 25.364 71.7251 24.424 71.7251 23.296H72.7571C72.7571 23.816 72.8771 24.26 73.1171 24.628C73.3571 24.996 73.6731 25.28 74.0651 25.48C74.4651 25.672 74.8931 25.768 75.3491 25.768C75.8211 25.768 76.2851 25.64 76.7411 25.384C77.2051 25.12 77.5891 24.724 77.8931 24.196C78.1971 23.66 78.3491 22.984 78.3491 22.168C78.3491 21.424 78.2211 20.784 77.9651 20.248C77.7091 19.704 77.3571 19.288 76.9091 19C76.4691 18.712 75.9651 18.568 75.3971 18.568C74.9171 18.568 74.4771 18.676 74.0771 18.892C73.6771 19.108 73.3571 19.424 73.1171 19.84C72.8771 20.248 72.7571 20.744 72.7571 21.328H71.7251C71.7251 20.104 71.9131 19.104 72.2891 18.328C72.6651 17.544 73.1691 16.964 73.8011 16.588C74.4331 16.212 75.1251 16.024 75.8771 16.024C76.7971 16.024 77.6611 16.268 78.4691 16.756C79.2851 17.244 79.9451 17.948 80.4491 18.868C80.9531 19.78 81.2051 20.88 81.2051 22.168C81.2051 23.464 80.9491 24.572 80.4371 25.492C79.9251 26.412 79.2531 27.116 78.4211 27.604C77.5971 28.092 76.7091 28.336 75.7571 28.336ZM69.9251 33.688V16.36H72.2531L72.7571 19.24V33.688H69.9251ZM84.0936 28V16.312H86.9256V28H84.0936ZM86.2296 22.888C86.2296 21.36 86.4016 20.096 86.7456 19.096C87.0896 18.096 87.5496 17.356 88.1256 16.876C88.7096 16.388 89.3576 16.144 90.0696 16.144C90.2616 16.144 90.4416 16.156 90.6096 16.18C90.7856 16.204 90.9576 16.24 91.1256 16.288L91.0776 19.12C90.8696 19.072 90.6456 19.032 90.4056 19C90.1656 18.968 89.9496 18.952 89.7576 18.952C89.1336 18.952 88.6096 19.104 88.1856 19.408C87.7696 19.704 87.4536 20.144 87.2376 20.728C87.0296 21.312 86.9256 22.032 86.9256 22.888H86.2296ZM97.6194 28.336C96.5554 28.336 95.5914 28.108 94.7274 27.652C93.8714 27.196 93.1914 26.516 92.6874 25.612C92.1834 24.7 91.9314 23.56 91.9314 22.192C91.9314 20.8 92.1834 19.648 92.6874 18.736C93.1914 17.824 93.8714 17.144 94.7274 16.696C95.5914 16.248 96.5554 16.024 97.6194 16.024C98.6674 16.024 99.6154 16.248 100.463 16.696C101.319 17.144 101.999 17.824 102.503 18.736C103.007 19.648 103.259 20.8 103.259 22.192C103.259 23.56 103.007 24.7 102.503 25.612C101.999 26.516 101.319 27.196 100.463 27.652C99.6154 28.108 98.6674 28.336 97.6194 28.336ZM97.5234 25.864C98.0834 25.864 98.5794 25.728 99.0114 25.456C99.4514 25.176 99.7954 24.764 100.043 24.22C100.299 23.676 100.427 23 100.427 22.192C100.427 20.96 100.183 20.032 99.6954 19.408C99.2154 18.784 98.5554 18.472 97.7154 18.472C97.1474 18.472 96.6434 18.612 96.2034 18.892C95.7634 19.164 95.4154 19.576 95.1594 20.128C94.9114 20.68 94.7874 21.368 94.7874 22.192C94.7874 23.408 95.0314 24.324 95.5194 24.94C96.0154 25.556 96.6834 25.864 97.5234 25.864ZM106.821 28V14.944C106.821 14.104 106.985 13.42 107.313 12.892C107.641 12.364 108.073 11.976 108.609 11.728C109.153 11.472 109.741 11.344 110.373 11.344C110.765 11.344 111.169 11.372 111.585 11.428C112.001 11.484 112.405 11.552 112.797 11.632L112.245 13.816C112.045 13.744 111.837 13.688 111.621 13.648C111.405 13.6 111.197 13.576 110.997 13.576C110.773 13.576 110.561 13.62 110.361 13.708C110.161 13.788 109.997 13.932 109.869 14.14C109.741 14.348 109.677 14.632 109.677 14.992V28H106.821ZM105.093 18.232V16.36H111.813V18.232H105.093ZM116.625 14.224C116.073 14.224 115.641 14.08 115.329 13.792C115.025 13.496 114.873 13.088 114.873 12.568C114.873 12.064 115.025 11.664 115.329 11.368C115.641 11.064 116.073 10.912 116.625 10.912C117.169 10.912 117.597 11.064 117.909 11.368C118.221 11.664 118.377 12.064 118.377 12.568C118.377 13.088 118.221 13.496 117.909 13.792C117.597 14.08 117.169 14.224 116.625 14.224ZM115.209 28V16.312H118.041V28H115.209ZM126.316 28.336C125.628 28.336 124.996 28.208 124.42 27.952C123.852 27.696 123.396 27.304 123.052 26.776C122.716 26.248 122.548 25.576 122.548 24.76V13.264H125.38V24.664C125.38 25.624 125.836 26.104 126.748 26.104C127.028 26.104 127.308 26.072 127.588 26.008C127.868 25.944 128.188 25.848 128.548 25.72L128.956 27.712C128.508 27.888 128.072 28.036 127.648 28.156C127.224 28.276 126.78 28.336 126.316 28.336ZM120.916 18.232V16.36H128.548V18.232H120.916Z" fill="#C2E0FB"/>
</svg>
